M48
;DRILL file {KiCad (5.0.1-3-g963ef8bb5)} date 2019 April 17, Wednesday 19:13:44
;FORMAT={-:-/ absolute / inch / decimal}
FMAT,2
INCH,TZ
T1C0.0157
T2C0.0354
T3C0.0394
T4C0.0402
T5C0.0591
%
G90
G05
M72
T1
X4.315Y-3.77
X4.325Y-3.98
X4.8Y-3.725
X4.995Y-2.945
X5.09Y-3.2711
X5.385Y-3.825
X5.72Y-3.41
X5.745Y-3.545
X5.785Y-3.27
X6.195Y-4.21
T2
X5.265Y-2.69
X5.265Y-2.79
T3
X5.94Y-3.42
X4.345Y-2.71
X4.445Y-2.71
X4.58Y-4.31
X4.08Y-4.27
X4.18Y-4.27
X6.695Y-3.63
X6.695Y-3.73
T4
X4.14Y-3.535
X4.14Y-3.635
X4.14Y-3.735
T5
X5.0209Y-4.085
X5.2354Y-4.085
X5.45Y-4.085
T0
M30
