G04 #@! TF.GenerationSoftware,KiCad,Pcbnew,(5.0.1-3-g963ef8bb5)*
G04 #@! TF.CreationDate,2019-04-17T19:13:41-07:00*
G04 #@! TF.ProjectId,wireless_proj,776972656C6573735F70726F6A2E6B69,rev?*
G04 #@! TF.SameCoordinates,Original*
G04 #@! TF.FileFunction,Copper,L1,Top,Signal*
G04 #@! TF.FilePolarity,Positive*
%FSLAX46Y46*%
G04 Gerber Fmt 4.6, Leading zero omitted, Abs format (unit mm)*
G04 Created by KiCad (PCBNEW (5.0.1-3-g963ef8bb5)) date 2019 April 17, Wednesday 19:13:41*
%MOMM*%
%LPD*%
G01*
G04 APERTURE LIST*
G04 #@! TA.AperFunction,Conductor*
%ADD10C,0.100000*%
G04 #@! TD*
G04 #@! TA.AperFunction,SMDPad,CuDef*
%ADD11C,1.300000*%
G04 #@! TD*
G04 #@! TA.AperFunction,ComponentPad*
%ADD12R,2.030000X1.730000*%
G04 #@! TD*
G04 #@! TA.AperFunction,ComponentPad*
%ADD13O,2.030000X1.730000*%
G04 #@! TD*
G04 #@! TA.AperFunction,ComponentPad*
%ADD14R,1.700000X1.700000*%
G04 #@! TD*
G04 #@! TA.AperFunction,ComponentPad*
%ADD15O,1.700000X1.700000*%
G04 #@! TD*
G04 #@! TA.AperFunction,SMDPad,CuDef*
%ADD16C,1.525000*%
G04 #@! TD*
G04 #@! TA.AperFunction,SMDPad,CuDef*
%ADD17C,2.650000*%
G04 #@! TD*
G04 #@! TA.AperFunction,ComponentPad*
%ADD18R,1.800000X1.800000*%
G04 #@! TD*
G04 #@! TA.AperFunction,ComponentPad*
%ADD19C,1.800000*%
G04 #@! TD*
G04 #@! TA.AperFunction,SMDPad,CuDef*
%ADD20R,1.060000X0.400000*%
G04 #@! TD*
G04 #@! TA.AperFunction,ComponentPad*
%ADD21R,2.500000X4.500000*%
G04 #@! TD*
G04 #@! TA.AperFunction,ComponentPad*
%ADD22O,2.500000X4.500000*%
G04 #@! TD*
G04 #@! TA.AperFunction,ViaPad*
%ADD23C,0.800000*%
G04 #@! TD*
G04 #@! TA.AperFunction,Conductor*
%ADD24C,0.250000*%
G04 #@! TD*
G04 #@! TA.AperFunction,Conductor*
%ADD25C,0.635000*%
G04 #@! TD*
G04 #@! TA.AperFunction,Conductor*
%ADD26C,0.254000*%
G04 #@! TD*
G04 APERTURE END LIST*
D10*
G04 #@! TO.N,GND*
G04 #@! TO.C,C2*
G36*
X114631504Y-94154204D02*
X114655773Y-94157804D01*
X114679571Y-94163765D01*
X114702671Y-94172030D01*
X114724849Y-94182520D01*
X114745893Y-94195133D01*
X114765598Y-94209747D01*
X114783777Y-94226223D01*
X114800253Y-94244402D01*
X114814867Y-94264107D01*
X114827480Y-94285151D01*
X114837970Y-94307329D01*
X114846235Y-94330429D01*
X114852196Y-94354227D01*
X114855796Y-94378496D01*
X114857000Y-94403000D01*
X114857000Y-95203000D01*
X114855796Y-95227504D01*
X114852196Y-95251773D01*
X114846235Y-95275571D01*
X114837970Y-95298671D01*
X114827480Y-95320849D01*
X114814867Y-95341893D01*
X114800253Y-95361598D01*
X114783777Y-95379777D01*
X114765598Y-95396253D01*
X114745893Y-95410867D01*
X114724849Y-95423480D01*
X114702671Y-95433970D01*
X114679571Y-95442235D01*
X114655773Y-95448196D01*
X114631504Y-95451796D01*
X114607000Y-95453000D01*
X111707000Y-95453000D01*
X111682496Y-95451796D01*
X111658227Y-95448196D01*
X111634429Y-95442235D01*
X111611329Y-95433970D01*
X111589151Y-95423480D01*
X111568107Y-95410867D01*
X111548402Y-95396253D01*
X111530223Y-95379777D01*
X111513747Y-95361598D01*
X111499133Y-95341893D01*
X111486520Y-95320849D01*
X111476030Y-95298671D01*
X111467765Y-95275571D01*
X111461804Y-95251773D01*
X111458204Y-95227504D01*
X111457000Y-95203000D01*
X111457000Y-94403000D01*
X111458204Y-94378496D01*
X111461804Y-94354227D01*
X111467765Y-94330429D01*
X111476030Y-94307329D01*
X111486520Y-94285151D01*
X111499133Y-94264107D01*
X111513747Y-94244402D01*
X111530223Y-94226223D01*
X111548402Y-94209747D01*
X111568107Y-94195133D01*
X111589151Y-94182520D01*
X111611329Y-94172030D01*
X111634429Y-94163765D01*
X111658227Y-94157804D01*
X111682496Y-94154204D01*
X111707000Y-94153000D01*
X114607000Y-94153000D01*
X114631504Y-94154204D01*
X114631504Y-94154204D01*
G37*
D11*
G04 #@! TD*
G04 #@! TO.P,C2,2*
G04 #@! TO.N,GND*
X113157000Y-94803000D03*
D10*
G04 #@! TO.N,/5V*
G04 #@! TO.C,C2*
G36*
X114631504Y-98604204D02*
X114655773Y-98607804D01*
X114679571Y-98613765D01*
X114702671Y-98622030D01*
X114724849Y-98632520D01*
X114745893Y-98645133D01*
X114765598Y-98659747D01*
X114783777Y-98676223D01*
X114800253Y-98694402D01*
X114814867Y-98714107D01*
X114827480Y-98735151D01*
X114837970Y-98757329D01*
X114846235Y-98780429D01*
X114852196Y-98804227D01*
X114855796Y-98828496D01*
X114857000Y-98853000D01*
X114857000Y-99653000D01*
X114855796Y-99677504D01*
X114852196Y-99701773D01*
X114846235Y-99725571D01*
X114837970Y-99748671D01*
X114827480Y-99770849D01*
X114814867Y-99791893D01*
X114800253Y-99811598D01*
X114783777Y-99829777D01*
X114765598Y-99846253D01*
X114745893Y-99860867D01*
X114724849Y-99873480D01*
X114702671Y-99883970D01*
X114679571Y-99892235D01*
X114655773Y-99898196D01*
X114631504Y-99901796D01*
X114607000Y-99903000D01*
X111707000Y-99903000D01*
X111682496Y-99901796D01*
X111658227Y-99898196D01*
X111634429Y-99892235D01*
X111611329Y-99883970D01*
X111589151Y-99873480D01*
X111568107Y-99860867D01*
X111548402Y-99846253D01*
X111530223Y-99829777D01*
X111513747Y-99811598D01*
X111499133Y-99791893D01*
X111486520Y-99770849D01*
X111476030Y-99748671D01*
X111467765Y-99725571D01*
X111461804Y-99701773D01*
X111458204Y-99677504D01*
X111457000Y-99653000D01*
X111457000Y-98853000D01*
X111458204Y-98828496D01*
X111461804Y-98804227D01*
X111467765Y-98780429D01*
X111476030Y-98757329D01*
X111486520Y-98735151D01*
X111499133Y-98714107D01*
X111513747Y-98694402D01*
X111530223Y-98676223D01*
X111548402Y-98659747D01*
X111568107Y-98645133D01*
X111589151Y-98632520D01*
X111611329Y-98622030D01*
X111634429Y-98613765D01*
X111658227Y-98607804D01*
X111682496Y-98604204D01*
X111707000Y-98603000D01*
X114607000Y-98603000D01*
X114631504Y-98604204D01*
X114631504Y-98604204D01*
G37*
D11*
G04 #@! TD*
G04 #@! TO.P,C2,1*
G04 #@! TO.N,/5V*
X113157000Y-99253000D03*
D10*
G04 #@! TO.N,/Vpwr*
G04 #@! TO.C,C1*
G36*
X114758504Y-85899204D02*
X114782773Y-85902804D01*
X114806571Y-85908765D01*
X114829671Y-85917030D01*
X114851849Y-85927520D01*
X114872893Y-85940133D01*
X114892598Y-85954747D01*
X114910777Y-85971223D01*
X114927253Y-85989402D01*
X114941867Y-86009107D01*
X114954480Y-86030151D01*
X114964970Y-86052329D01*
X114973235Y-86075429D01*
X114979196Y-86099227D01*
X114982796Y-86123496D01*
X114984000Y-86148000D01*
X114984000Y-86948000D01*
X114982796Y-86972504D01*
X114979196Y-86996773D01*
X114973235Y-87020571D01*
X114964970Y-87043671D01*
X114954480Y-87065849D01*
X114941867Y-87086893D01*
X114927253Y-87106598D01*
X114910777Y-87124777D01*
X114892598Y-87141253D01*
X114872893Y-87155867D01*
X114851849Y-87168480D01*
X114829671Y-87178970D01*
X114806571Y-87187235D01*
X114782773Y-87193196D01*
X114758504Y-87196796D01*
X114734000Y-87198000D01*
X111834000Y-87198000D01*
X111809496Y-87196796D01*
X111785227Y-87193196D01*
X111761429Y-87187235D01*
X111738329Y-87178970D01*
X111716151Y-87168480D01*
X111695107Y-87155867D01*
X111675402Y-87141253D01*
X111657223Y-87124777D01*
X111640747Y-87106598D01*
X111626133Y-87086893D01*
X111613520Y-87065849D01*
X111603030Y-87043671D01*
X111594765Y-87020571D01*
X111588804Y-86996773D01*
X111585204Y-86972504D01*
X111584000Y-86948000D01*
X111584000Y-86148000D01*
X111585204Y-86123496D01*
X111588804Y-86099227D01*
X111594765Y-86075429D01*
X111603030Y-86052329D01*
X111613520Y-86030151D01*
X111626133Y-86009107D01*
X111640747Y-85989402D01*
X111657223Y-85971223D01*
X111675402Y-85954747D01*
X111695107Y-85940133D01*
X111716151Y-85927520D01*
X111738329Y-85917030D01*
X111761429Y-85908765D01*
X111785227Y-85902804D01*
X111809496Y-85899204D01*
X111834000Y-85898000D01*
X114734000Y-85898000D01*
X114758504Y-85899204D01*
X114758504Y-85899204D01*
G37*
D11*
G04 #@! TD*
G04 #@! TO.P,C1,1*
G04 #@! TO.N,/Vpwr*
X113284000Y-86548000D03*
D10*
G04 #@! TO.N,GND*
G04 #@! TO.C,C1*
G36*
X114758504Y-90349204D02*
X114782773Y-90352804D01*
X114806571Y-90358765D01*
X114829671Y-90367030D01*
X114851849Y-90377520D01*
X114872893Y-90390133D01*
X114892598Y-90404747D01*
X114910777Y-90421223D01*
X114927253Y-90439402D01*
X114941867Y-90459107D01*
X114954480Y-90480151D01*
X114964970Y-90502329D01*
X114973235Y-90525429D01*
X114979196Y-90549227D01*
X114982796Y-90573496D01*
X114984000Y-90598000D01*
X114984000Y-91398000D01*
X114982796Y-91422504D01*
X114979196Y-91446773D01*
X114973235Y-91470571D01*
X114964970Y-91493671D01*
X114954480Y-91515849D01*
X114941867Y-91536893D01*
X114927253Y-91556598D01*
X114910777Y-91574777D01*
X114892598Y-91591253D01*
X114872893Y-91605867D01*
X114851849Y-91618480D01*
X114829671Y-91628970D01*
X114806571Y-91637235D01*
X114782773Y-91643196D01*
X114758504Y-91646796D01*
X114734000Y-91648000D01*
X111834000Y-91648000D01*
X111809496Y-91646796D01*
X111785227Y-91643196D01*
X111761429Y-91637235D01*
X111738329Y-91628970D01*
X111716151Y-91618480D01*
X111695107Y-91605867D01*
X111675402Y-91591253D01*
X111657223Y-91574777D01*
X111640747Y-91556598D01*
X111626133Y-91536893D01*
X111613520Y-91515849D01*
X111603030Y-91493671D01*
X111594765Y-91470571D01*
X111588804Y-91446773D01*
X111585204Y-91422504D01*
X111584000Y-91398000D01*
X111584000Y-90598000D01*
X111585204Y-90573496D01*
X111588804Y-90549227D01*
X111594765Y-90525429D01*
X111603030Y-90502329D01*
X111613520Y-90480151D01*
X111626133Y-90459107D01*
X111640747Y-90439402D01*
X111657223Y-90421223D01*
X111675402Y-90404747D01*
X111695107Y-90390133D01*
X111716151Y-90377520D01*
X111738329Y-90367030D01*
X111761429Y-90358765D01*
X111785227Y-90352804D01*
X111809496Y-90349204D01*
X111834000Y-90348000D01*
X114734000Y-90348000D01*
X114758504Y-90349204D01*
X114758504Y-90349204D01*
G37*
D11*
G04 #@! TD*
G04 #@! TO.P,C1,2*
G04 #@! TO.N,GND*
X113284000Y-90998000D03*
D12*
G04 #@! TO.P,U2,1*
G04 #@! TO.N,/Vpwr*
X105156000Y-89789000D03*
D13*
G04 #@! TO.P,U2,2*
G04 #@! TO.N,GND*
X105156000Y-92329000D03*
G04 #@! TO.P,U2,3*
G04 #@! TO.N,/5V*
X105156000Y-94869000D03*
G04 #@! TD*
D14*
G04 #@! TO.P,J3,1*
G04 #@! TO.N,Net-(J3-Pad1)*
X150876000Y-86868000D03*
G04 #@! TD*
G04 #@! TO.P,J2,1*
G04 #@! TO.N,Net-(J2-Pad1)*
X116332000Y-109474000D03*
G04 #@! TD*
D15*
G04 #@! TO.P,P_in1,2*
G04 #@! TO.N,GND*
X112903000Y-68834000D03*
D14*
G04 #@! TO.P,P_in1,1*
G04 #@! TO.N,Net-(P_in1-Pad1)*
X110363000Y-68834000D03*
G04 #@! TD*
G04 #@! TO.P,J1,1*
G04 #@! TO.N,GND*
X106172000Y-108458000D03*
D15*
G04 #@! TO.P,J1,2*
G04 #@! TO.N,/5V*
X103632000Y-108458000D03*
G04 #@! TD*
G04 #@! TO.P,J4,2*
G04 #@! TO.N,Net-(J4-Pad2)*
X170053000Y-92202000D03*
D14*
G04 #@! TO.P,J4,1*
G04 #@! TO.N,/Vpwr*
X170053000Y-94742000D03*
G04 #@! TD*
D10*
G04 #@! TO.N,/Vpwr*
G04 #@! TO.C,D1*
G36*
X104573505Y-81728204D02*
X104597773Y-81731804D01*
X104621572Y-81737765D01*
X104644671Y-81746030D01*
X104666850Y-81756520D01*
X104687893Y-81769132D01*
X104707599Y-81783747D01*
X104725777Y-81800223D01*
X104742253Y-81818401D01*
X104756868Y-81838107D01*
X104769480Y-81859150D01*
X104779970Y-81881329D01*
X104788235Y-81904428D01*
X104794196Y-81928227D01*
X104797796Y-81952495D01*
X104799000Y-81976999D01*
X104799000Y-83002001D01*
X104797796Y-83026505D01*
X104794196Y-83050773D01*
X104788235Y-83074572D01*
X104779970Y-83097671D01*
X104769480Y-83119850D01*
X104756868Y-83140893D01*
X104742253Y-83160599D01*
X104725777Y-83178777D01*
X104707599Y-83195253D01*
X104687893Y-83209868D01*
X104666850Y-83222480D01*
X104644671Y-83232970D01*
X104621572Y-83241235D01*
X104597773Y-83247196D01*
X104573505Y-83250796D01*
X104549001Y-83252000D01*
X101698999Y-83252000D01*
X101674495Y-83250796D01*
X101650227Y-83247196D01*
X101626428Y-83241235D01*
X101603329Y-83232970D01*
X101581150Y-83222480D01*
X101560107Y-83209868D01*
X101540401Y-83195253D01*
X101522223Y-83178777D01*
X101505747Y-83160599D01*
X101491132Y-83140893D01*
X101478520Y-83119850D01*
X101468030Y-83097671D01*
X101459765Y-83074572D01*
X101453804Y-83050773D01*
X101450204Y-83026505D01*
X101449000Y-83002001D01*
X101449000Y-81976999D01*
X101450204Y-81952495D01*
X101453804Y-81928227D01*
X101459765Y-81904428D01*
X101468030Y-81881329D01*
X101478520Y-81859150D01*
X101491132Y-81838107D01*
X101505747Y-81818401D01*
X101522223Y-81800223D01*
X101540401Y-81783747D01*
X101560107Y-81769132D01*
X101581150Y-81756520D01*
X101603329Y-81746030D01*
X101626428Y-81737765D01*
X101650227Y-81731804D01*
X101674495Y-81728204D01*
X101698999Y-81727000D01*
X104549001Y-81727000D01*
X104573505Y-81728204D01*
X104573505Y-81728204D01*
G37*
D16*
G04 #@! TD*
G04 #@! TO.P,D1,1*
G04 #@! TO.N,/Vpwr*
X103124000Y-82489500D03*
D10*
G04 #@! TO.N,Net-(D1-Pad2)*
G04 #@! TO.C,D1*
G36*
X104573505Y-75753204D02*
X104597773Y-75756804D01*
X104621572Y-75762765D01*
X104644671Y-75771030D01*
X104666850Y-75781520D01*
X104687893Y-75794132D01*
X104707599Y-75808747D01*
X104725777Y-75825223D01*
X104742253Y-75843401D01*
X104756868Y-75863107D01*
X104769480Y-75884150D01*
X104779970Y-75906329D01*
X104788235Y-75929428D01*
X104794196Y-75953227D01*
X104797796Y-75977495D01*
X104799000Y-76001999D01*
X104799000Y-77027001D01*
X104797796Y-77051505D01*
X104794196Y-77075773D01*
X104788235Y-77099572D01*
X104779970Y-77122671D01*
X104769480Y-77144850D01*
X104756868Y-77165893D01*
X104742253Y-77185599D01*
X104725777Y-77203777D01*
X104707599Y-77220253D01*
X104687893Y-77234868D01*
X104666850Y-77247480D01*
X104644671Y-77257970D01*
X104621572Y-77266235D01*
X104597773Y-77272196D01*
X104573505Y-77275796D01*
X104549001Y-77277000D01*
X101698999Y-77277000D01*
X101674495Y-77275796D01*
X101650227Y-77272196D01*
X101626428Y-77266235D01*
X101603329Y-77257970D01*
X101581150Y-77247480D01*
X101560107Y-77234868D01*
X101540401Y-77220253D01*
X101522223Y-77203777D01*
X101505747Y-77185599D01*
X101491132Y-77165893D01*
X101478520Y-77144850D01*
X101468030Y-77122671D01*
X101459765Y-77099572D01*
X101453804Y-77075773D01*
X101450204Y-77051505D01*
X101449000Y-77027001D01*
X101449000Y-76001999D01*
X101450204Y-75977495D01*
X101453804Y-75953227D01*
X101459765Y-75929428D01*
X101468030Y-75906329D01*
X101478520Y-75884150D01*
X101491132Y-75863107D01*
X101505747Y-75843401D01*
X101522223Y-75825223D01*
X101540401Y-75808747D01*
X101560107Y-75794132D01*
X101581150Y-75781520D01*
X101603329Y-75771030D01*
X101626428Y-75762765D01*
X101650227Y-75756804D01*
X101674495Y-75753204D01*
X101698999Y-75752000D01*
X104549001Y-75752000D01*
X104573505Y-75753204D01*
X104573505Y-75753204D01*
G37*
D16*
G04 #@! TD*
G04 #@! TO.P,D1,2*
G04 #@! TO.N,Net-(D1-Pad2)*
X103124000Y-76514500D03*
D10*
G04 #@! TO.N,/Vpwr*
G04 #@! TO.C,D2*
G36*
X125666504Y-88311204D02*
X125690773Y-88314804D01*
X125714571Y-88320765D01*
X125737671Y-88329030D01*
X125759849Y-88339520D01*
X125780893Y-88352133D01*
X125800598Y-88366747D01*
X125818777Y-88383223D01*
X125835253Y-88401402D01*
X125849867Y-88421107D01*
X125862480Y-88442151D01*
X125872970Y-88464329D01*
X125881235Y-88487429D01*
X125887196Y-88511227D01*
X125890796Y-88535496D01*
X125892000Y-88560000D01*
X125892000Y-90710000D01*
X125890796Y-90734504D01*
X125887196Y-90758773D01*
X125881235Y-90782571D01*
X125872970Y-90805671D01*
X125862480Y-90827849D01*
X125849867Y-90848893D01*
X125835253Y-90868598D01*
X125818777Y-90886777D01*
X125800598Y-90903253D01*
X125780893Y-90917867D01*
X125759849Y-90930480D01*
X125737671Y-90940970D01*
X125714571Y-90949235D01*
X125690773Y-90955196D01*
X125666504Y-90958796D01*
X125642000Y-90960000D01*
X120992000Y-90960000D01*
X120967496Y-90958796D01*
X120943227Y-90955196D01*
X120919429Y-90949235D01*
X120896329Y-90940970D01*
X120874151Y-90930480D01*
X120853107Y-90917867D01*
X120833402Y-90903253D01*
X120815223Y-90886777D01*
X120798747Y-90868598D01*
X120784133Y-90848893D01*
X120771520Y-90827849D01*
X120761030Y-90805671D01*
X120752765Y-90782571D01*
X120746804Y-90758773D01*
X120743204Y-90734504D01*
X120742000Y-90710000D01*
X120742000Y-88560000D01*
X120743204Y-88535496D01*
X120746804Y-88511227D01*
X120752765Y-88487429D01*
X120761030Y-88464329D01*
X120771520Y-88442151D01*
X120784133Y-88421107D01*
X120798747Y-88401402D01*
X120815223Y-88383223D01*
X120833402Y-88366747D01*
X120853107Y-88352133D01*
X120874151Y-88339520D01*
X120896329Y-88329030D01*
X120919429Y-88320765D01*
X120943227Y-88314804D01*
X120967496Y-88311204D01*
X120992000Y-88310000D01*
X125642000Y-88310000D01*
X125666504Y-88311204D01*
X125666504Y-88311204D01*
G37*
D17*
G04 #@! TD*
G04 #@! TO.P,D2,1*
G04 #@! TO.N,/Vpwr*
X123317000Y-89635000D03*
D10*
G04 #@! TO.N,Net-(D2-Pad2)*
G04 #@! TO.C,D2*
G36*
X125666504Y-81761204D02*
X125690773Y-81764804D01*
X125714571Y-81770765D01*
X125737671Y-81779030D01*
X125759849Y-81789520D01*
X125780893Y-81802133D01*
X125800598Y-81816747D01*
X125818777Y-81833223D01*
X125835253Y-81851402D01*
X125849867Y-81871107D01*
X125862480Y-81892151D01*
X125872970Y-81914329D01*
X125881235Y-81937429D01*
X125887196Y-81961227D01*
X125890796Y-81985496D01*
X125892000Y-82010000D01*
X125892000Y-84160000D01*
X125890796Y-84184504D01*
X125887196Y-84208773D01*
X125881235Y-84232571D01*
X125872970Y-84255671D01*
X125862480Y-84277849D01*
X125849867Y-84298893D01*
X125835253Y-84318598D01*
X125818777Y-84336777D01*
X125800598Y-84353253D01*
X125780893Y-84367867D01*
X125759849Y-84380480D01*
X125737671Y-84390970D01*
X125714571Y-84399235D01*
X125690773Y-84405196D01*
X125666504Y-84408796D01*
X125642000Y-84410000D01*
X120992000Y-84410000D01*
X120967496Y-84408796D01*
X120943227Y-84405196D01*
X120919429Y-84399235D01*
X120896329Y-84390970D01*
X120874151Y-84380480D01*
X120853107Y-84367867D01*
X120833402Y-84353253D01*
X120815223Y-84336777D01*
X120798747Y-84318598D01*
X120784133Y-84298893D01*
X120771520Y-84277849D01*
X120761030Y-84255671D01*
X120752765Y-84232571D01*
X120746804Y-84208773D01*
X120743204Y-84184504D01*
X120742000Y-84160000D01*
X120742000Y-82010000D01*
X120743204Y-81985496D01*
X120746804Y-81961227D01*
X120752765Y-81937429D01*
X120761030Y-81914329D01*
X120771520Y-81892151D01*
X120784133Y-81871107D01*
X120798747Y-81851402D01*
X120815223Y-81833223D01*
X120833402Y-81816747D01*
X120853107Y-81802133D01*
X120874151Y-81789520D01*
X120896329Y-81779030D01*
X120919429Y-81770765D01*
X120943227Y-81764804D01*
X120967496Y-81761204D01*
X120992000Y-81760000D01*
X125642000Y-81760000D01*
X125666504Y-81761204D01*
X125666504Y-81761204D01*
G37*
D17*
G04 #@! TD*
G04 #@! TO.P,D2,2*
G04 #@! TO.N,Net-(D2-Pad2)*
X123317000Y-83085000D03*
D18*
G04 #@! TO.P,LED1,1*
G04 #@! TO.N,GND*
X133731000Y-68326000D03*
D19*
G04 #@! TO.P,LED1,2*
G04 #@! TO.N,Net-(LED1-Pad2)*
X133731000Y-70866000D03*
G04 #@! TD*
D20*
G04 #@! TO.P,U1,1*
G04 #@! TO.N,Net-(J3-Pad1)*
X139530000Y-88356000D03*
G04 #@! TO.P,U1,2*
G04 #@! TO.N,GND*
X139530000Y-87706000D03*
G04 #@! TO.P,U1,3*
G04 #@! TO.N,Net-(R2-Pad1)*
X139530000Y-87046000D03*
G04 #@! TO.P,U1,4*
G04 #@! TO.N,Net-(R3-Pad1)*
X139530000Y-86396000D03*
G04 #@! TO.P,U1,5*
G04 #@! TO.N,/5V*
X137330000Y-86396000D03*
G04 #@! TO.P,U1,6*
G04 #@! TO.N,N/C*
X137330000Y-87046000D03*
G04 #@! TO.P,U1,7*
X137330000Y-87706000D03*
G04 #@! TO.P,U1,8*
X137330000Y-88356000D03*
G04 #@! TD*
D21*
G04 #@! TO.P,M1,1*
G04 #@! TO.N,Net-(D2-Pad2)*
X138430000Y-103759000D03*
D22*
G04 #@! TO.P,M1,2*
G04 #@! TO.N,Net-(J2-Pad1)*
X132980000Y-103759000D03*
G04 #@! TO.P,M1,3*
G04 #@! TO.N,GND*
X127530000Y-103759000D03*
G04 #@! TD*
D10*
G04 #@! TO.N,Net-(P_in1-Pad1)*
G04 #@! TO.C,TH1*
G36*
X103842505Y-67056704D02*
X103866773Y-67060304D01*
X103890572Y-67066265D01*
X103913671Y-67074530D01*
X103935850Y-67085020D01*
X103956893Y-67097632D01*
X103976599Y-67112247D01*
X103994777Y-67128723D01*
X104011253Y-67146901D01*
X104025868Y-67166607D01*
X104038480Y-67187650D01*
X104048970Y-67209829D01*
X104057235Y-67232928D01*
X104063196Y-67256727D01*
X104066796Y-67280995D01*
X104068000Y-67305499D01*
X104068000Y-68330501D01*
X104066796Y-68355005D01*
X104063196Y-68379273D01*
X104057235Y-68403072D01*
X104048970Y-68426171D01*
X104038480Y-68448350D01*
X104025868Y-68469393D01*
X104011253Y-68489099D01*
X103994777Y-68507277D01*
X103976599Y-68523753D01*
X103956893Y-68538368D01*
X103935850Y-68550980D01*
X103913671Y-68561470D01*
X103890572Y-68569735D01*
X103866773Y-68575696D01*
X103842505Y-68579296D01*
X103818001Y-68580500D01*
X101667999Y-68580500D01*
X101643495Y-68579296D01*
X101619227Y-68575696D01*
X101595428Y-68569735D01*
X101572329Y-68561470D01*
X101550150Y-68550980D01*
X101529107Y-68538368D01*
X101509401Y-68523753D01*
X101491223Y-68507277D01*
X101474747Y-68489099D01*
X101460132Y-68469393D01*
X101447520Y-68448350D01*
X101437030Y-68426171D01*
X101428765Y-68403072D01*
X101422804Y-68379273D01*
X101419204Y-68355005D01*
X101418000Y-68330501D01*
X101418000Y-67305499D01*
X101419204Y-67280995D01*
X101422804Y-67256727D01*
X101428765Y-67232928D01*
X101437030Y-67209829D01*
X101447520Y-67187650D01*
X101460132Y-67166607D01*
X101474747Y-67146901D01*
X101491223Y-67128723D01*
X101509401Y-67112247D01*
X101529107Y-67097632D01*
X101550150Y-67085020D01*
X101572329Y-67074530D01*
X101595428Y-67066265D01*
X101619227Y-67060304D01*
X101643495Y-67056704D01*
X101667999Y-67055500D01*
X103818001Y-67055500D01*
X103842505Y-67056704D01*
X103842505Y-67056704D01*
G37*
D16*
G04 #@! TD*
G04 #@! TO.P,TH1,2*
G04 #@! TO.N,Net-(P_in1-Pad1)*
X102743000Y-67818000D03*
D10*
G04 #@! TO.N,Net-(D1-Pad2)*
G04 #@! TO.C,TH1*
G36*
X103842505Y-71731704D02*
X103866773Y-71735304D01*
X103890572Y-71741265D01*
X103913671Y-71749530D01*
X103935850Y-71760020D01*
X103956893Y-71772632D01*
X103976599Y-71787247D01*
X103994777Y-71803723D01*
X104011253Y-71821901D01*
X104025868Y-71841607D01*
X104038480Y-71862650D01*
X104048970Y-71884829D01*
X104057235Y-71907928D01*
X104063196Y-71931727D01*
X104066796Y-71955995D01*
X104068000Y-71980499D01*
X104068000Y-73005501D01*
X104066796Y-73030005D01*
X104063196Y-73054273D01*
X104057235Y-73078072D01*
X104048970Y-73101171D01*
X104038480Y-73123350D01*
X104025868Y-73144393D01*
X104011253Y-73164099D01*
X103994777Y-73182277D01*
X103976599Y-73198753D01*
X103956893Y-73213368D01*
X103935850Y-73225980D01*
X103913671Y-73236470D01*
X103890572Y-73244735D01*
X103866773Y-73250696D01*
X103842505Y-73254296D01*
X103818001Y-73255500D01*
X101667999Y-73255500D01*
X101643495Y-73254296D01*
X101619227Y-73250696D01*
X101595428Y-73244735D01*
X101572329Y-73236470D01*
X101550150Y-73225980D01*
X101529107Y-73213368D01*
X101509401Y-73198753D01*
X101491223Y-73182277D01*
X101474747Y-73164099D01*
X101460132Y-73144393D01*
X101447520Y-73123350D01*
X101437030Y-73101171D01*
X101428765Y-73078072D01*
X101422804Y-73054273D01*
X101419204Y-73030005D01*
X101418000Y-73005501D01*
X101418000Y-71980499D01*
X101419204Y-71955995D01*
X101422804Y-71931727D01*
X101428765Y-71907928D01*
X101437030Y-71884829D01*
X101447520Y-71862650D01*
X101460132Y-71841607D01*
X101474747Y-71821901D01*
X101491223Y-71803723D01*
X101509401Y-71787247D01*
X101529107Y-71772632D01*
X101550150Y-71760020D01*
X101572329Y-71749530D01*
X101595428Y-71741265D01*
X101619227Y-71735304D01*
X101643495Y-71731704D01*
X101667999Y-71730500D01*
X103818001Y-71730500D01*
X103842505Y-71731704D01*
X103842505Y-71731704D01*
G37*
D16*
G04 #@! TD*
G04 #@! TO.P,TH1,1*
G04 #@! TO.N,Net-(D1-Pad2)*
X102743000Y-72493000D03*
D10*
G04 #@! TO.N,Net-(D2-Pad2)*
G04 #@! TO.C,Rl1*
G36*
X148927505Y-71172204D02*
X148951773Y-71175804D01*
X148975572Y-71181765D01*
X148998671Y-71190030D01*
X149020850Y-71200520D01*
X149041893Y-71213132D01*
X149061599Y-71227747D01*
X149079777Y-71244223D01*
X149096253Y-71262401D01*
X149110868Y-71282107D01*
X149123480Y-71303150D01*
X149133970Y-71325329D01*
X149142235Y-71348428D01*
X149148196Y-71372227D01*
X149151796Y-71396495D01*
X149153000Y-71420999D01*
X149153000Y-72446001D01*
X149151796Y-72470505D01*
X149148196Y-72494773D01*
X149142235Y-72518572D01*
X149133970Y-72541671D01*
X149123480Y-72563850D01*
X149110868Y-72584893D01*
X149096253Y-72604599D01*
X149079777Y-72622777D01*
X149061599Y-72639253D01*
X149041893Y-72653868D01*
X149020850Y-72666480D01*
X148998671Y-72676970D01*
X148975572Y-72685235D01*
X148951773Y-72691196D01*
X148927505Y-72694796D01*
X148903001Y-72696000D01*
X146752999Y-72696000D01*
X146728495Y-72694796D01*
X146704227Y-72691196D01*
X146680428Y-72685235D01*
X146657329Y-72676970D01*
X146635150Y-72666480D01*
X146614107Y-72653868D01*
X146594401Y-72639253D01*
X146576223Y-72622777D01*
X146559747Y-72604599D01*
X146545132Y-72584893D01*
X146532520Y-72563850D01*
X146522030Y-72541671D01*
X146513765Y-72518572D01*
X146507804Y-72494773D01*
X146504204Y-72470505D01*
X146503000Y-72446001D01*
X146503000Y-71420999D01*
X146504204Y-71396495D01*
X146507804Y-71372227D01*
X146513765Y-71348428D01*
X146522030Y-71325329D01*
X146532520Y-71303150D01*
X146545132Y-71282107D01*
X146559747Y-71262401D01*
X146576223Y-71244223D01*
X146594401Y-71227747D01*
X146614107Y-71213132D01*
X146635150Y-71200520D01*
X146657329Y-71190030D01*
X146680428Y-71181765D01*
X146704227Y-71175804D01*
X146728495Y-71172204D01*
X146752999Y-71171000D01*
X148903001Y-71171000D01*
X148927505Y-71172204D01*
X148927505Y-71172204D01*
G37*
D16*
G04 #@! TD*
G04 #@! TO.P,Rl1,1*
G04 #@! TO.N,Net-(D2-Pad2)*
X147828000Y-71933500D03*
D10*
G04 #@! TO.N,Net-(LED1-Pad2)*
G04 #@! TO.C,Rl1*
G36*
X148927505Y-66497204D02*
X148951773Y-66500804D01*
X148975572Y-66506765D01*
X148998671Y-66515030D01*
X149020850Y-66525520D01*
X149041893Y-66538132D01*
X149061599Y-66552747D01*
X149079777Y-66569223D01*
X149096253Y-66587401D01*
X149110868Y-66607107D01*
X149123480Y-66628150D01*
X149133970Y-66650329D01*
X149142235Y-66673428D01*
X149148196Y-66697227D01*
X149151796Y-66721495D01*
X149153000Y-66745999D01*
X149153000Y-67771001D01*
X149151796Y-67795505D01*
X149148196Y-67819773D01*
X149142235Y-67843572D01*
X149133970Y-67866671D01*
X149123480Y-67888850D01*
X149110868Y-67909893D01*
X149096253Y-67929599D01*
X149079777Y-67947777D01*
X149061599Y-67964253D01*
X149041893Y-67978868D01*
X149020850Y-67991480D01*
X148998671Y-68001970D01*
X148975572Y-68010235D01*
X148951773Y-68016196D01*
X148927505Y-68019796D01*
X148903001Y-68021000D01*
X146752999Y-68021000D01*
X146728495Y-68019796D01*
X146704227Y-68016196D01*
X146680428Y-68010235D01*
X146657329Y-68001970D01*
X146635150Y-67991480D01*
X146614107Y-67978868D01*
X146594401Y-67964253D01*
X146576223Y-67947777D01*
X146559747Y-67929599D01*
X146545132Y-67909893D01*
X146532520Y-67888850D01*
X146522030Y-67866671D01*
X146513765Y-67843572D01*
X146507804Y-67819773D01*
X146504204Y-67795505D01*
X146503000Y-67771001D01*
X146503000Y-66745999D01*
X146504204Y-66721495D01*
X146507804Y-66697227D01*
X146513765Y-66673428D01*
X146522030Y-66650329D01*
X146532520Y-66628150D01*
X146545132Y-66607107D01*
X146559747Y-66587401D01*
X146576223Y-66569223D01*
X146594401Y-66552747D01*
X146614107Y-66538132D01*
X146635150Y-66525520D01*
X146657329Y-66515030D01*
X146680428Y-66506765D01*
X146704227Y-66500804D01*
X146728495Y-66497204D01*
X146752999Y-66496000D01*
X148903001Y-66496000D01*
X148927505Y-66497204D01*
X148927505Y-66497204D01*
G37*
D16*
G04 #@! TD*
G04 #@! TO.P,Rl1,2*
G04 #@! TO.N,Net-(LED1-Pad2)*
X147828000Y-67258500D03*
D10*
G04 #@! TO.N,GND*
G04 #@! TO.C,R4*
G36*
X123273505Y-66878204D02*
X123297773Y-66881804D01*
X123321572Y-66887765D01*
X123344671Y-66896030D01*
X123366850Y-66906520D01*
X123387893Y-66919132D01*
X123407599Y-66933747D01*
X123425777Y-66950223D01*
X123442253Y-66968401D01*
X123456868Y-66988107D01*
X123469480Y-67009150D01*
X123479970Y-67031329D01*
X123488235Y-67054428D01*
X123494196Y-67078227D01*
X123497796Y-67102495D01*
X123499000Y-67126999D01*
X123499000Y-68152001D01*
X123497796Y-68176505D01*
X123494196Y-68200773D01*
X123488235Y-68224572D01*
X123479970Y-68247671D01*
X123469480Y-68269850D01*
X123456868Y-68290893D01*
X123442253Y-68310599D01*
X123425777Y-68328777D01*
X123407599Y-68345253D01*
X123387893Y-68359868D01*
X123366850Y-68372480D01*
X123344671Y-68382970D01*
X123321572Y-68391235D01*
X123297773Y-68397196D01*
X123273505Y-68400796D01*
X123249001Y-68402000D01*
X121098999Y-68402000D01*
X121074495Y-68400796D01*
X121050227Y-68397196D01*
X121026428Y-68391235D01*
X121003329Y-68382970D01*
X120981150Y-68372480D01*
X120960107Y-68359868D01*
X120940401Y-68345253D01*
X120922223Y-68328777D01*
X120905747Y-68310599D01*
X120891132Y-68290893D01*
X120878520Y-68269850D01*
X120868030Y-68247671D01*
X120859765Y-68224572D01*
X120853804Y-68200773D01*
X120850204Y-68176505D01*
X120849000Y-68152001D01*
X120849000Y-67126999D01*
X120850204Y-67102495D01*
X120853804Y-67078227D01*
X120859765Y-67054428D01*
X120868030Y-67031329D01*
X120878520Y-67009150D01*
X120891132Y-66988107D01*
X120905747Y-66968401D01*
X120922223Y-66950223D01*
X120940401Y-66933747D01*
X120960107Y-66919132D01*
X120981150Y-66906520D01*
X121003329Y-66896030D01*
X121026428Y-66887765D01*
X121050227Y-66881804D01*
X121074495Y-66878204D01*
X121098999Y-66877000D01*
X123249001Y-66877000D01*
X123273505Y-66878204D01*
X123273505Y-66878204D01*
G37*
D16*
G04 #@! TD*
G04 #@! TO.P,R4,2*
G04 #@! TO.N,GND*
X122174000Y-67639500D03*
D10*
G04 #@! TO.N,Net-(J3-Pad1)*
G04 #@! TO.C,R4*
G36*
X123273505Y-71553204D02*
X123297773Y-71556804D01*
X123321572Y-71562765D01*
X123344671Y-71571030D01*
X123366850Y-71581520D01*
X123387893Y-71594132D01*
X123407599Y-71608747D01*
X123425777Y-71625223D01*
X123442253Y-71643401D01*
X123456868Y-71663107D01*
X123469480Y-71684150D01*
X123479970Y-71706329D01*
X123488235Y-71729428D01*
X123494196Y-71753227D01*
X123497796Y-71777495D01*
X123499000Y-71801999D01*
X123499000Y-72827001D01*
X123497796Y-72851505D01*
X123494196Y-72875773D01*
X123488235Y-72899572D01*
X123479970Y-72922671D01*
X123469480Y-72944850D01*
X123456868Y-72965893D01*
X123442253Y-72985599D01*
X123425777Y-73003777D01*
X123407599Y-73020253D01*
X123387893Y-73034868D01*
X123366850Y-73047480D01*
X123344671Y-73057970D01*
X123321572Y-73066235D01*
X123297773Y-73072196D01*
X123273505Y-73075796D01*
X123249001Y-73077000D01*
X121098999Y-73077000D01*
X121074495Y-73075796D01*
X121050227Y-73072196D01*
X121026428Y-73066235D01*
X121003329Y-73057970D01*
X120981150Y-73047480D01*
X120960107Y-73034868D01*
X120940401Y-73020253D01*
X120922223Y-73003777D01*
X120905747Y-72985599D01*
X120891132Y-72965893D01*
X120878520Y-72944850D01*
X120868030Y-72922671D01*
X120859765Y-72899572D01*
X120853804Y-72875773D01*
X120850204Y-72851505D01*
X120849000Y-72827001D01*
X120849000Y-71801999D01*
X120850204Y-71777495D01*
X120853804Y-71753227D01*
X120859765Y-71729428D01*
X120868030Y-71706329D01*
X120878520Y-71684150D01*
X120891132Y-71663107D01*
X120905747Y-71643401D01*
X120922223Y-71625223D01*
X120940401Y-71608747D01*
X120960107Y-71594132D01*
X120981150Y-71581520D01*
X121003329Y-71571030D01*
X121026428Y-71562765D01*
X121050227Y-71556804D01*
X121074495Y-71553204D01*
X121098999Y-71552000D01*
X123249001Y-71552000D01*
X123273505Y-71553204D01*
X123273505Y-71553204D01*
G37*
D16*
G04 #@! TD*
G04 #@! TO.P,R4,1*
G04 #@! TO.N,Net-(J3-Pad1)*
X122174000Y-72314500D03*
D10*
G04 #@! TO.N,Net-(R3-Pad1)*
G04 #@! TO.C,R3*
G36*
X156674505Y-80824204D02*
X156698773Y-80827804D01*
X156722572Y-80833765D01*
X156745671Y-80842030D01*
X156767850Y-80852520D01*
X156788893Y-80865132D01*
X156808599Y-80879747D01*
X156826777Y-80896223D01*
X156843253Y-80914401D01*
X156857868Y-80934107D01*
X156870480Y-80955150D01*
X156880970Y-80977329D01*
X156889235Y-81000428D01*
X156895196Y-81024227D01*
X156898796Y-81048495D01*
X156900000Y-81072999D01*
X156900000Y-82098001D01*
X156898796Y-82122505D01*
X156895196Y-82146773D01*
X156889235Y-82170572D01*
X156880970Y-82193671D01*
X156870480Y-82215850D01*
X156857868Y-82236893D01*
X156843253Y-82256599D01*
X156826777Y-82274777D01*
X156808599Y-82291253D01*
X156788893Y-82305868D01*
X156767850Y-82318480D01*
X156745671Y-82328970D01*
X156722572Y-82337235D01*
X156698773Y-82343196D01*
X156674505Y-82346796D01*
X156650001Y-82348000D01*
X154499999Y-82348000D01*
X154475495Y-82346796D01*
X154451227Y-82343196D01*
X154427428Y-82337235D01*
X154404329Y-82328970D01*
X154382150Y-82318480D01*
X154361107Y-82305868D01*
X154341401Y-82291253D01*
X154323223Y-82274777D01*
X154306747Y-82256599D01*
X154292132Y-82236893D01*
X154279520Y-82215850D01*
X154269030Y-82193671D01*
X154260765Y-82170572D01*
X154254804Y-82146773D01*
X154251204Y-82122505D01*
X154250000Y-82098001D01*
X154250000Y-81072999D01*
X154251204Y-81048495D01*
X154254804Y-81024227D01*
X154260765Y-81000428D01*
X154269030Y-80977329D01*
X154279520Y-80955150D01*
X154292132Y-80934107D01*
X154306747Y-80914401D01*
X154323223Y-80896223D01*
X154341401Y-80879747D01*
X154361107Y-80865132D01*
X154382150Y-80852520D01*
X154404329Y-80842030D01*
X154427428Y-80833765D01*
X154451227Y-80827804D01*
X154475495Y-80824204D01*
X154499999Y-80823000D01*
X156650001Y-80823000D01*
X156674505Y-80824204D01*
X156674505Y-80824204D01*
G37*
D16*
G04 #@! TD*
G04 #@! TO.P,R3,1*
G04 #@! TO.N,Net-(R3-Pad1)*
X155575000Y-81585500D03*
D10*
G04 #@! TO.N,Net-(J4-Pad2)*
G04 #@! TO.C,R3*
G36*
X156674505Y-76149204D02*
X156698773Y-76152804D01*
X156722572Y-76158765D01*
X156745671Y-76167030D01*
X156767850Y-76177520D01*
X156788893Y-76190132D01*
X156808599Y-76204747D01*
X156826777Y-76221223D01*
X156843253Y-76239401D01*
X156857868Y-76259107D01*
X156870480Y-76280150D01*
X156880970Y-76302329D01*
X156889235Y-76325428D01*
X156895196Y-76349227D01*
X156898796Y-76373495D01*
X156900000Y-76397999D01*
X156900000Y-77423001D01*
X156898796Y-77447505D01*
X156895196Y-77471773D01*
X156889235Y-77495572D01*
X156880970Y-77518671D01*
X156870480Y-77540850D01*
X156857868Y-77561893D01*
X156843253Y-77581599D01*
X156826777Y-77599777D01*
X156808599Y-77616253D01*
X156788893Y-77630868D01*
X156767850Y-77643480D01*
X156745671Y-77653970D01*
X156722572Y-77662235D01*
X156698773Y-77668196D01*
X156674505Y-77671796D01*
X156650001Y-77673000D01*
X154499999Y-77673000D01*
X154475495Y-77671796D01*
X154451227Y-77668196D01*
X154427428Y-77662235D01*
X154404329Y-77653970D01*
X154382150Y-77643480D01*
X154361107Y-77630868D01*
X154341401Y-77616253D01*
X154323223Y-77599777D01*
X154306747Y-77581599D01*
X154292132Y-77561893D01*
X154279520Y-77540850D01*
X154269030Y-77518671D01*
X154260765Y-77495572D01*
X154254804Y-77471773D01*
X154251204Y-77447505D01*
X154250000Y-77423001D01*
X154250000Y-76397999D01*
X154251204Y-76373495D01*
X154254804Y-76349227D01*
X154260765Y-76325428D01*
X154269030Y-76302329D01*
X154279520Y-76280150D01*
X154292132Y-76259107D01*
X154306747Y-76239401D01*
X154323223Y-76221223D01*
X154341401Y-76204747D01*
X154361107Y-76190132D01*
X154382150Y-76177520D01*
X154404329Y-76167030D01*
X154427428Y-76158765D01*
X154451227Y-76152804D01*
X154475495Y-76149204D01*
X154499999Y-76148000D01*
X156650001Y-76148000D01*
X156674505Y-76149204D01*
X156674505Y-76149204D01*
G37*
D16*
G04 #@! TD*
G04 #@! TO.P,R3,2*
G04 #@! TO.N,Net-(J4-Pad2)*
X155575000Y-76910500D03*
D10*
G04 #@! TO.N,Net-(D2-Pad2)*
G04 #@! TO.C,R2*
G36*
X148292505Y-98985204D02*
X148316773Y-98988804D01*
X148340572Y-98994765D01*
X148363671Y-99003030D01*
X148385850Y-99013520D01*
X148406893Y-99026132D01*
X148426599Y-99040747D01*
X148444777Y-99057223D01*
X148461253Y-99075401D01*
X148475868Y-99095107D01*
X148488480Y-99116150D01*
X148498970Y-99138329D01*
X148507235Y-99161428D01*
X148513196Y-99185227D01*
X148516796Y-99209495D01*
X148518000Y-99233999D01*
X148518000Y-100259001D01*
X148516796Y-100283505D01*
X148513196Y-100307773D01*
X148507235Y-100331572D01*
X148498970Y-100354671D01*
X148488480Y-100376850D01*
X148475868Y-100397893D01*
X148461253Y-100417599D01*
X148444777Y-100435777D01*
X148426599Y-100452253D01*
X148406893Y-100466868D01*
X148385850Y-100479480D01*
X148363671Y-100489970D01*
X148340572Y-100498235D01*
X148316773Y-100504196D01*
X148292505Y-100507796D01*
X148268001Y-100509000D01*
X146117999Y-100509000D01*
X146093495Y-100507796D01*
X146069227Y-100504196D01*
X146045428Y-100498235D01*
X146022329Y-100489970D01*
X146000150Y-100479480D01*
X145979107Y-100466868D01*
X145959401Y-100452253D01*
X145941223Y-100435777D01*
X145924747Y-100417599D01*
X145910132Y-100397893D01*
X145897520Y-100376850D01*
X145887030Y-100354671D01*
X145878765Y-100331572D01*
X145872804Y-100307773D01*
X145869204Y-100283505D01*
X145868000Y-100259001D01*
X145868000Y-99233999D01*
X145869204Y-99209495D01*
X145872804Y-99185227D01*
X145878765Y-99161428D01*
X145887030Y-99138329D01*
X145897520Y-99116150D01*
X145910132Y-99095107D01*
X145924747Y-99075401D01*
X145941223Y-99057223D01*
X145959401Y-99040747D01*
X145979107Y-99026132D01*
X146000150Y-99013520D01*
X146022329Y-99003030D01*
X146045428Y-98994765D01*
X146069227Y-98988804D01*
X146093495Y-98985204D01*
X146117999Y-98984000D01*
X148268001Y-98984000D01*
X148292505Y-98985204D01*
X148292505Y-98985204D01*
G37*
D16*
G04 #@! TD*
G04 #@! TO.P,R2,2*
G04 #@! TO.N,Net-(D2-Pad2)*
X147193000Y-99746500D03*
D10*
G04 #@! TO.N,Net-(R2-Pad1)*
G04 #@! TO.C,R2*
G36*
X148292505Y-94310204D02*
X148316773Y-94313804D01*
X148340572Y-94319765D01*
X148363671Y-94328030D01*
X148385850Y-94338520D01*
X148406893Y-94351132D01*
X148426599Y-94365747D01*
X148444777Y-94382223D01*
X148461253Y-94400401D01*
X148475868Y-94420107D01*
X148488480Y-94441150D01*
X148498970Y-94463329D01*
X148507235Y-94486428D01*
X148513196Y-94510227D01*
X148516796Y-94534495D01*
X148518000Y-94558999D01*
X148518000Y-95584001D01*
X148516796Y-95608505D01*
X148513196Y-95632773D01*
X148507235Y-95656572D01*
X148498970Y-95679671D01*
X148488480Y-95701850D01*
X148475868Y-95722893D01*
X148461253Y-95742599D01*
X148444777Y-95760777D01*
X148426599Y-95777253D01*
X148406893Y-95791868D01*
X148385850Y-95804480D01*
X148363671Y-95814970D01*
X148340572Y-95823235D01*
X148316773Y-95829196D01*
X148292505Y-95832796D01*
X148268001Y-95834000D01*
X146117999Y-95834000D01*
X146093495Y-95832796D01*
X146069227Y-95829196D01*
X146045428Y-95823235D01*
X146022329Y-95814970D01*
X146000150Y-95804480D01*
X145979107Y-95791868D01*
X145959401Y-95777253D01*
X145941223Y-95760777D01*
X145924747Y-95742599D01*
X145910132Y-95722893D01*
X145897520Y-95701850D01*
X145887030Y-95679671D01*
X145878765Y-95656572D01*
X145872804Y-95632773D01*
X145869204Y-95608505D01*
X145868000Y-95584001D01*
X145868000Y-94558999D01*
X145869204Y-94534495D01*
X145872804Y-94510227D01*
X145878765Y-94486428D01*
X145887030Y-94463329D01*
X145897520Y-94441150D01*
X145910132Y-94420107D01*
X145924747Y-94400401D01*
X145941223Y-94382223D01*
X145959401Y-94365747D01*
X145979107Y-94351132D01*
X146000150Y-94338520D01*
X146022329Y-94328030D01*
X146045428Y-94319765D01*
X146069227Y-94313804D01*
X146093495Y-94310204D01*
X146117999Y-94309000D01*
X148268001Y-94309000D01*
X148292505Y-94310204D01*
X148292505Y-94310204D01*
G37*
D16*
G04 #@! TD*
G04 #@! TO.P,R2,1*
G04 #@! TO.N,Net-(R2-Pad1)*
X147193000Y-95071500D03*
D10*
G04 #@! TO.N,Net-(J4-Pad2)*
G04 #@! TO.C,R1*
G36*
X156547505Y-71223704D02*
X156571773Y-71227304D01*
X156595572Y-71233265D01*
X156618671Y-71241530D01*
X156640850Y-71252020D01*
X156661893Y-71264632D01*
X156681599Y-71279247D01*
X156699777Y-71295723D01*
X156716253Y-71313901D01*
X156730868Y-71333607D01*
X156743480Y-71354650D01*
X156753970Y-71376829D01*
X156762235Y-71399928D01*
X156768196Y-71423727D01*
X156771796Y-71447995D01*
X156773000Y-71472499D01*
X156773000Y-72497501D01*
X156771796Y-72522005D01*
X156768196Y-72546273D01*
X156762235Y-72570072D01*
X156753970Y-72593171D01*
X156743480Y-72615350D01*
X156730868Y-72636393D01*
X156716253Y-72656099D01*
X156699777Y-72674277D01*
X156681599Y-72690753D01*
X156661893Y-72705368D01*
X156640850Y-72717980D01*
X156618671Y-72728470D01*
X156595572Y-72736735D01*
X156571773Y-72742696D01*
X156547505Y-72746296D01*
X156523001Y-72747500D01*
X154372999Y-72747500D01*
X154348495Y-72746296D01*
X154324227Y-72742696D01*
X154300428Y-72736735D01*
X154277329Y-72728470D01*
X154255150Y-72717980D01*
X154234107Y-72705368D01*
X154214401Y-72690753D01*
X154196223Y-72674277D01*
X154179747Y-72656099D01*
X154165132Y-72636393D01*
X154152520Y-72615350D01*
X154142030Y-72593171D01*
X154133765Y-72570072D01*
X154127804Y-72546273D01*
X154124204Y-72522005D01*
X154123000Y-72497501D01*
X154123000Y-71472499D01*
X154124204Y-71447995D01*
X154127804Y-71423727D01*
X154133765Y-71399928D01*
X154142030Y-71376829D01*
X154152520Y-71354650D01*
X154165132Y-71333607D01*
X154179747Y-71313901D01*
X154196223Y-71295723D01*
X154214401Y-71279247D01*
X154234107Y-71264632D01*
X154255150Y-71252020D01*
X154277329Y-71241530D01*
X154300428Y-71233265D01*
X154324227Y-71227304D01*
X154348495Y-71223704D01*
X154372999Y-71222500D01*
X156523001Y-71222500D01*
X156547505Y-71223704D01*
X156547505Y-71223704D01*
G37*
D16*
G04 #@! TD*
G04 #@! TO.P,R1,1*
G04 #@! TO.N,Net-(J4-Pad2)*
X155448000Y-71985000D03*
D10*
G04 #@! TO.N,Net-(D2-Pad2)*
G04 #@! TO.C,R1*
G36*
X156547505Y-66548704D02*
X156571773Y-66552304D01*
X156595572Y-66558265D01*
X156618671Y-66566530D01*
X156640850Y-66577020D01*
X156661893Y-66589632D01*
X156681599Y-66604247D01*
X156699777Y-66620723D01*
X156716253Y-66638901D01*
X156730868Y-66658607D01*
X156743480Y-66679650D01*
X156753970Y-66701829D01*
X156762235Y-66724928D01*
X156768196Y-66748727D01*
X156771796Y-66772995D01*
X156773000Y-66797499D01*
X156773000Y-67822501D01*
X156771796Y-67847005D01*
X156768196Y-67871273D01*
X156762235Y-67895072D01*
X156753970Y-67918171D01*
X156743480Y-67940350D01*
X156730868Y-67961393D01*
X156716253Y-67981099D01*
X156699777Y-67999277D01*
X156681599Y-68015753D01*
X156661893Y-68030368D01*
X156640850Y-68042980D01*
X156618671Y-68053470D01*
X156595572Y-68061735D01*
X156571773Y-68067696D01*
X156547505Y-68071296D01*
X156523001Y-68072500D01*
X154372999Y-68072500D01*
X154348495Y-68071296D01*
X154324227Y-68067696D01*
X154300428Y-68061735D01*
X154277329Y-68053470D01*
X154255150Y-68042980D01*
X154234107Y-68030368D01*
X154214401Y-68015753D01*
X154196223Y-67999277D01*
X154179747Y-67981099D01*
X154165132Y-67961393D01*
X154152520Y-67940350D01*
X154142030Y-67918171D01*
X154133765Y-67895072D01*
X154127804Y-67871273D01*
X154124204Y-67847005D01*
X154123000Y-67822501D01*
X154123000Y-66797499D01*
X154124204Y-66772995D01*
X154127804Y-66748727D01*
X154133765Y-66724928D01*
X154142030Y-66701829D01*
X154152520Y-66679650D01*
X154165132Y-66658607D01*
X154179747Y-66638901D01*
X154196223Y-66620723D01*
X154214401Y-66604247D01*
X154234107Y-66589632D01*
X154255150Y-66577020D01*
X154277329Y-66566530D01*
X154300428Y-66558265D01*
X154324227Y-66552304D01*
X154348495Y-66548704D01*
X154372999Y-66547500D01*
X156523001Y-66547500D01*
X156547505Y-66548704D01*
X156547505Y-66548704D01*
G37*
D16*
G04 #@! TD*
G04 #@! TO.P,R1,2*
G04 #@! TO.N,Net-(D2-Pad2)*
X155448000Y-67310000D03*
D23*
G04 #@! TO.N,Net-(D2-Pad2)*
X136779000Y-97155000D03*
X129286000Y-83085000D03*
G04 #@! TO.N,Net-(R2-Pad1)*
X145923000Y-90043000D03*
X145288000Y-86614000D03*
G04 #@! TO.N,GND*
X109855000Y-101092000D03*
X109601000Y-95758000D03*
G04 #@! TO.N,Net-(J3-Pad1)*
X146939000Y-83058000D03*
X126873000Y-74803000D03*
G04 #@! TO.N,/Vpwr*
X121920000Y-94615000D03*
X157353000Y-106934000D03*
G04 #@! TD*
D24*
G04 #@! TO.N,Net-(J4-Pad2)*
X155448000Y-76783500D02*
X155575000Y-76910500D01*
X155448000Y-71985000D02*
X155448000Y-76783500D01*
X170053000Y-91388500D02*
X170053000Y-92202000D01*
X155575000Y-76910500D02*
X170053000Y-91388500D01*
D25*
G04 #@! TO.N,Net-(D2-Pad2)*
X152451500Y-67310000D02*
X147828000Y-71933500D01*
X155448000Y-67310000D02*
X152451500Y-67310000D01*
X136676500Y-83085000D02*
X147828000Y-71933500D01*
D24*
X143180500Y-103759000D02*
X138430000Y-103759000D01*
X147193000Y-99746500D02*
X143180500Y-103759000D01*
X139370500Y-99746500D02*
X136779000Y-97155000D01*
X147193000Y-99746500D02*
X139370500Y-99746500D01*
D25*
X129286000Y-83085000D02*
X136676500Y-83085000D01*
X123317000Y-83085000D02*
X129286000Y-83085000D01*
D24*
G04 #@! TO.N,Net-(R2-Pad1)*
X147193000Y-91313000D02*
X145923000Y-90043000D01*
X147193000Y-95071500D02*
X147193000Y-91313000D01*
X144856000Y-87046000D02*
X139530000Y-87046000D01*
X145288000Y-86614000D02*
X144856000Y-87046000D01*
G04 #@! TO.N,Net-(R3-Pad1)*
X154150000Y-81585500D02*
X155575000Y-81585500D01*
X144670500Y-81585500D02*
X154150000Y-81585500D01*
X139860000Y-86396000D02*
X144670500Y-81585500D01*
X139530000Y-86396000D02*
X139860000Y-86396000D01*
D25*
G04 #@! TO.N,GND*
X120979500Y-68834000D02*
X122174000Y-67639500D01*
X112903000Y-68834000D02*
X120979500Y-68834000D01*
X133044500Y-67639500D02*
X133731000Y-68326000D01*
X122174000Y-67639500D02*
X133044500Y-67639500D01*
X111953000Y-92329000D02*
X113284000Y-90998000D01*
X105156000Y-92329000D02*
X111953000Y-92329000D01*
X113284000Y-94676000D02*
X113157000Y-94803000D01*
X113284000Y-90998000D02*
X113284000Y-94676000D01*
X109855000Y-106260000D02*
X109855000Y-101092000D01*
X107657000Y-108458000D02*
X109855000Y-106260000D01*
X106172000Y-108458000D02*
X107657000Y-108458000D01*
X108585000Y-95758000D02*
X105156000Y-92329000D01*
X109601000Y-95758000D02*
X108585000Y-95758000D01*
D24*
X138750000Y-87706000D02*
X139530000Y-87706000D01*
X138674999Y-87781001D02*
X138750000Y-87706000D01*
X138674999Y-90114001D02*
X138674999Y-87781001D01*
X127530000Y-101259000D02*
X138674999Y-90114001D01*
X127530000Y-103759000D02*
X127530000Y-101259000D01*
G04 #@! TO.N,Net-(J3-Pad1)*
X150876000Y-87968000D02*
X150876000Y-86868000D01*
X150488000Y-88356000D02*
X150876000Y-87968000D01*
X148082000Y-88356000D02*
X148082000Y-84201000D01*
X139530000Y-88356000D02*
X148082000Y-88356000D01*
X148082000Y-84201000D02*
X146939000Y-83058000D01*
X148082000Y-88356000D02*
X150488000Y-88356000D01*
X124384500Y-72314500D02*
X122174000Y-72314500D01*
X126873000Y-74803000D02*
X124384500Y-72314500D01*
D25*
G04 #@! TO.N,Net-(LED1-Pad2)*
X134630999Y-69966001D02*
X133731000Y-70866000D01*
X145342999Y-69743501D02*
X134853499Y-69743501D01*
X134853499Y-69743501D02*
X134630999Y-69966001D01*
X147828000Y-67258500D02*
X145342999Y-69743501D01*
G04 #@! TO.N,Net-(P_in1-Pad1)*
X103759000Y-68834000D02*
X102743000Y-67818000D01*
X110363000Y-68834000D02*
X103759000Y-68834000D01*
G04 #@! TO.N,Net-(D1-Pad2)*
X102743000Y-76133500D02*
X103124000Y-76514500D01*
X102743000Y-72493000D02*
X102743000Y-76133500D01*
G04 #@! TO.N,Net-(J2-Pad1)*
X132980000Y-104759000D02*
X132980000Y-103759000D01*
X128265000Y-109474000D02*
X132980000Y-104759000D01*
X116332000Y-109474000D02*
X128265000Y-109474000D01*
G04 #@! TO.N,/5V*
X111357000Y-99253000D02*
X113157000Y-99253000D01*
X108040000Y-99253000D02*
X111357000Y-99253000D01*
X105156000Y-96369000D02*
X108040000Y-99253000D01*
X105156000Y-94869000D02*
X105156000Y-96369000D01*
X108040000Y-104050000D02*
X103632000Y-108458000D01*
X108040000Y-99253000D02*
X108040000Y-104050000D01*
D24*
X134457000Y-86396000D02*
X137330000Y-86396000D01*
X122320710Y-98532290D02*
X134457000Y-86396000D01*
X113877710Y-98532290D02*
X122320710Y-98532290D01*
X113157000Y-99253000D02*
X113877710Y-98532290D01*
D25*
G04 #@! TO.N,/Vpwr*
X105006000Y-89789000D02*
X105156000Y-89789000D01*
X103124000Y-87907000D02*
X105006000Y-89789000D01*
X103124000Y-82489500D02*
X103124000Y-87907000D01*
X110043000Y-89789000D02*
X113284000Y-86548000D01*
X105156000Y-89789000D02*
X110043000Y-89789000D01*
X116371000Y-89635000D02*
X123317000Y-89635000D01*
X113284000Y-86548000D02*
X116371000Y-89635000D01*
X123317000Y-93218000D02*
X121920000Y-94615000D01*
X123317000Y-89635000D02*
X123317000Y-93218000D01*
X169545000Y-94742000D02*
X170053000Y-94742000D01*
X157353000Y-106934000D02*
X169545000Y-94742000D01*
G04 #@! TD*
D26*
G04 #@! TO.N,GND*
G36*
X120214000Y-66750691D02*
X120214000Y-67353750D01*
X120372750Y-67512500D01*
X122047000Y-67512500D01*
X122047000Y-67492500D01*
X122301000Y-67492500D01*
X122301000Y-67512500D01*
X123975250Y-67512500D01*
X124134000Y-67353750D01*
X124134000Y-67299691D01*
X132196000Y-67299691D01*
X132196000Y-68040250D01*
X132354750Y-68199000D01*
X133604000Y-68199000D01*
X133604000Y-66949750D01*
X133858000Y-66949750D01*
X133858000Y-68199000D01*
X135107250Y-68199000D01*
X135266000Y-68040250D01*
X135266000Y-67299691D01*
X135169327Y-67066302D01*
X134990699Y-66887673D01*
X134757310Y-66791000D01*
X134016750Y-66791000D01*
X133858000Y-66949750D01*
X133604000Y-66949750D01*
X133445250Y-66791000D01*
X132704690Y-66791000D01*
X132471301Y-66887673D01*
X132292673Y-67066302D01*
X132196000Y-67299691D01*
X124134000Y-67299691D01*
X124134000Y-66750691D01*
X124133714Y-66750000D01*
X145855560Y-66750000D01*
X145855560Y-67771001D01*
X145874291Y-67865171D01*
X144948462Y-68791001D01*
X135266000Y-68791001D01*
X135266000Y-68611750D01*
X135107250Y-68453000D01*
X133858000Y-68453000D01*
X133858000Y-68473000D01*
X133604000Y-68473000D01*
X133604000Y-68453000D01*
X132354750Y-68453000D01*
X132196000Y-68611750D01*
X132196000Y-69352309D01*
X132292673Y-69585698D01*
X132471301Y-69764327D01*
X132606044Y-69820139D01*
X132429690Y-69996493D01*
X132196000Y-70560670D01*
X132196000Y-71171330D01*
X132429690Y-71735507D01*
X132861493Y-72167310D01*
X133425670Y-72401000D01*
X134036330Y-72401000D01*
X134600507Y-72167310D01*
X135032310Y-71735507D01*
X135266000Y-71171330D01*
X135266000Y-70696001D01*
X145249189Y-70696001D01*
X145342999Y-70714661D01*
X145436809Y-70696001D01*
X145714646Y-70640736D01*
X146029713Y-70430215D01*
X146082856Y-70350681D01*
X147765098Y-68668440D01*
X148903001Y-68668440D01*
X149246436Y-68600127D01*
X149537586Y-68405586D01*
X149732127Y-68114436D01*
X149800440Y-67771001D01*
X149800440Y-66750000D01*
X151664462Y-66750000D01*
X147890903Y-70523560D01*
X146752999Y-70523560D01*
X146409564Y-70591873D01*
X146118414Y-70786414D01*
X145923873Y-71077564D01*
X145855560Y-71420999D01*
X145855560Y-72446001D01*
X145874291Y-72540170D01*
X136281963Y-82132500D01*
X129691047Y-82132500D01*
X129491874Y-82050000D01*
X129080126Y-82050000D01*
X128880953Y-82132500D01*
X126539440Y-82132500D01*
X126539440Y-82010000D01*
X126471126Y-81666565D01*
X126276586Y-81375414D01*
X125985435Y-81180874D01*
X125642000Y-81112560D01*
X120992000Y-81112560D01*
X120648565Y-81180874D01*
X120357414Y-81375414D01*
X120162874Y-81666565D01*
X120094560Y-82010000D01*
X120094560Y-84160000D01*
X120162874Y-84503435D01*
X120357414Y-84794586D01*
X120648565Y-84989126D01*
X120992000Y-85057440D01*
X125642000Y-85057440D01*
X125985435Y-84989126D01*
X126276586Y-84794586D01*
X126471126Y-84503435D01*
X126539440Y-84160000D01*
X126539440Y-84037500D01*
X128880953Y-84037500D01*
X129080126Y-84120000D01*
X129491874Y-84120000D01*
X129691047Y-84037500D01*
X136582690Y-84037500D01*
X136676500Y-84056160D01*
X136770310Y-84037500D01*
X137048147Y-83982235D01*
X137363214Y-83771714D01*
X137416357Y-83692180D01*
X147765099Y-73343440D01*
X148903001Y-73343440D01*
X149246436Y-73275127D01*
X149537586Y-73080586D01*
X149732127Y-72789436D01*
X149800440Y-72446001D01*
X149800440Y-71472499D01*
X153475560Y-71472499D01*
X153475560Y-72497501D01*
X153543873Y-72840936D01*
X153738414Y-73132086D01*
X154029564Y-73326627D01*
X154372999Y-73394940D01*
X154688000Y-73394940D01*
X154688001Y-75500560D01*
X154499999Y-75500560D01*
X154156564Y-75568873D01*
X153865414Y-75763414D01*
X153670873Y-76054564D01*
X153602560Y-76397999D01*
X153602560Y-77423001D01*
X153670873Y-77766436D01*
X153865414Y-78057586D01*
X154156564Y-78252127D01*
X154499999Y-78320440D01*
X155910139Y-78320440D01*
X168877712Y-91288014D01*
X168654161Y-91622582D01*
X168538908Y-92202000D01*
X168654161Y-92781418D01*
X168982375Y-93272625D01*
X169000619Y-93284816D01*
X168955235Y-93293843D01*
X168745191Y-93434191D01*
X168604843Y-93644235D01*
X168555560Y-93892000D01*
X168555560Y-94384401D01*
X156965895Y-105974068D01*
X156766720Y-106056569D01*
X156475569Y-106347720D01*
X156318000Y-106728126D01*
X156318000Y-107139874D01*
X156475569Y-107520280D01*
X156766720Y-107811431D01*
X157147126Y-107969000D01*
X157558874Y-107969000D01*
X157939280Y-107811431D01*
X158230431Y-107520280D01*
X158312932Y-107321105D01*
X169394599Y-96239440D01*
X170903000Y-96239440D01*
X171150765Y-96190157D01*
X171360809Y-96049809D01*
X171501157Y-95839765D01*
X171550440Y-95592000D01*
X171550440Y-93892000D01*
X171501157Y-93644235D01*
X171360809Y-93434191D01*
X171150765Y-93293843D01*
X171105381Y-93284816D01*
X171123625Y-93272625D01*
X171451839Y-92781418D01*
X171567092Y-92202000D01*
X171451839Y-91622582D01*
X171123625Y-91131375D01*
X170632418Y-90803161D01*
X170520127Y-90780825D01*
X157483542Y-77744241D01*
X157547440Y-77423001D01*
X157547440Y-76397999D01*
X157479127Y-76054564D01*
X157284586Y-75763414D01*
X156993436Y-75568873D01*
X156650001Y-75500560D01*
X156208000Y-75500560D01*
X156208000Y-73394940D01*
X156523001Y-73394940D01*
X156866436Y-73326627D01*
X157157586Y-73132086D01*
X157352127Y-72840936D01*
X157420440Y-72497501D01*
X157420440Y-71472499D01*
X157352127Y-71129064D01*
X157157586Y-70837914D01*
X156866436Y-70643373D01*
X156523001Y-70575060D01*
X154372999Y-70575060D01*
X154029564Y-70643373D01*
X153738414Y-70837914D01*
X153543873Y-71129064D01*
X153475560Y-71472499D01*
X149800440Y-71472499D01*
X149800440Y-71420999D01*
X149781709Y-71326829D01*
X152846038Y-68262500D01*
X153608395Y-68262500D01*
X153738414Y-68457086D01*
X154029564Y-68651627D01*
X154372999Y-68719940D01*
X156523001Y-68719940D01*
X156866436Y-68651627D01*
X157157586Y-68457086D01*
X157352127Y-68165936D01*
X157420440Y-67822501D01*
X157420440Y-66797499D01*
X157410992Y-66750000D01*
X177346215Y-66750000D01*
X177470980Y-106674678D01*
X177229793Y-119940000D01*
X101040000Y-119940000D01*
X101040000Y-108458000D01*
X102117908Y-108458000D01*
X102233161Y-109037418D01*
X102561375Y-109528625D01*
X103052582Y-109856839D01*
X103485744Y-109943000D01*
X103778256Y-109943000D01*
X104211418Y-109856839D01*
X104702625Y-109528625D01*
X104717096Y-109506967D01*
X104783673Y-109667698D01*
X104962301Y-109846327D01*
X105195690Y-109943000D01*
X105886250Y-109943000D01*
X106045000Y-109784250D01*
X106045000Y-108585000D01*
X106299000Y-108585000D01*
X106299000Y-109784250D01*
X106457750Y-109943000D01*
X107148310Y-109943000D01*
X107381699Y-109846327D01*
X107560327Y-109667698D01*
X107657000Y-109434309D01*
X107657000Y-108743750D01*
X107537250Y-108624000D01*
X114834560Y-108624000D01*
X114834560Y-110324000D01*
X114883843Y-110571765D01*
X115024191Y-110781809D01*
X115234235Y-110922157D01*
X115482000Y-110971440D01*
X117182000Y-110971440D01*
X117429765Y-110922157D01*
X117639809Y-110781809D01*
X117780157Y-110571765D01*
X117809052Y-110426500D01*
X128171190Y-110426500D01*
X128265000Y-110445160D01*
X128358810Y-110426500D01*
X128636647Y-110371235D01*
X128951714Y-110160714D01*
X129004857Y-110081180D01*
X132500489Y-106585548D01*
X132980000Y-106680929D01*
X133715489Y-106534631D01*
X134339009Y-106118009D01*
X134755631Y-105494490D01*
X134865000Y-104944655D01*
X134865000Y-102573345D01*
X134755631Y-102023510D01*
X134339009Y-101399991D01*
X133715490Y-100983369D01*
X132980000Y-100837071D01*
X132244511Y-100983369D01*
X131620992Y-101399991D01*
X131204370Y-102023510D01*
X131095001Y-102573345D01*
X131095000Y-104944654D01*
X131153452Y-105238511D01*
X127870463Y-108521500D01*
X117809052Y-108521500D01*
X117780157Y-108376235D01*
X117639809Y-108166191D01*
X117429765Y-108025843D01*
X117182000Y-107976560D01*
X115482000Y-107976560D01*
X115234235Y-108025843D01*
X115024191Y-108166191D01*
X114883843Y-108376235D01*
X114834560Y-108624000D01*
X107537250Y-108624000D01*
X107498250Y-108585000D01*
X106299000Y-108585000D01*
X106045000Y-108585000D01*
X106025000Y-108585000D01*
X106025000Y-108331000D01*
X106045000Y-108331000D01*
X106045000Y-108311000D01*
X106299000Y-108311000D01*
X106299000Y-108331000D01*
X107498250Y-108331000D01*
X107657000Y-108172250D01*
X107657000Y-107481691D01*
X107560327Y-107248302D01*
X107381699Y-107069673D01*
X107148310Y-106973000D01*
X106464037Y-106973000D01*
X108647183Y-104789855D01*
X108726714Y-104736714D01*
X108937235Y-104421647D01*
X108992500Y-104143810D01*
X108992500Y-104143806D01*
X109011159Y-104050001D01*
X108992500Y-103956196D01*
X108992500Y-103886000D01*
X125645000Y-103886000D01*
X125645000Y-104886000D01*
X125837088Y-105597691D01*
X126286906Y-106181699D01*
X126925974Y-106549114D01*
X127110355Y-106596695D01*
X127403000Y-106480572D01*
X127403000Y-103886000D01*
X127657000Y-103886000D01*
X127657000Y-106480572D01*
X127949645Y-106596695D01*
X128134026Y-106549114D01*
X128773094Y-106181699D01*
X129222912Y-105597691D01*
X129415000Y-104886000D01*
X129415000Y-103886000D01*
X127657000Y-103886000D01*
X127403000Y-103886000D01*
X125645000Y-103886000D01*
X108992500Y-103886000D01*
X108992500Y-102632000D01*
X125645000Y-102632000D01*
X125645000Y-103632000D01*
X127403000Y-103632000D01*
X127403000Y-101037428D01*
X127657000Y-101037428D01*
X127657000Y-103632000D01*
X129415000Y-103632000D01*
X129415000Y-102632000D01*
X129222912Y-101920309D01*
X128773094Y-101336301D01*
X128134026Y-100968886D01*
X127949645Y-100921305D01*
X127657000Y-101037428D01*
X127403000Y-101037428D01*
X127110355Y-100921305D01*
X126925974Y-100968886D01*
X126286906Y-101336301D01*
X125837088Y-101920309D01*
X125645000Y-102632000D01*
X108992500Y-102632000D01*
X108992500Y-100205500D01*
X111017566Y-100205500D01*
X111072414Y-100287586D01*
X111363565Y-100482126D01*
X111707000Y-100550440D01*
X114607000Y-100550440D01*
X114950435Y-100482126D01*
X115241586Y-100287586D01*
X115436126Y-99996435D01*
X115504440Y-99653000D01*
X115504440Y-99292290D01*
X122245863Y-99292290D01*
X122320710Y-99307178D01*
X122395557Y-99292290D01*
X122395562Y-99292290D01*
X122617247Y-99248194D01*
X122868639Y-99080219D01*
X122911041Y-99016760D01*
X124978675Y-96949126D01*
X135744000Y-96949126D01*
X135744000Y-97360874D01*
X135901569Y-97741280D01*
X136192720Y-98032431D01*
X136573126Y-98190000D01*
X136739199Y-98190000D01*
X138780173Y-100230976D01*
X138822571Y-100294429D01*
X138886024Y-100336827D01*
X138886026Y-100336829D01*
X139011402Y-100420602D01*
X139073963Y-100462404D01*
X139295648Y-100506500D01*
X139295652Y-100506500D01*
X139370499Y-100521388D01*
X139445346Y-100506500D01*
X145269790Y-100506500D01*
X145284458Y-100580240D01*
X142865699Y-102999000D01*
X140327440Y-102999000D01*
X140327440Y-101509000D01*
X140278157Y-101261235D01*
X140137809Y-101051191D01*
X139927765Y-100910843D01*
X139680000Y-100861560D01*
X137180000Y-100861560D01*
X136932235Y-100910843D01*
X136722191Y-101051191D01*
X136581843Y-101261235D01*
X136532560Y-101509000D01*
X136532560Y-106009000D01*
X136581843Y-106256765D01*
X136722191Y-106466809D01*
X136932235Y-106607157D01*
X137180000Y-106656440D01*
X139680000Y-106656440D01*
X139927765Y-106607157D01*
X140137809Y-106466809D01*
X140278157Y-106256765D01*
X140327440Y-106009000D01*
X140327440Y-104519000D01*
X143105653Y-104519000D01*
X143180500Y-104533888D01*
X143255347Y-104519000D01*
X143255352Y-104519000D01*
X143477037Y-104474904D01*
X143728429Y-104306929D01*
X143770831Y-104243470D01*
X146857862Y-101156440D01*
X148268001Y-101156440D01*
X148611436Y-101088127D01*
X148902586Y-100893586D01*
X149097127Y-100602436D01*
X149165440Y-100259001D01*
X149165440Y-99233999D01*
X149097127Y-98890564D01*
X148902586Y-98599414D01*
X148611436Y-98404873D01*
X148268001Y-98336560D01*
X146117999Y-98336560D01*
X145774564Y-98404873D01*
X145483414Y-98599414D01*
X145288873Y-98890564D01*
X145269790Y-98986500D01*
X139685303Y-98986500D01*
X137814000Y-97115199D01*
X137814000Y-96949126D01*
X137656431Y-96568720D01*
X137365280Y-96277569D01*
X136984874Y-96120000D01*
X136573126Y-96120000D01*
X136192720Y-96277569D01*
X135901569Y-96568720D01*
X135744000Y-96949126D01*
X124978675Y-96949126D01*
X134771802Y-87156000D01*
X136152560Y-87156000D01*
X136152560Y-87246000D01*
X136178418Y-87376000D01*
X136152560Y-87506000D01*
X136152560Y-87906000D01*
X136177424Y-88031000D01*
X136152560Y-88156000D01*
X136152560Y-88556000D01*
X136201843Y-88803765D01*
X136342191Y-89013809D01*
X136552235Y-89154157D01*
X136800000Y-89203440D01*
X137860000Y-89203440D01*
X138107765Y-89154157D01*
X138317809Y-89013809D01*
X138430000Y-88845905D01*
X138542191Y-89013809D01*
X138752235Y-89154157D01*
X139000000Y-89203440D01*
X140060000Y-89203440D01*
X140307765Y-89154157D01*
X140364871Y-89116000D01*
X145456390Y-89116000D01*
X145336720Y-89165569D01*
X145045569Y-89456720D01*
X144888000Y-89837126D01*
X144888000Y-90248874D01*
X145045569Y-90629280D01*
X145336720Y-90920431D01*
X145717126Y-91078000D01*
X145883199Y-91078000D01*
X146433001Y-91627803D01*
X146433000Y-93661560D01*
X146117999Y-93661560D01*
X145774564Y-93729873D01*
X145483414Y-93924414D01*
X145288873Y-94215564D01*
X145220560Y-94558999D01*
X145220560Y-95584001D01*
X145288873Y-95927436D01*
X145483414Y-96218586D01*
X145774564Y-96413127D01*
X146117999Y-96481440D01*
X148268001Y-96481440D01*
X148611436Y-96413127D01*
X148902586Y-96218586D01*
X149097127Y-95927436D01*
X149165440Y-95584001D01*
X149165440Y-94558999D01*
X149097127Y-94215564D01*
X148902586Y-93924414D01*
X148611436Y-93729873D01*
X148268001Y-93661560D01*
X147953000Y-93661560D01*
X147953000Y-91387846D01*
X147967888Y-91312999D01*
X147953000Y-91238152D01*
X147953000Y-91238148D01*
X147908904Y-91016463D01*
X147740929Y-90765071D01*
X147677473Y-90722671D01*
X146958000Y-90003199D01*
X146958000Y-89837126D01*
X146800431Y-89456720D01*
X146509280Y-89165569D01*
X146389610Y-89116000D01*
X148007148Y-89116000D01*
X148082000Y-89130889D01*
X148156852Y-89116000D01*
X150413153Y-89116000D01*
X150488000Y-89130888D01*
X150562847Y-89116000D01*
X150562852Y-89116000D01*
X150784537Y-89071904D01*
X151035929Y-88903929D01*
X151078331Y-88840470D01*
X151360470Y-88558331D01*
X151423929Y-88515929D01*
X151524483Y-88365440D01*
X151726000Y-88365440D01*
X151973765Y-88316157D01*
X152183809Y-88175809D01*
X152324157Y-87965765D01*
X152373440Y-87718000D01*
X152373440Y-86018000D01*
X152324157Y-85770235D01*
X152183809Y-85560191D01*
X151973765Y-85419843D01*
X151726000Y-85370560D01*
X150026000Y-85370560D01*
X149778235Y-85419843D01*
X149568191Y-85560191D01*
X149427843Y-85770235D01*
X149378560Y-86018000D01*
X149378560Y-87596000D01*
X148842000Y-87596000D01*
X148842000Y-84275846D01*
X148856888Y-84200999D01*
X148842000Y-84126152D01*
X148842000Y-84126148D01*
X148797904Y-83904463D01*
X148629929Y-83653071D01*
X148566473Y-83610671D01*
X147974000Y-83018199D01*
X147974000Y-82852126D01*
X147816431Y-82471720D01*
X147690211Y-82345500D01*
X153651790Y-82345500D01*
X153670873Y-82441436D01*
X153865414Y-82732586D01*
X154156564Y-82927127D01*
X154499999Y-82995440D01*
X156650001Y-82995440D01*
X156993436Y-82927127D01*
X157284586Y-82732586D01*
X157479127Y-82441436D01*
X157547440Y-82098001D01*
X157547440Y-81072999D01*
X157479127Y-80729564D01*
X157284586Y-80438414D01*
X156993436Y-80243873D01*
X156650001Y-80175560D01*
X154499999Y-80175560D01*
X154156564Y-80243873D01*
X153865414Y-80438414D01*
X153670873Y-80729564D01*
X153651790Y-80825500D01*
X144745346Y-80825500D01*
X144670499Y-80810612D01*
X144595652Y-80825500D01*
X144595648Y-80825500D01*
X144373963Y-80869596D01*
X144373961Y-80869597D01*
X144373962Y-80869597D01*
X144186026Y-80995171D01*
X144186024Y-80995173D01*
X144122571Y-81037571D01*
X144080173Y-81101024D01*
X139632639Y-85548560D01*
X139000000Y-85548560D01*
X138752235Y-85597843D01*
X138542191Y-85738191D01*
X138430000Y-85906095D01*
X138317809Y-85738191D01*
X138107765Y-85597843D01*
X137860000Y-85548560D01*
X136800000Y-85548560D01*
X136552235Y-85597843D01*
X136495129Y-85636000D01*
X134531847Y-85636000D01*
X134457000Y-85621112D01*
X134382153Y-85636000D01*
X134382148Y-85636000D01*
X134160463Y-85680096D01*
X133909071Y-85848071D01*
X133866671Y-85911527D01*
X122005909Y-97772290D01*
X113952557Y-97772290D01*
X113877710Y-97757402D01*
X113802863Y-97772290D01*
X113802858Y-97772290D01*
X113581173Y-97816386D01*
X113372885Y-97955560D01*
X111707000Y-97955560D01*
X111363565Y-98023874D01*
X111072414Y-98218414D01*
X111017566Y-98300500D01*
X108434538Y-98300500D01*
X106205826Y-96071789D01*
X106387439Y-95950439D01*
X106718968Y-95454271D01*
X106791674Y-95088750D01*
X110822000Y-95088750D01*
X110822000Y-95579309D01*
X110918673Y-95812698D01*
X111097301Y-95991327D01*
X111330690Y-96088000D01*
X112871250Y-96088000D01*
X113030000Y-95929250D01*
X113030000Y-94930000D01*
X113284000Y-94930000D01*
X113284000Y-95929250D01*
X113442750Y-96088000D01*
X114983310Y-96088000D01*
X115216699Y-95991327D01*
X115395327Y-95812698D01*
X115492000Y-95579309D01*
X115492000Y-95088750D01*
X115333250Y-94930000D01*
X113284000Y-94930000D01*
X113030000Y-94930000D01*
X110980750Y-94930000D01*
X110822000Y-95088750D01*
X106791674Y-95088750D01*
X106835386Y-94869000D01*
X106718968Y-94283729D01*
X106547221Y-94026691D01*
X110822000Y-94026691D01*
X110822000Y-94517250D01*
X110980750Y-94676000D01*
X113030000Y-94676000D01*
X113030000Y-93676750D01*
X113284000Y-93676750D01*
X113284000Y-94676000D01*
X115333250Y-94676000D01*
X115492000Y-94517250D01*
X115492000Y-94026691D01*
X115395327Y-93793302D01*
X115216699Y-93614673D01*
X114983310Y-93518000D01*
X113442750Y-93518000D01*
X113284000Y-93676750D01*
X113030000Y-93676750D01*
X112871250Y-93518000D01*
X111330690Y-93518000D01*
X111097301Y-93614673D01*
X110918673Y-93793302D01*
X110822000Y-94026691D01*
X106547221Y-94026691D01*
X106387439Y-93787561D01*
X106099357Y-93595071D01*
X106506793Y-93229857D01*
X106760131Y-92701760D01*
X106762346Y-92688246D01*
X106641224Y-92456000D01*
X105283000Y-92456000D01*
X105283000Y-92476000D01*
X105029000Y-92476000D01*
X105029000Y-92456000D01*
X103670776Y-92456000D01*
X103549654Y-92688246D01*
X103551869Y-92701760D01*
X103805207Y-93229857D01*
X104212643Y-93595071D01*
X103924561Y-93787561D01*
X103593032Y-94283729D01*
X103476614Y-94869000D01*
X103593032Y-95454271D01*
X103924561Y-95950439D01*
X104203501Y-96136821D01*
X104203501Y-96275185D01*
X104184840Y-96369000D01*
X104258765Y-96740646D01*
X104258766Y-96740647D01*
X104469287Y-97055714D01*
X104548818Y-97108855D01*
X107087500Y-99647538D01*
X107087501Y-103655461D01*
X103769963Y-106973000D01*
X103485744Y-106973000D01*
X103052582Y-107059161D01*
X102561375Y-107387375D01*
X102233161Y-107878582D01*
X102117908Y-108458000D01*
X101040000Y-108458000D01*
X101040000Y-83600048D01*
X101064414Y-83636586D01*
X101355564Y-83831127D01*
X101698999Y-83899440D01*
X102171500Y-83899440D01*
X102171501Y-87813185D01*
X102152840Y-87907000D01*
X102226765Y-88278646D01*
X102226766Y-88278647D01*
X102437287Y-88593714D01*
X102516818Y-88646855D01*
X103493560Y-89623598D01*
X103493560Y-90654000D01*
X103542843Y-90901765D01*
X103683191Y-91111809D01*
X103893235Y-91252157D01*
X103981870Y-91269787D01*
X103805207Y-91428143D01*
X103551869Y-91956240D01*
X103549654Y-91969754D01*
X103670776Y-92202000D01*
X105029000Y-92202000D01*
X105029000Y-92182000D01*
X105283000Y-92182000D01*
X105283000Y-92202000D01*
X106641224Y-92202000D01*
X106762346Y-91969754D01*
X106760131Y-91956240D01*
X106506793Y-91428143D01*
X106345708Y-91283750D01*
X110949000Y-91283750D01*
X110949000Y-91774309D01*
X111045673Y-92007698D01*
X111224301Y-92186327D01*
X111457690Y-92283000D01*
X112998250Y-92283000D01*
X113157000Y-92124250D01*
X113157000Y-91125000D01*
X113411000Y-91125000D01*
X113411000Y-92124250D01*
X113569750Y-92283000D01*
X115110310Y-92283000D01*
X115343699Y-92186327D01*
X115522327Y-92007698D01*
X115619000Y-91774309D01*
X115619000Y-91283750D01*
X115460250Y-91125000D01*
X113411000Y-91125000D01*
X113157000Y-91125000D01*
X111107750Y-91125000D01*
X110949000Y-91283750D01*
X106345708Y-91283750D01*
X106330130Y-91269787D01*
X106418765Y-91252157D01*
X106628809Y-91111809D01*
X106769157Y-90901765D01*
X106801035Y-90741500D01*
X109949190Y-90741500D01*
X110043000Y-90760160D01*
X110136810Y-90741500D01*
X110414647Y-90686235D01*
X110729714Y-90475714D01*
X110782857Y-90396180D01*
X110949000Y-90230037D01*
X110949000Y-90712250D01*
X111107750Y-90871000D01*
X113157000Y-90871000D01*
X113157000Y-89871750D01*
X112998250Y-89713000D01*
X111466037Y-89713000D01*
X113284000Y-87895038D01*
X115101962Y-89713000D01*
X113569750Y-89713000D01*
X113411000Y-89871750D01*
X113411000Y-90871000D01*
X115460250Y-90871000D01*
X115619000Y-90712250D01*
X115619000Y-90230038D01*
X115631145Y-90242183D01*
X115684286Y-90321714D01*
X115999353Y-90532235D01*
X116277190Y-90587500D01*
X116370999Y-90606160D01*
X116464808Y-90587500D01*
X120094560Y-90587500D01*
X120094560Y-90710000D01*
X120162874Y-91053435D01*
X120357414Y-91344586D01*
X120648565Y-91539126D01*
X120992000Y-91607440D01*
X122364501Y-91607440D01*
X122364501Y-92823461D01*
X121532894Y-93655068D01*
X121333720Y-93737569D01*
X121042569Y-94028720D01*
X120885000Y-94409126D01*
X120885000Y-94820874D01*
X121042569Y-95201280D01*
X121333720Y-95492431D01*
X121714126Y-95650000D01*
X122125874Y-95650000D01*
X122506280Y-95492431D01*
X122797431Y-95201280D01*
X122879932Y-95002106D01*
X123924183Y-93957855D01*
X124003714Y-93904714D01*
X124214235Y-93589647D01*
X124269500Y-93311810D01*
X124288160Y-93218001D01*
X124269500Y-93124192D01*
X124269500Y-91607440D01*
X125642000Y-91607440D01*
X125985435Y-91539126D01*
X126276586Y-91344586D01*
X126471126Y-91053435D01*
X126539440Y-90710000D01*
X126539440Y-88560000D01*
X126471126Y-88216565D01*
X126276586Y-87925414D01*
X125985435Y-87730874D01*
X125642000Y-87662560D01*
X120992000Y-87662560D01*
X120648565Y-87730874D01*
X120357414Y-87925414D01*
X120162874Y-88216565D01*
X120094560Y-88560000D01*
X120094560Y-88682500D01*
X116765538Y-88682500D01*
X115487562Y-87404525D01*
X115563126Y-87291435D01*
X115631440Y-86948000D01*
X115631440Y-86148000D01*
X115563126Y-85804565D01*
X115368586Y-85513414D01*
X115077435Y-85318874D01*
X114734000Y-85250560D01*
X111834000Y-85250560D01*
X111490565Y-85318874D01*
X111199414Y-85513414D01*
X111004874Y-85804565D01*
X110936560Y-86148000D01*
X110936560Y-86948000D01*
X111004874Y-87291435D01*
X111080438Y-87404525D01*
X109648463Y-88836500D01*
X106801035Y-88836500D01*
X106769157Y-88676235D01*
X106628809Y-88466191D01*
X106418765Y-88325843D01*
X106171000Y-88276560D01*
X104840598Y-88276560D01*
X104076500Y-87512463D01*
X104076500Y-83899440D01*
X104549001Y-83899440D01*
X104892436Y-83831127D01*
X105183586Y-83636586D01*
X105378127Y-83345436D01*
X105446440Y-83002001D01*
X105446440Y-81976999D01*
X105378127Y-81633564D01*
X105183586Y-81342414D01*
X104892436Y-81147873D01*
X104549001Y-81079560D01*
X101698999Y-81079560D01*
X101355564Y-81147873D01*
X101064414Y-81342414D01*
X101040000Y-81378952D01*
X101040000Y-77625048D01*
X101064414Y-77661586D01*
X101355564Y-77856127D01*
X101698999Y-77924440D01*
X104549001Y-77924440D01*
X104892436Y-77856127D01*
X105183586Y-77661586D01*
X105378127Y-77370436D01*
X105446440Y-77027001D01*
X105446440Y-76001999D01*
X105378127Y-75658564D01*
X105183586Y-75367414D01*
X104892436Y-75172873D01*
X104549001Y-75104560D01*
X103695500Y-75104560D01*
X103695500Y-73902940D01*
X103818001Y-73902940D01*
X104161436Y-73834627D01*
X104452586Y-73640086D01*
X104647127Y-73348936D01*
X104715440Y-73005501D01*
X104715440Y-71980499D01*
X104679935Y-71801999D01*
X120201560Y-71801999D01*
X120201560Y-72827001D01*
X120269873Y-73170436D01*
X120464414Y-73461586D01*
X120755564Y-73656127D01*
X121098999Y-73724440D01*
X123249001Y-73724440D01*
X123592436Y-73656127D01*
X123883586Y-73461586D01*
X124078127Y-73170436D01*
X124092645Y-73097447D01*
X125838000Y-74842803D01*
X125838000Y-75008874D01*
X125995569Y-75389280D01*
X126286720Y-75680431D01*
X126667126Y-75838000D01*
X127078874Y-75838000D01*
X127459280Y-75680431D01*
X127750431Y-75389280D01*
X127908000Y-75008874D01*
X127908000Y-74597126D01*
X127750431Y-74216720D01*
X127459280Y-73925569D01*
X127078874Y-73768000D01*
X126912803Y-73768000D01*
X124974831Y-71830030D01*
X124932429Y-71766571D01*
X124681037Y-71598596D01*
X124459352Y-71554500D01*
X124459347Y-71554500D01*
X124384500Y-71539612D01*
X124309653Y-71554500D01*
X124097210Y-71554500D01*
X124078127Y-71458564D01*
X123883586Y-71167414D01*
X123592436Y-70972873D01*
X123249001Y-70904560D01*
X121098999Y-70904560D01*
X120755564Y-70972873D01*
X120464414Y-71167414D01*
X120269873Y-71458564D01*
X120201560Y-71801999D01*
X104679935Y-71801999D01*
X104647127Y-71637064D01*
X104452586Y-71345914D01*
X104161436Y-71151373D01*
X103818001Y-71083060D01*
X101667999Y-71083060D01*
X101324564Y-71151373D01*
X101040000Y-71341513D01*
X101040000Y-68969487D01*
X101324564Y-69159627D01*
X101667999Y-69227940D01*
X102805902Y-69227940D01*
X103019145Y-69441183D01*
X103072286Y-69520714D01*
X103387353Y-69731235D01*
X103759000Y-69805160D01*
X103852810Y-69786500D01*
X108885948Y-69786500D01*
X108914843Y-69931765D01*
X109055191Y-70141809D01*
X109265235Y-70282157D01*
X109513000Y-70331440D01*
X111213000Y-70331440D01*
X111460765Y-70282157D01*
X111670809Y-70141809D01*
X111811157Y-69931765D01*
X111831739Y-69828292D01*
X112136076Y-70105645D01*
X112546110Y-70275476D01*
X112776000Y-70154155D01*
X112776000Y-68961000D01*
X113030000Y-68961000D01*
X113030000Y-70154155D01*
X113259890Y-70275476D01*
X113669924Y-70105645D01*
X114098183Y-69715358D01*
X114344486Y-69190892D01*
X114223819Y-68961000D01*
X113030000Y-68961000D01*
X112776000Y-68961000D01*
X112756000Y-68961000D01*
X112756000Y-68707000D01*
X112776000Y-68707000D01*
X112776000Y-67513845D01*
X113030000Y-67513845D01*
X113030000Y-68707000D01*
X114223819Y-68707000D01*
X114344486Y-68477108D01*
X114098183Y-67952642D01*
X114068126Y-67925250D01*
X120214000Y-67925250D01*
X120214000Y-68528309D01*
X120310673Y-68761698D01*
X120489301Y-68940327D01*
X120722690Y-69037000D01*
X121888250Y-69037000D01*
X122047000Y-68878250D01*
X122047000Y-67766500D01*
X122301000Y-67766500D01*
X122301000Y-68878250D01*
X122459750Y-69037000D01*
X123625310Y-69037000D01*
X123858699Y-68940327D01*
X124037327Y-68761698D01*
X124134000Y-68528309D01*
X124134000Y-67925250D01*
X123975250Y-67766500D01*
X122301000Y-67766500D01*
X122047000Y-67766500D01*
X120372750Y-67766500D01*
X120214000Y-67925250D01*
X114068126Y-67925250D01*
X113669924Y-67562355D01*
X113259890Y-67392524D01*
X113030000Y-67513845D01*
X112776000Y-67513845D01*
X112546110Y-67392524D01*
X112136076Y-67562355D01*
X111831739Y-67839708D01*
X111811157Y-67736235D01*
X111670809Y-67526191D01*
X111460765Y-67385843D01*
X111213000Y-67336560D01*
X109513000Y-67336560D01*
X109265235Y-67385843D01*
X109055191Y-67526191D01*
X108914843Y-67736235D01*
X108885948Y-67881500D01*
X104715440Y-67881500D01*
X104715440Y-67305499D01*
X104647127Y-66962064D01*
X104505430Y-66750000D01*
X120214286Y-66750000D01*
X120214000Y-66750691D01*
X120214000Y-66750691D01*
G37*
X120214000Y-66750691D02*
X120214000Y-67353750D01*
X120372750Y-67512500D01*
X122047000Y-67512500D01*
X122047000Y-67492500D01*
X122301000Y-67492500D01*
X122301000Y-67512500D01*
X123975250Y-67512500D01*
X124134000Y-67353750D01*
X124134000Y-67299691D01*
X132196000Y-67299691D01*
X132196000Y-68040250D01*
X132354750Y-68199000D01*
X133604000Y-68199000D01*
X133604000Y-66949750D01*
X133858000Y-66949750D01*
X133858000Y-68199000D01*
X135107250Y-68199000D01*
X135266000Y-68040250D01*
X135266000Y-67299691D01*
X135169327Y-67066302D01*
X134990699Y-66887673D01*
X134757310Y-66791000D01*
X134016750Y-66791000D01*
X133858000Y-66949750D01*
X133604000Y-66949750D01*
X133445250Y-66791000D01*
X132704690Y-66791000D01*
X132471301Y-66887673D01*
X132292673Y-67066302D01*
X132196000Y-67299691D01*
X124134000Y-67299691D01*
X124134000Y-66750691D01*
X124133714Y-66750000D01*
X145855560Y-66750000D01*
X145855560Y-67771001D01*
X145874291Y-67865171D01*
X144948462Y-68791001D01*
X135266000Y-68791001D01*
X135266000Y-68611750D01*
X135107250Y-68453000D01*
X133858000Y-68453000D01*
X133858000Y-68473000D01*
X133604000Y-68473000D01*
X133604000Y-68453000D01*
X132354750Y-68453000D01*
X132196000Y-68611750D01*
X132196000Y-69352309D01*
X132292673Y-69585698D01*
X132471301Y-69764327D01*
X132606044Y-69820139D01*
X132429690Y-69996493D01*
X132196000Y-70560670D01*
X132196000Y-71171330D01*
X132429690Y-71735507D01*
X132861493Y-72167310D01*
X133425670Y-72401000D01*
X134036330Y-72401000D01*
X134600507Y-72167310D01*
X135032310Y-71735507D01*
X135266000Y-71171330D01*
X135266000Y-70696001D01*
X145249189Y-70696001D01*
X145342999Y-70714661D01*
X145436809Y-70696001D01*
X145714646Y-70640736D01*
X146029713Y-70430215D01*
X146082856Y-70350681D01*
X147765098Y-68668440D01*
X148903001Y-68668440D01*
X149246436Y-68600127D01*
X149537586Y-68405586D01*
X149732127Y-68114436D01*
X149800440Y-67771001D01*
X149800440Y-66750000D01*
X151664462Y-66750000D01*
X147890903Y-70523560D01*
X146752999Y-70523560D01*
X146409564Y-70591873D01*
X146118414Y-70786414D01*
X145923873Y-71077564D01*
X145855560Y-71420999D01*
X145855560Y-72446001D01*
X145874291Y-72540170D01*
X136281963Y-82132500D01*
X129691047Y-82132500D01*
X129491874Y-82050000D01*
X129080126Y-82050000D01*
X128880953Y-82132500D01*
X126539440Y-82132500D01*
X126539440Y-82010000D01*
X126471126Y-81666565D01*
X126276586Y-81375414D01*
X125985435Y-81180874D01*
X125642000Y-81112560D01*
X120992000Y-81112560D01*
X120648565Y-81180874D01*
X120357414Y-81375414D01*
X120162874Y-81666565D01*
X120094560Y-82010000D01*
X120094560Y-84160000D01*
X120162874Y-84503435D01*
X120357414Y-84794586D01*
X120648565Y-84989126D01*
X120992000Y-85057440D01*
X125642000Y-85057440D01*
X125985435Y-84989126D01*
X126276586Y-84794586D01*
X126471126Y-84503435D01*
X126539440Y-84160000D01*
X126539440Y-84037500D01*
X128880953Y-84037500D01*
X129080126Y-84120000D01*
X129491874Y-84120000D01*
X129691047Y-84037500D01*
X136582690Y-84037500D01*
X136676500Y-84056160D01*
X136770310Y-84037500D01*
X137048147Y-83982235D01*
X137363214Y-83771714D01*
X137416357Y-83692180D01*
X147765099Y-73343440D01*
X148903001Y-73343440D01*
X149246436Y-73275127D01*
X149537586Y-73080586D01*
X149732127Y-72789436D01*
X149800440Y-72446001D01*
X149800440Y-71472499D01*
X153475560Y-71472499D01*
X153475560Y-72497501D01*
X153543873Y-72840936D01*
X153738414Y-73132086D01*
X154029564Y-73326627D01*
X154372999Y-73394940D01*
X154688000Y-73394940D01*
X154688001Y-75500560D01*
X154499999Y-75500560D01*
X154156564Y-75568873D01*
X153865414Y-75763414D01*
X153670873Y-76054564D01*
X153602560Y-76397999D01*
X153602560Y-77423001D01*
X153670873Y-77766436D01*
X153865414Y-78057586D01*
X154156564Y-78252127D01*
X154499999Y-78320440D01*
X155910139Y-78320440D01*
X168877712Y-91288014D01*
X168654161Y-91622582D01*
X168538908Y-92202000D01*
X168654161Y-92781418D01*
X168982375Y-93272625D01*
X169000619Y-93284816D01*
X168955235Y-93293843D01*
X168745191Y-93434191D01*
X168604843Y-93644235D01*
X168555560Y-93892000D01*
X168555560Y-94384401D01*
X156965895Y-105974068D01*
X156766720Y-106056569D01*
X156475569Y-106347720D01*
X156318000Y-106728126D01*
X156318000Y-107139874D01*
X156475569Y-107520280D01*
X156766720Y-107811431D01*
X157147126Y-107969000D01*
X157558874Y-107969000D01*
X157939280Y-107811431D01*
X158230431Y-107520280D01*
X158312932Y-107321105D01*
X169394599Y-96239440D01*
X170903000Y-96239440D01*
X171150765Y-96190157D01*
X171360809Y-96049809D01*
X171501157Y-95839765D01*
X171550440Y-95592000D01*
X171550440Y-93892000D01*
X171501157Y-93644235D01*
X171360809Y-93434191D01*
X171150765Y-93293843D01*
X171105381Y-93284816D01*
X171123625Y-93272625D01*
X171451839Y-92781418D01*
X171567092Y-92202000D01*
X171451839Y-91622582D01*
X171123625Y-91131375D01*
X170632418Y-90803161D01*
X170520127Y-90780825D01*
X157483542Y-77744241D01*
X157547440Y-77423001D01*
X157547440Y-76397999D01*
X157479127Y-76054564D01*
X157284586Y-75763414D01*
X156993436Y-75568873D01*
X156650001Y-75500560D01*
X156208000Y-75500560D01*
X156208000Y-73394940D01*
X156523001Y-73394940D01*
X156866436Y-73326627D01*
X157157586Y-73132086D01*
X157352127Y-72840936D01*
X157420440Y-72497501D01*
X157420440Y-71472499D01*
X157352127Y-71129064D01*
X157157586Y-70837914D01*
X156866436Y-70643373D01*
X156523001Y-70575060D01*
X154372999Y-70575060D01*
X154029564Y-70643373D01*
X153738414Y-70837914D01*
X153543873Y-71129064D01*
X153475560Y-71472499D01*
X149800440Y-71472499D01*
X149800440Y-71420999D01*
X149781709Y-71326829D01*
X152846038Y-68262500D01*
X153608395Y-68262500D01*
X153738414Y-68457086D01*
X154029564Y-68651627D01*
X154372999Y-68719940D01*
X156523001Y-68719940D01*
X156866436Y-68651627D01*
X157157586Y-68457086D01*
X157352127Y-68165936D01*
X157420440Y-67822501D01*
X157420440Y-66797499D01*
X157410992Y-66750000D01*
X177346215Y-66750000D01*
X177470980Y-106674678D01*
X177229793Y-119940000D01*
X101040000Y-119940000D01*
X101040000Y-108458000D01*
X102117908Y-108458000D01*
X102233161Y-109037418D01*
X102561375Y-109528625D01*
X103052582Y-109856839D01*
X103485744Y-109943000D01*
X103778256Y-109943000D01*
X104211418Y-109856839D01*
X104702625Y-109528625D01*
X104717096Y-109506967D01*
X104783673Y-109667698D01*
X104962301Y-109846327D01*
X105195690Y-109943000D01*
X105886250Y-109943000D01*
X106045000Y-109784250D01*
X106045000Y-108585000D01*
X106299000Y-108585000D01*
X106299000Y-109784250D01*
X106457750Y-109943000D01*
X107148310Y-109943000D01*
X107381699Y-109846327D01*
X107560327Y-109667698D01*
X107657000Y-109434309D01*
X107657000Y-108743750D01*
X107537250Y-108624000D01*
X114834560Y-108624000D01*
X114834560Y-110324000D01*
X114883843Y-110571765D01*
X115024191Y-110781809D01*
X115234235Y-110922157D01*
X115482000Y-110971440D01*
X117182000Y-110971440D01*
X117429765Y-110922157D01*
X117639809Y-110781809D01*
X117780157Y-110571765D01*
X117809052Y-110426500D01*
X128171190Y-110426500D01*
X128265000Y-110445160D01*
X128358810Y-110426500D01*
X128636647Y-110371235D01*
X128951714Y-110160714D01*
X129004857Y-110081180D01*
X132500489Y-106585548D01*
X132980000Y-106680929D01*
X133715489Y-106534631D01*
X134339009Y-106118009D01*
X134755631Y-105494490D01*
X134865000Y-104944655D01*
X134865000Y-102573345D01*
X134755631Y-102023510D01*
X134339009Y-101399991D01*
X133715490Y-100983369D01*
X132980000Y-100837071D01*
X132244511Y-100983369D01*
X131620992Y-101399991D01*
X131204370Y-102023510D01*
X131095001Y-102573345D01*
X131095000Y-104944654D01*
X131153452Y-105238511D01*
X127870463Y-108521500D01*
X117809052Y-108521500D01*
X117780157Y-108376235D01*
X117639809Y-108166191D01*
X117429765Y-108025843D01*
X117182000Y-107976560D01*
X115482000Y-107976560D01*
X115234235Y-108025843D01*
X115024191Y-108166191D01*
X114883843Y-108376235D01*
X114834560Y-108624000D01*
X107537250Y-108624000D01*
X107498250Y-108585000D01*
X106299000Y-108585000D01*
X106045000Y-108585000D01*
X106025000Y-108585000D01*
X106025000Y-108331000D01*
X106045000Y-108331000D01*
X106045000Y-108311000D01*
X106299000Y-108311000D01*
X106299000Y-108331000D01*
X107498250Y-108331000D01*
X107657000Y-108172250D01*
X107657000Y-107481691D01*
X107560327Y-107248302D01*
X107381699Y-107069673D01*
X107148310Y-106973000D01*
X106464037Y-106973000D01*
X108647183Y-104789855D01*
X108726714Y-104736714D01*
X108937235Y-104421647D01*
X108992500Y-104143810D01*
X108992500Y-104143806D01*
X109011159Y-104050001D01*
X108992500Y-103956196D01*
X108992500Y-103886000D01*
X125645000Y-103886000D01*
X125645000Y-104886000D01*
X125837088Y-105597691D01*
X126286906Y-106181699D01*
X126925974Y-106549114D01*
X127110355Y-106596695D01*
X127403000Y-106480572D01*
X127403000Y-103886000D01*
X127657000Y-103886000D01*
X127657000Y-106480572D01*
X127949645Y-106596695D01*
X128134026Y-106549114D01*
X128773094Y-106181699D01*
X129222912Y-105597691D01*
X129415000Y-104886000D01*
X129415000Y-103886000D01*
X127657000Y-103886000D01*
X127403000Y-103886000D01*
X125645000Y-103886000D01*
X108992500Y-103886000D01*
X108992500Y-102632000D01*
X125645000Y-102632000D01*
X125645000Y-103632000D01*
X127403000Y-103632000D01*
X127403000Y-101037428D01*
X127657000Y-101037428D01*
X127657000Y-103632000D01*
X129415000Y-103632000D01*
X129415000Y-102632000D01*
X129222912Y-101920309D01*
X128773094Y-101336301D01*
X128134026Y-100968886D01*
X127949645Y-100921305D01*
X127657000Y-101037428D01*
X127403000Y-101037428D01*
X127110355Y-100921305D01*
X126925974Y-100968886D01*
X126286906Y-101336301D01*
X125837088Y-101920309D01*
X125645000Y-102632000D01*
X108992500Y-102632000D01*
X108992500Y-100205500D01*
X111017566Y-100205500D01*
X111072414Y-100287586D01*
X111363565Y-100482126D01*
X111707000Y-100550440D01*
X114607000Y-100550440D01*
X114950435Y-100482126D01*
X115241586Y-100287586D01*
X115436126Y-99996435D01*
X115504440Y-99653000D01*
X115504440Y-99292290D01*
X122245863Y-99292290D01*
X122320710Y-99307178D01*
X122395557Y-99292290D01*
X122395562Y-99292290D01*
X122617247Y-99248194D01*
X122868639Y-99080219D01*
X122911041Y-99016760D01*
X124978675Y-96949126D01*
X135744000Y-96949126D01*
X135744000Y-97360874D01*
X135901569Y-97741280D01*
X136192720Y-98032431D01*
X136573126Y-98190000D01*
X136739199Y-98190000D01*
X138780173Y-100230976D01*
X138822571Y-100294429D01*
X138886024Y-100336827D01*
X138886026Y-100336829D01*
X139011402Y-100420602D01*
X139073963Y-100462404D01*
X139295648Y-100506500D01*
X139295652Y-100506500D01*
X139370499Y-100521388D01*
X139445346Y-100506500D01*
X145269790Y-100506500D01*
X145284458Y-100580240D01*
X142865699Y-102999000D01*
X140327440Y-102999000D01*
X140327440Y-101509000D01*
X140278157Y-101261235D01*
X140137809Y-101051191D01*
X139927765Y-100910843D01*
X139680000Y-100861560D01*
X137180000Y-100861560D01*
X136932235Y-100910843D01*
X136722191Y-101051191D01*
X136581843Y-101261235D01*
X136532560Y-101509000D01*
X136532560Y-106009000D01*
X136581843Y-106256765D01*
X136722191Y-106466809D01*
X136932235Y-106607157D01*
X137180000Y-106656440D01*
X139680000Y-106656440D01*
X139927765Y-106607157D01*
X140137809Y-106466809D01*
X140278157Y-106256765D01*
X140327440Y-106009000D01*
X140327440Y-104519000D01*
X143105653Y-104519000D01*
X143180500Y-104533888D01*
X143255347Y-104519000D01*
X143255352Y-104519000D01*
X143477037Y-104474904D01*
X143728429Y-104306929D01*
X143770831Y-104243470D01*
X146857862Y-101156440D01*
X148268001Y-101156440D01*
X148611436Y-101088127D01*
X148902586Y-100893586D01*
X149097127Y-100602436D01*
X149165440Y-100259001D01*
X149165440Y-99233999D01*
X149097127Y-98890564D01*
X148902586Y-98599414D01*
X148611436Y-98404873D01*
X148268001Y-98336560D01*
X146117999Y-98336560D01*
X145774564Y-98404873D01*
X145483414Y-98599414D01*
X145288873Y-98890564D01*
X145269790Y-98986500D01*
X139685303Y-98986500D01*
X137814000Y-97115199D01*
X137814000Y-96949126D01*
X137656431Y-96568720D01*
X137365280Y-96277569D01*
X136984874Y-96120000D01*
X136573126Y-96120000D01*
X136192720Y-96277569D01*
X135901569Y-96568720D01*
X135744000Y-96949126D01*
X124978675Y-96949126D01*
X134771802Y-87156000D01*
X136152560Y-87156000D01*
X136152560Y-87246000D01*
X136178418Y-87376000D01*
X136152560Y-87506000D01*
X136152560Y-87906000D01*
X136177424Y-88031000D01*
X136152560Y-88156000D01*
X136152560Y-88556000D01*
X136201843Y-88803765D01*
X136342191Y-89013809D01*
X136552235Y-89154157D01*
X136800000Y-89203440D01*
X137860000Y-89203440D01*
X138107765Y-89154157D01*
X138317809Y-89013809D01*
X138430000Y-88845905D01*
X138542191Y-89013809D01*
X138752235Y-89154157D01*
X139000000Y-89203440D01*
X140060000Y-89203440D01*
X140307765Y-89154157D01*
X140364871Y-89116000D01*
X145456390Y-89116000D01*
X145336720Y-89165569D01*
X145045569Y-89456720D01*
X144888000Y-89837126D01*
X144888000Y-90248874D01*
X145045569Y-90629280D01*
X145336720Y-90920431D01*
X145717126Y-91078000D01*
X145883199Y-91078000D01*
X146433001Y-91627803D01*
X146433000Y-93661560D01*
X146117999Y-93661560D01*
X145774564Y-93729873D01*
X145483414Y-93924414D01*
X145288873Y-94215564D01*
X145220560Y-94558999D01*
X145220560Y-95584001D01*
X145288873Y-95927436D01*
X145483414Y-96218586D01*
X145774564Y-96413127D01*
X146117999Y-96481440D01*
X148268001Y-96481440D01*
X148611436Y-96413127D01*
X148902586Y-96218586D01*
X149097127Y-95927436D01*
X149165440Y-95584001D01*
X149165440Y-94558999D01*
X149097127Y-94215564D01*
X148902586Y-93924414D01*
X148611436Y-93729873D01*
X148268001Y-93661560D01*
X147953000Y-93661560D01*
X147953000Y-91387846D01*
X147967888Y-91312999D01*
X147953000Y-91238152D01*
X147953000Y-91238148D01*
X147908904Y-91016463D01*
X147740929Y-90765071D01*
X147677473Y-90722671D01*
X146958000Y-90003199D01*
X146958000Y-89837126D01*
X146800431Y-89456720D01*
X146509280Y-89165569D01*
X146389610Y-89116000D01*
X148007148Y-89116000D01*
X148082000Y-89130889D01*
X148156852Y-89116000D01*
X150413153Y-89116000D01*
X150488000Y-89130888D01*
X150562847Y-89116000D01*
X150562852Y-89116000D01*
X150784537Y-89071904D01*
X151035929Y-88903929D01*
X151078331Y-88840470D01*
X151360470Y-88558331D01*
X151423929Y-88515929D01*
X151524483Y-88365440D01*
X151726000Y-88365440D01*
X151973765Y-88316157D01*
X152183809Y-88175809D01*
X152324157Y-87965765D01*
X152373440Y-87718000D01*
X152373440Y-86018000D01*
X152324157Y-85770235D01*
X152183809Y-85560191D01*
X151973765Y-85419843D01*
X151726000Y-85370560D01*
X150026000Y-85370560D01*
X149778235Y-85419843D01*
X149568191Y-85560191D01*
X149427843Y-85770235D01*
X149378560Y-86018000D01*
X149378560Y-87596000D01*
X148842000Y-87596000D01*
X148842000Y-84275846D01*
X148856888Y-84200999D01*
X148842000Y-84126152D01*
X148842000Y-84126148D01*
X148797904Y-83904463D01*
X148629929Y-83653071D01*
X148566473Y-83610671D01*
X147974000Y-83018199D01*
X147974000Y-82852126D01*
X147816431Y-82471720D01*
X147690211Y-82345500D01*
X153651790Y-82345500D01*
X153670873Y-82441436D01*
X153865414Y-82732586D01*
X154156564Y-82927127D01*
X154499999Y-82995440D01*
X156650001Y-82995440D01*
X156993436Y-82927127D01*
X157284586Y-82732586D01*
X157479127Y-82441436D01*
X157547440Y-82098001D01*
X157547440Y-81072999D01*
X157479127Y-80729564D01*
X157284586Y-80438414D01*
X156993436Y-80243873D01*
X156650001Y-80175560D01*
X154499999Y-80175560D01*
X154156564Y-80243873D01*
X153865414Y-80438414D01*
X153670873Y-80729564D01*
X153651790Y-80825500D01*
X144745346Y-80825500D01*
X144670499Y-80810612D01*
X144595652Y-80825500D01*
X144595648Y-80825500D01*
X144373963Y-80869596D01*
X144373961Y-80869597D01*
X144373962Y-80869597D01*
X144186026Y-80995171D01*
X144186024Y-80995173D01*
X144122571Y-81037571D01*
X144080173Y-81101024D01*
X139632639Y-85548560D01*
X139000000Y-85548560D01*
X138752235Y-85597843D01*
X138542191Y-85738191D01*
X138430000Y-85906095D01*
X138317809Y-85738191D01*
X138107765Y-85597843D01*
X137860000Y-85548560D01*
X136800000Y-85548560D01*
X136552235Y-85597843D01*
X136495129Y-85636000D01*
X134531847Y-85636000D01*
X134457000Y-85621112D01*
X134382153Y-85636000D01*
X134382148Y-85636000D01*
X134160463Y-85680096D01*
X133909071Y-85848071D01*
X133866671Y-85911527D01*
X122005909Y-97772290D01*
X113952557Y-97772290D01*
X113877710Y-97757402D01*
X113802863Y-97772290D01*
X113802858Y-97772290D01*
X113581173Y-97816386D01*
X113372885Y-97955560D01*
X111707000Y-97955560D01*
X111363565Y-98023874D01*
X111072414Y-98218414D01*
X111017566Y-98300500D01*
X108434538Y-98300500D01*
X106205826Y-96071789D01*
X106387439Y-95950439D01*
X106718968Y-95454271D01*
X106791674Y-95088750D01*
X110822000Y-95088750D01*
X110822000Y-95579309D01*
X110918673Y-95812698D01*
X111097301Y-95991327D01*
X111330690Y-96088000D01*
X112871250Y-96088000D01*
X113030000Y-95929250D01*
X113030000Y-94930000D01*
X113284000Y-94930000D01*
X113284000Y-95929250D01*
X113442750Y-96088000D01*
X114983310Y-96088000D01*
X115216699Y-95991327D01*
X115395327Y-95812698D01*
X115492000Y-95579309D01*
X115492000Y-95088750D01*
X115333250Y-94930000D01*
X113284000Y-94930000D01*
X113030000Y-94930000D01*
X110980750Y-94930000D01*
X110822000Y-95088750D01*
X106791674Y-95088750D01*
X106835386Y-94869000D01*
X106718968Y-94283729D01*
X106547221Y-94026691D01*
X110822000Y-94026691D01*
X110822000Y-94517250D01*
X110980750Y-94676000D01*
X113030000Y-94676000D01*
X113030000Y-93676750D01*
X113284000Y-93676750D01*
X113284000Y-94676000D01*
X115333250Y-94676000D01*
X115492000Y-94517250D01*
X115492000Y-94026691D01*
X115395327Y-93793302D01*
X115216699Y-93614673D01*
X114983310Y-93518000D01*
X113442750Y-93518000D01*
X113284000Y-93676750D01*
X113030000Y-93676750D01*
X112871250Y-93518000D01*
X111330690Y-93518000D01*
X111097301Y-93614673D01*
X110918673Y-93793302D01*
X110822000Y-94026691D01*
X106547221Y-94026691D01*
X106387439Y-93787561D01*
X106099357Y-93595071D01*
X106506793Y-93229857D01*
X106760131Y-92701760D01*
X106762346Y-92688246D01*
X106641224Y-92456000D01*
X105283000Y-92456000D01*
X105283000Y-92476000D01*
X105029000Y-92476000D01*
X105029000Y-92456000D01*
X103670776Y-92456000D01*
X103549654Y-92688246D01*
X103551869Y-92701760D01*
X103805207Y-93229857D01*
X104212643Y-93595071D01*
X103924561Y-93787561D01*
X103593032Y-94283729D01*
X103476614Y-94869000D01*
X103593032Y-95454271D01*
X103924561Y-95950439D01*
X104203501Y-96136821D01*
X104203501Y-96275185D01*
X104184840Y-96369000D01*
X104258765Y-96740646D01*
X104258766Y-96740647D01*
X104469287Y-97055714D01*
X104548818Y-97108855D01*
X107087500Y-99647538D01*
X107087501Y-103655461D01*
X103769963Y-106973000D01*
X103485744Y-106973000D01*
X103052582Y-107059161D01*
X102561375Y-107387375D01*
X102233161Y-107878582D01*
X102117908Y-108458000D01*
X101040000Y-108458000D01*
X101040000Y-83600048D01*
X101064414Y-83636586D01*
X101355564Y-83831127D01*
X101698999Y-83899440D01*
X102171500Y-83899440D01*
X102171501Y-87813185D01*
X102152840Y-87907000D01*
X102226765Y-88278646D01*
X102226766Y-88278647D01*
X102437287Y-88593714D01*
X102516818Y-88646855D01*
X103493560Y-89623598D01*
X103493560Y-90654000D01*
X103542843Y-90901765D01*
X103683191Y-91111809D01*
X103893235Y-91252157D01*
X103981870Y-91269787D01*
X103805207Y-91428143D01*
X103551869Y-91956240D01*
X103549654Y-91969754D01*
X103670776Y-92202000D01*
X105029000Y-92202000D01*
X105029000Y-92182000D01*
X105283000Y-92182000D01*
X105283000Y-92202000D01*
X106641224Y-92202000D01*
X106762346Y-91969754D01*
X106760131Y-91956240D01*
X106506793Y-91428143D01*
X106345708Y-91283750D01*
X110949000Y-91283750D01*
X110949000Y-91774309D01*
X111045673Y-92007698D01*
X111224301Y-92186327D01*
X111457690Y-92283000D01*
X112998250Y-92283000D01*
X113157000Y-92124250D01*
X113157000Y-91125000D01*
X113411000Y-91125000D01*
X113411000Y-92124250D01*
X113569750Y-92283000D01*
X115110310Y-92283000D01*
X115343699Y-92186327D01*
X115522327Y-92007698D01*
X115619000Y-91774309D01*
X115619000Y-91283750D01*
X115460250Y-91125000D01*
X113411000Y-91125000D01*
X113157000Y-91125000D01*
X111107750Y-91125000D01*
X110949000Y-91283750D01*
X106345708Y-91283750D01*
X106330130Y-91269787D01*
X106418765Y-91252157D01*
X106628809Y-91111809D01*
X106769157Y-90901765D01*
X106801035Y-90741500D01*
X109949190Y-90741500D01*
X110043000Y-90760160D01*
X110136810Y-90741500D01*
X110414647Y-90686235D01*
X110729714Y-90475714D01*
X110782857Y-90396180D01*
X110949000Y-90230037D01*
X110949000Y-90712250D01*
X111107750Y-90871000D01*
X113157000Y-90871000D01*
X113157000Y-89871750D01*
X112998250Y-89713000D01*
X111466037Y-89713000D01*
X113284000Y-87895038D01*
X115101962Y-89713000D01*
X113569750Y-89713000D01*
X113411000Y-89871750D01*
X113411000Y-90871000D01*
X115460250Y-90871000D01*
X115619000Y-90712250D01*
X115619000Y-90230038D01*
X115631145Y-90242183D01*
X115684286Y-90321714D01*
X115999353Y-90532235D01*
X116277190Y-90587500D01*
X116370999Y-90606160D01*
X116464808Y-90587500D01*
X120094560Y-90587500D01*
X120094560Y-90710000D01*
X120162874Y-91053435D01*
X120357414Y-91344586D01*
X120648565Y-91539126D01*
X120992000Y-91607440D01*
X122364501Y-91607440D01*
X122364501Y-92823461D01*
X121532894Y-93655068D01*
X121333720Y-93737569D01*
X121042569Y-94028720D01*
X120885000Y-94409126D01*
X120885000Y-94820874D01*
X121042569Y-95201280D01*
X121333720Y-95492431D01*
X121714126Y-95650000D01*
X122125874Y-95650000D01*
X122506280Y-95492431D01*
X122797431Y-95201280D01*
X122879932Y-95002106D01*
X123924183Y-93957855D01*
X124003714Y-93904714D01*
X124214235Y-93589647D01*
X124269500Y-93311810D01*
X124288160Y-93218001D01*
X124269500Y-93124192D01*
X124269500Y-91607440D01*
X125642000Y-91607440D01*
X125985435Y-91539126D01*
X126276586Y-91344586D01*
X126471126Y-91053435D01*
X126539440Y-90710000D01*
X126539440Y-88560000D01*
X126471126Y-88216565D01*
X126276586Y-87925414D01*
X125985435Y-87730874D01*
X125642000Y-87662560D01*
X120992000Y-87662560D01*
X120648565Y-87730874D01*
X120357414Y-87925414D01*
X120162874Y-88216565D01*
X120094560Y-88560000D01*
X120094560Y-88682500D01*
X116765538Y-88682500D01*
X115487562Y-87404525D01*
X115563126Y-87291435D01*
X115631440Y-86948000D01*
X115631440Y-86148000D01*
X115563126Y-85804565D01*
X115368586Y-85513414D01*
X115077435Y-85318874D01*
X114734000Y-85250560D01*
X111834000Y-85250560D01*
X111490565Y-85318874D01*
X111199414Y-85513414D01*
X111004874Y-85804565D01*
X110936560Y-86148000D01*
X110936560Y-86948000D01*
X111004874Y-87291435D01*
X111080438Y-87404525D01*
X109648463Y-88836500D01*
X106801035Y-88836500D01*
X106769157Y-88676235D01*
X106628809Y-88466191D01*
X106418765Y-88325843D01*
X106171000Y-88276560D01*
X104840598Y-88276560D01*
X104076500Y-87512463D01*
X104076500Y-83899440D01*
X104549001Y-83899440D01*
X104892436Y-83831127D01*
X105183586Y-83636586D01*
X105378127Y-83345436D01*
X105446440Y-83002001D01*
X105446440Y-81976999D01*
X105378127Y-81633564D01*
X105183586Y-81342414D01*
X104892436Y-81147873D01*
X104549001Y-81079560D01*
X101698999Y-81079560D01*
X101355564Y-81147873D01*
X101064414Y-81342414D01*
X101040000Y-81378952D01*
X101040000Y-77625048D01*
X101064414Y-77661586D01*
X101355564Y-77856127D01*
X101698999Y-77924440D01*
X104549001Y-77924440D01*
X104892436Y-77856127D01*
X105183586Y-77661586D01*
X105378127Y-77370436D01*
X105446440Y-77027001D01*
X105446440Y-76001999D01*
X105378127Y-75658564D01*
X105183586Y-75367414D01*
X104892436Y-75172873D01*
X104549001Y-75104560D01*
X103695500Y-75104560D01*
X103695500Y-73902940D01*
X103818001Y-73902940D01*
X104161436Y-73834627D01*
X104452586Y-73640086D01*
X104647127Y-73348936D01*
X104715440Y-73005501D01*
X104715440Y-71980499D01*
X104679935Y-71801999D01*
X120201560Y-71801999D01*
X120201560Y-72827001D01*
X120269873Y-73170436D01*
X120464414Y-73461586D01*
X120755564Y-73656127D01*
X121098999Y-73724440D01*
X123249001Y-73724440D01*
X123592436Y-73656127D01*
X123883586Y-73461586D01*
X124078127Y-73170436D01*
X124092645Y-73097447D01*
X125838000Y-74842803D01*
X125838000Y-75008874D01*
X125995569Y-75389280D01*
X126286720Y-75680431D01*
X126667126Y-75838000D01*
X127078874Y-75838000D01*
X127459280Y-75680431D01*
X127750431Y-75389280D01*
X127908000Y-75008874D01*
X127908000Y-74597126D01*
X127750431Y-74216720D01*
X127459280Y-73925569D01*
X127078874Y-73768000D01*
X126912803Y-73768000D01*
X124974831Y-71830030D01*
X124932429Y-71766571D01*
X124681037Y-71598596D01*
X124459352Y-71554500D01*
X124459347Y-71554500D01*
X124384500Y-71539612D01*
X124309653Y-71554500D01*
X124097210Y-71554500D01*
X124078127Y-71458564D01*
X123883586Y-71167414D01*
X123592436Y-70972873D01*
X123249001Y-70904560D01*
X121098999Y-70904560D01*
X120755564Y-70972873D01*
X120464414Y-71167414D01*
X120269873Y-71458564D01*
X120201560Y-71801999D01*
X104679935Y-71801999D01*
X104647127Y-71637064D01*
X104452586Y-71345914D01*
X104161436Y-71151373D01*
X103818001Y-71083060D01*
X101667999Y-71083060D01*
X101324564Y-71151373D01*
X101040000Y-71341513D01*
X101040000Y-68969487D01*
X101324564Y-69159627D01*
X101667999Y-69227940D01*
X102805902Y-69227940D01*
X103019145Y-69441183D01*
X103072286Y-69520714D01*
X103387353Y-69731235D01*
X103759000Y-69805160D01*
X103852810Y-69786500D01*
X108885948Y-69786500D01*
X108914843Y-69931765D01*
X109055191Y-70141809D01*
X109265235Y-70282157D01*
X109513000Y-70331440D01*
X111213000Y-70331440D01*
X111460765Y-70282157D01*
X111670809Y-70141809D01*
X111811157Y-69931765D01*
X111831739Y-69828292D01*
X112136076Y-70105645D01*
X112546110Y-70275476D01*
X112776000Y-70154155D01*
X112776000Y-68961000D01*
X113030000Y-68961000D01*
X113030000Y-70154155D01*
X113259890Y-70275476D01*
X113669924Y-70105645D01*
X114098183Y-69715358D01*
X114344486Y-69190892D01*
X114223819Y-68961000D01*
X113030000Y-68961000D01*
X112776000Y-68961000D01*
X112756000Y-68961000D01*
X112756000Y-68707000D01*
X112776000Y-68707000D01*
X112776000Y-67513845D01*
X113030000Y-67513845D01*
X113030000Y-68707000D01*
X114223819Y-68707000D01*
X114344486Y-68477108D01*
X114098183Y-67952642D01*
X114068126Y-67925250D01*
X120214000Y-67925250D01*
X120214000Y-68528309D01*
X120310673Y-68761698D01*
X120489301Y-68940327D01*
X120722690Y-69037000D01*
X121888250Y-69037000D01*
X122047000Y-68878250D01*
X122047000Y-67766500D01*
X122301000Y-67766500D01*
X122301000Y-68878250D01*
X122459750Y-69037000D01*
X123625310Y-69037000D01*
X123858699Y-68940327D01*
X124037327Y-68761698D01*
X124134000Y-68528309D01*
X124134000Y-67925250D01*
X123975250Y-67766500D01*
X122301000Y-67766500D01*
X122047000Y-67766500D01*
X120372750Y-67766500D01*
X120214000Y-67925250D01*
X114068126Y-67925250D01*
X113669924Y-67562355D01*
X113259890Y-67392524D01*
X113030000Y-67513845D01*
X112776000Y-67513845D01*
X112546110Y-67392524D01*
X112136076Y-67562355D01*
X111831739Y-67839708D01*
X111811157Y-67736235D01*
X111670809Y-67526191D01*
X111460765Y-67385843D01*
X111213000Y-67336560D01*
X109513000Y-67336560D01*
X109265235Y-67385843D01*
X109055191Y-67526191D01*
X108914843Y-67736235D01*
X108885948Y-67881500D01*
X104715440Y-67881500D01*
X104715440Y-67305499D01*
X104647127Y-66962064D01*
X104505430Y-66750000D01*
X120214286Y-66750000D01*
X120214000Y-66750691D01*
G04 #@! TD*
M02*
