G04 #@! TF.GenerationSoftware,KiCad,Pcbnew,(5.0.1-3-g963ef8bb5)*
G04 #@! TF.CreationDate,2019-04-17T19:13:41-07:00*
G04 #@! TF.ProjectId,wireless_proj,776972656C6573735F70726F6A2E6B69,rev?*
G04 #@! TF.SameCoordinates,Original*
G04 #@! TF.FileFunction,Paste,Top*
G04 #@! TF.FilePolarity,Positive*
%FSLAX46Y46*%
G04 Gerber Fmt 4.6, Leading zero omitted, Abs format (unit mm)*
G04 Created by KiCad (PCBNEW (5.0.1-3-g963ef8bb5)) date 2019 April 17, Wednesday 19:13:41*
%MOMM*%
%LPD*%
G01*
G04 APERTURE LIST*
%ADD10C,0.100000*%
%ADD11C,1.300000*%
%ADD12C,1.525000*%
%ADD13C,2.650000*%
%ADD14R,1.060000X0.400000*%
G04 APERTURE END LIST*
D10*
G04 #@! TO.C,C2*
G36*
X114631504Y-94154204D02*
X114655773Y-94157804D01*
X114679571Y-94163765D01*
X114702671Y-94172030D01*
X114724849Y-94182520D01*
X114745893Y-94195133D01*
X114765598Y-94209747D01*
X114783777Y-94226223D01*
X114800253Y-94244402D01*
X114814867Y-94264107D01*
X114827480Y-94285151D01*
X114837970Y-94307329D01*
X114846235Y-94330429D01*
X114852196Y-94354227D01*
X114855796Y-94378496D01*
X114857000Y-94403000D01*
X114857000Y-95203000D01*
X114855796Y-95227504D01*
X114852196Y-95251773D01*
X114846235Y-95275571D01*
X114837970Y-95298671D01*
X114827480Y-95320849D01*
X114814867Y-95341893D01*
X114800253Y-95361598D01*
X114783777Y-95379777D01*
X114765598Y-95396253D01*
X114745893Y-95410867D01*
X114724849Y-95423480D01*
X114702671Y-95433970D01*
X114679571Y-95442235D01*
X114655773Y-95448196D01*
X114631504Y-95451796D01*
X114607000Y-95453000D01*
X111707000Y-95453000D01*
X111682496Y-95451796D01*
X111658227Y-95448196D01*
X111634429Y-95442235D01*
X111611329Y-95433970D01*
X111589151Y-95423480D01*
X111568107Y-95410867D01*
X111548402Y-95396253D01*
X111530223Y-95379777D01*
X111513747Y-95361598D01*
X111499133Y-95341893D01*
X111486520Y-95320849D01*
X111476030Y-95298671D01*
X111467765Y-95275571D01*
X111461804Y-95251773D01*
X111458204Y-95227504D01*
X111457000Y-95203000D01*
X111457000Y-94403000D01*
X111458204Y-94378496D01*
X111461804Y-94354227D01*
X111467765Y-94330429D01*
X111476030Y-94307329D01*
X111486520Y-94285151D01*
X111499133Y-94264107D01*
X111513747Y-94244402D01*
X111530223Y-94226223D01*
X111548402Y-94209747D01*
X111568107Y-94195133D01*
X111589151Y-94182520D01*
X111611329Y-94172030D01*
X111634429Y-94163765D01*
X111658227Y-94157804D01*
X111682496Y-94154204D01*
X111707000Y-94153000D01*
X114607000Y-94153000D01*
X114631504Y-94154204D01*
X114631504Y-94154204D01*
G37*
D11*
X113157000Y-94803000D03*
D10*
G36*
X114631504Y-98604204D02*
X114655773Y-98607804D01*
X114679571Y-98613765D01*
X114702671Y-98622030D01*
X114724849Y-98632520D01*
X114745893Y-98645133D01*
X114765598Y-98659747D01*
X114783777Y-98676223D01*
X114800253Y-98694402D01*
X114814867Y-98714107D01*
X114827480Y-98735151D01*
X114837970Y-98757329D01*
X114846235Y-98780429D01*
X114852196Y-98804227D01*
X114855796Y-98828496D01*
X114857000Y-98853000D01*
X114857000Y-99653000D01*
X114855796Y-99677504D01*
X114852196Y-99701773D01*
X114846235Y-99725571D01*
X114837970Y-99748671D01*
X114827480Y-99770849D01*
X114814867Y-99791893D01*
X114800253Y-99811598D01*
X114783777Y-99829777D01*
X114765598Y-99846253D01*
X114745893Y-99860867D01*
X114724849Y-99873480D01*
X114702671Y-99883970D01*
X114679571Y-99892235D01*
X114655773Y-99898196D01*
X114631504Y-99901796D01*
X114607000Y-99903000D01*
X111707000Y-99903000D01*
X111682496Y-99901796D01*
X111658227Y-99898196D01*
X111634429Y-99892235D01*
X111611329Y-99883970D01*
X111589151Y-99873480D01*
X111568107Y-99860867D01*
X111548402Y-99846253D01*
X111530223Y-99829777D01*
X111513747Y-99811598D01*
X111499133Y-99791893D01*
X111486520Y-99770849D01*
X111476030Y-99748671D01*
X111467765Y-99725571D01*
X111461804Y-99701773D01*
X111458204Y-99677504D01*
X111457000Y-99653000D01*
X111457000Y-98853000D01*
X111458204Y-98828496D01*
X111461804Y-98804227D01*
X111467765Y-98780429D01*
X111476030Y-98757329D01*
X111486520Y-98735151D01*
X111499133Y-98714107D01*
X111513747Y-98694402D01*
X111530223Y-98676223D01*
X111548402Y-98659747D01*
X111568107Y-98645133D01*
X111589151Y-98632520D01*
X111611329Y-98622030D01*
X111634429Y-98613765D01*
X111658227Y-98607804D01*
X111682496Y-98604204D01*
X111707000Y-98603000D01*
X114607000Y-98603000D01*
X114631504Y-98604204D01*
X114631504Y-98604204D01*
G37*
D11*
X113157000Y-99253000D03*
G04 #@! TD*
D10*
G04 #@! TO.C,C1*
G36*
X114758504Y-85899204D02*
X114782773Y-85902804D01*
X114806571Y-85908765D01*
X114829671Y-85917030D01*
X114851849Y-85927520D01*
X114872893Y-85940133D01*
X114892598Y-85954747D01*
X114910777Y-85971223D01*
X114927253Y-85989402D01*
X114941867Y-86009107D01*
X114954480Y-86030151D01*
X114964970Y-86052329D01*
X114973235Y-86075429D01*
X114979196Y-86099227D01*
X114982796Y-86123496D01*
X114984000Y-86148000D01*
X114984000Y-86948000D01*
X114982796Y-86972504D01*
X114979196Y-86996773D01*
X114973235Y-87020571D01*
X114964970Y-87043671D01*
X114954480Y-87065849D01*
X114941867Y-87086893D01*
X114927253Y-87106598D01*
X114910777Y-87124777D01*
X114892598Y-87141253D01*
X114872893Y-87155867D01*
X114851849Y-87168480D01*
X114829671Y-87178970D01*
X114806571Y-87187235D01*
X114782773Y-87193196D01*
X114758504Y-87196796D01*
X114734000Y-87198000D01*
X111834000Y-87198000D01*
X111809496Y-87196796D01*
X111785227Y-87193196D01*
X111761429Y-87187235D01*
X111738329Y-87178970D01*
X111716151Y-87168480D01*
X111695107Y-87155867D01*
X111675402Y-87141253D01*
X111657223Y-87124777D01*
X111640747Y-87106598D01*
X111626133Y-87086893D01*
X111613520Y-87065849D01*
X111603030Y-87043671D01*
X111594765Y-87020571D01*
X111588804Y-86996773D01*
X111585204Y-86972504D01*
X111584000Y-86948000D01*
X111584000Y-86148000D01*
X111585204Y-86123496D01*
X111588804Y-86099227D01*
X111594765Y-86075429D01*
X111603030Y-86052329D01*
X111613520Y-86030151D01*
X111626133Y-86009107D01*
X111640747Y-85989402D01*
X111657223Y-85971223D01*
X111675402Y-85954747D01*
X111695107Y-85940133D01*
X111716151Y-85927520D01*
X111738329Y-85917030D01*
X111761429Y-85908765D01*
X111785227Y-85902804D01*
X111809496Y-85899204D01*
X111834000Y-85898000D01*
X114734000Y-85898000D01*
X114758504Y-85899204D01*
X114758504Y-85899204D01*
G37*
D11*
X113284000Y-86548000D03*
D10*
G36*
X114758504Y-90349204D02*
X114782773Y-90352804D01*
X114806571Y-90358765D01*
X114829671Y-90367030D01*
X114851849Y-90377520D01*
X114872893Y-90390133D01*
X114892598Y-90404747D01*
X114910777Y-90421223D01*
X114927253Y-90439402D01*
X114941867Y-90459107D01*
X114954480Y-90480151D01*
X114964970Y-90502329D01*
X114973235Y-90525429D01*
X114979196Y-90549227D01*
X114982796Y-90573496D01*
X114984000Y-90598000D01*
X114984000Y-91398000D01*
X114982796Y-91422504D01*
X114979196Y-91446773D01*
X114973235Y-91470571D01*
X114964970Y-91493671D01*
X114954480Y-91515849D01*
X114941867Y-91536893D01*
X114927253Y-91556598D01*
X114910777Y-91574777D01*
X114892598Y-91591253D01*
X114872893Y-91605867D01*
X114851849Y-91618480D01*
X114829671Y-91628970D01*
X114806571Y-91637235D01*
X114782773Y-91643196D01*
X114758504Y-91646796D01*
X114734000Y-91648000D01*
X111834000Y-91648000D01*
X111809496Y-91646796D01*
X111785227Y-91643196D01*
X111761429Y-91637235D01*
X111738329Y-91628970D01*
X111716151Y-91618480D01*
X111695107Y-91605867D01*
X111675402Y-91591253D01*
X111657223Y-91574777D01*
X111640747Y-91556598D01*
X111626133Y-91536893D01*
X111613520Y-91515849D01*
X111603030Y-91493671D01*
X111594765Y-91470571D01*
X111588804Y-91446773D01*
X111585204Y-91422504D01*
X111584000Y-91398000D01*
X111584000Y-90598000D01*
X111585204Y-90573496D01*
X111588804Y-90549227D01*
X111594765Y-90525429D01*
X111603030Y-90502329D01*
X111613520Y-90480151D01*
X111626133Y-90459107D01*
X111640747Y-90439402D01*
X111657223Y-90421223D01*
X111675402Y-90404747D01*
X111695107Y-90390133D01*
X111716151Y-90377520D01*
X111738329Y-90367030D01*
X111761429Y-90358765D01*
X111785227Y-90352804D01*
X111809496Y-90349204D01*
X111834000Y-90348000D01*
X114734000Y-90348000D01*
X114758504Y-90349204D01*
X114758504Y-90349204D01*
G37*
D11*
X113284000Y-90998000D03*
G04 #@! TD*
D10*
G04 #@! TO.C,D1*
G36*
X104573505Y-81728204D02*
X104597773Y-81731804D01*
X104621572Y-81737765D01*
X104644671Y-81746030D01*
X104666850Y-81756520D01*
X104687893Y-81769132D01*
X104707599Y-81783747D01*
X104725777Y-81800223D01*
X104742253Y-81818401D01*
X104756868Y-81838107D01*
X104769480Y-81859150D01*
X104779970Y-81881329D01*
X104788235Y-81904428D01*
X104794196Y-81928227D01*
X104797796Y-81952495D01*
X104799000Y-81976999D01*
X104799000Y-83002001D01*
X104797796Y-83026505D01*
X104794196Y-83050773D01*
X104788235Y-83074572D01*
X104779970Y-83097671D01*
X104769480Y-83119850D01*
X104756868Y-83140893D01*
X104742253Y-83160599D01*
X104725777Y-83178777D01*
X104707599Y-83195253D01*
X104687893Y-83209868D01*
X104666850Y-83222480D01*
X104644671Y-83232970D01*
X104621572Y-83241235D01*
X104597773Y-83247196D01*
X104573505Y-83250796D01*
X104549001Y-83252000D01*
X101698999Y-83252000D01*
X101674495Y-83250796D01*
X101650227Y-83247196D01*
X101626428Y-83241235D01*
X101603329Y-83232970D01*
X101581150Y-83222480D01*
X101560107Y-83209868D01*
X101540401Y-83195253D01*
X101522223Y-83178777D01*
X101505747Y-83160599D01*
X101491132Y-83140893D01*
X101478520Y-83119850D01*
X101468030Y-83097671D01*
X101459765Y-83074572D01*
X101453804Y-83050773D01*
X101450204Y-83026505D01*
X101449000Y-83002001D01*
X101449000Y-81976999D01*
X101450204Y-81952495D01*
X101453804Y-81928227D01*
X101459765Y-81904428D01*
X101468030Y-81881329D01*
X101478520Y-81859150D01*
X101491132Y-81838107D01*
X101505747Y-81818401D01*
X101522223Y-81800223D01*
X101540401Y-81783747D01*
X101560107Y-81769132D01*
X101581150Y-81756520D01*
X101603329Y-81746030D01*
X101626428Y-81737765D01*
X101650227Y-81731804D01*
X101674495Y-81728204D01*
X101698999Y-81727000D01*
X104549001Y-81727000D01*
X104573505Y-81728204D01*
X104573505Y-81728204D01*
G37*
D12*
X103124000Y-82489500D03*
D10*
G36*
X104573505Y-75753204D02*
X104597773Y-75756804D01*
X104621572Y-75762765D01*
X104644671Y-75771030D01*
X104666850Y-75781520D01*
X104687893Y-75794132D01*
X104707599Y-75808747D01*
X104725777Y-75825223D01*
X104742253Y-75843401D01*
X104756868Y-75863107D01*
X104769480Y-75884150D01*
X104779970Y-75906329D01*
X104788235Y-75929428D01*
X104794196Y-75953227D01*
X104797796Y-75977495D01*
X104799000Y-76001999D01*
X104799000Y-77027001D01*
X104797796Y-77051505D01*
X104794196Y-77075773D01*
X104788235Y-77099572D01*
X104779970Y-77122671D01*
X104769480Y-77144850D01*
X104756868Y-77165893D01*
X104742253Y-77185599D01*
X104725777Y-77203777D01*
X104707599Y-77220253D01*
X104687893Y-77234868D01*
X104666850Y-77247480D01*
X104644671Y-77257970D01*
X104621572Y-77266235D01*
X104597773Y-77272196D01*
X104573505Y-77275796D01*
X104549001Y-77277000D01*
X101698999Y-77277000D01*
X101674495Y-77275796D01*
X101650227Y-77272196D01*
X101626428Y-77266235D01*
X101603329Y-77257970D01*
X101581150Y-77247480D01*
X101560107Y-77234868D01*
X101540401Y-77220253D01*
X101522223Y-77203777D01*
X101505747Y-77185599D01*
X101491132Y-77165893D01*
X101478520Y-77144850D01*
X101468030Y-77122671D01*
X101459765Y-77099572D01*
X101453804Y-77075773D01*
X101450204Y-77051505D01*
X101449000Y-77027001D01*
X101449000Y-76001999D01*
X101450204Y-75977495D01*
X101453804Y-75953227D01*
X101459765Y-75929428D01*
X101468030Y-75906329D01*
X101478520Y-75884150D01*
X101491132Y-75863107D01*
X101505747Y-75843401D01*
X101522223Y-75825223D01*
X101540401Y-75808747D01*
X101560107Y-75794132D01*
X101581150Y-75781520D01*
X101603329Y-75771030D01*
X101626428Y-75762765D01*
X101650227Y-75756804D01*
X101674495Y-75753204D01*
X101698999Y-75752000D01*
X104549001Y-75752000D01*
X104573505Y-75753204D01*
X104573505Y-75753204D01*
G37*
D12*
X103124000Y-76514500D03*
G04 #@! TD*
D10*
G04 #@! TO.C,D2*
G36*
X125666504Y-88311204D02*
X125690773Y-88314804D01*
X125714571Y-88320765D01*
X125737671Y-88329030D01*
X125759849Y-88339520D01*
X125780893Y-88352133D01*
X125800598Y-88366747D01*
X125818777Y-88383223D01*
X125835253Y-88401402D01*
X125849867Y-88421107D01*
X125862480Y-88442151D01*
X125872970Y-88464329D01*
X125881235Y-88487429D01*
X125887196Y-88511227D01*
X125890796Y-88535496D01*
X125892000Y-88560000D01*
X125892000Y-90710000D01*
X125890796Y-90734504D01*
X125887196Y-90758773D01*
X125881235Y-90782571D01*
X125872970Y-90805671D01*
X125862480Y-90827849D01*
X125849867Y-90848893D01*
X125835253Y-90868598D01*
X125818777Y-90886777D01*
X125800598Y-90903253D01*
X125780893Y-90917867D01*
X125759849Y-90930480D01*
X125737671Y-90940970D01*
X125714571Y-90949235D01*
X125690773Y-90955196D01*
X125666504Y-90958796D01*
X125642000Y-90960000D01*
X120992000Y-90960000D01*
X120967496Y-90958796D01*
X120943227Y-90955196D01*
X120919429Y-90949235D01*
X120896329Y-90940970D01*
X120874151Y-90930480D01*
X120853107Y-90917867D01*
X120833402Y-90903253D01*
X120815223Y-90886777D01*
X120798747Y-90868598D01*
X120784133Y-90848893D01*
X120771520Y-90827849D01*
X120761030Y-90805671D01*
X120752765Y-90782571D01*
X120746804Y-90758773D01*
X120743204Y-90734504D01*
X120742000Y-90710000D01*
X120742000Y-88560000D01*
X120743204Y-88535496D01*
X120746804Y-88511227D01*
X120752765Y-88487429D01*
X120761030Y-88464329D01*
X120771520Y-88442151D01*
X120784133Y-88421107D01*
X120798747Y-88401402D01*
X120815223Y-88383223D01*
X120833402Y-88366747D01*
X120853107Y-88352133D01*
X120874151Y-88339520D01*
X120896329Y-88329030D01*
X120919429Y-88320765D01*
X120943227Y-88314804D01*
X120967496Y-88311204D01*
X120992000Y-88310000D01*
X125642000Y-88310000D01*
X125666504Y-88311204D01*
X125666504Y-88311204D01*
G37*
D13*
X123317000Y-89635000D03*
D10*
G36*
X125666504Y-81761204D02*
X125690773Y-81764804D01*
X125714571Y-81770765D01*
X125737671Y-81779030D01*
X125759849Y-81789520D01*
X125780893Y-81802133D01*
X125800598Y-81816747D01*
X125818777Y-81833223D01*
X125835253Y-81851402D01*
X125849867Y-81871107D01*
X125862480Y-81892151D01*
X125872970Y-81914329D01*
X125881235Y-81937429D01*
X125887196Y-81961227D01*
X125890796Y-81985496D01*
X125892000Y-82010000D01*
X125892000Y-84160000D01*
X125890796Y-84184504D01*
X125887196Y-84208773D01*
X125881235Y-84232571D01*
X125872970Y-84255671D01*
X125862480Y-84277849D01*
X125849867Y-84298893D01*
X125835253Y-84318598D01*
X125818777Y-84336777D01*
X125800598Y-84353253D01*
X125780893Y-84367867D01*
X125759849Y-84380480D01*
X125737671Y-84390970D01*
X125714571Y-84399235D01*
X125690773Y-84405196D01*
X125666504Y-84408796D01*
X125642000Y-84410000D01*
X120992000Y-84410000D01*
X120967496Y-84408796D01*
X120943227Y-84405196D01*
X120919429Y-84399235D01*
X120896329Y-84390970D01*
X120874151Y-84380480D01*
X120853107Y-84367867D01*
X120833402Y-84353253D01*
X120815223Y-84336777D01*
X120798747Y-84318598D01*
X120784133Y-84298893D01*
X120771520Y-84277849D01*
X120761030Y-84255671D01*
X120752765Y-84232571D01*
X120746804Y-84208773D01*
X120743204Y-84184504D01*
X120742000Y-84160000D01*
X120742000Y-82010000D01*
X120743204Y-81985496D01*
X120746804Y-81961227D01*
X120752765Y-81937429D01*
X120761030Y-81914329D01*
X120771520Y-81892151D01*
X120784133Y-81871107D01*
X120798747Y-81851402D01*
X120815223Y-81833223D01*
X120833402Y-81816747D01*
X120853107Y-81802133D01*
X120874151Y-81789520D01*
X120896329Y-81779030D01*
X120919429Y-81770765D01*
X120943227Y-81764804D01*
X120967496Y-81761204D01*
X120992000Y-81760000D01*
X125642000Y-81760000D01*
X125666504Y-81761204D01*
X125666504Y-81761204D01*
G37*
D13*
X123317000Y-83085000D03*
G04 #@! TD*
D14*
G04 #@! TO.C,U1*
X139530000Y-88356000D03*
X139530000Y-87706000D03*
X139530000Y-87046000D03*
X139530000Y-86396000D03*
X137330000Y-86396000D03*
X137330000Y-87046000D03*
X137330000Y-87706000D03*
X137330000Y-88356000D03*
G04 #@! TD*
D10*
G04 #@! TO.C,TH1*
G36*
X103842505Y-67056704D02*
X103866773Y-67060304D01*
X103890572Y-67066265D01*
X103913671Y-67074530D01*
X103935850Y-67085020D01*
X103956893Y-67097632D01*
X103976599Y-67112247D01*
X103994777Y-67128723D01*
X104011253Y-67146901D01*
X104025868Y-67166607D01*
X104038480Y-67187650D01*
X104048970Y-67209829D01*
X104057235Y-67232928D01*
X104063196Y-67256727D01*
X104066796Y-67280995D01*
X104068000Y-67305499D01*
X104068000Y-68330501D01*
X104066796Y-68355005D01*
X104063196Y-68379273D01*
X104057235Y-68403072D01*
X104048970Y-68426171D01*
X104038480Y-68448350D01*
X104025868Y-68469393D01*
X104011253Y-68489099D01*
X103994777Y-68507277D01*
X103976599Y-68523753D01*
X103956893Y-68538368D01*
X103935850Y-68550980D01*
X103913671Y-68561470D01*
X103890572Y-68569735D01*
X103866773Y-68575696D01*
X103842505Y-68579296D01*
X103818001Y-68580500D01*
X101667999Y-68580500D01*
X101643495Y-68579296D01*
X101619227Y-68575696D01*
X101595428Y-68569735D01*
X101572329Y-68561470D01*
X101550150Y-68550980D01*
X101529107Y-68538368D01*
X101509401Y-68523753D01*
X101491223Y-68507277D01*
X101474747Y-68489099D01*
X101460132Y-68469393D01*
X101447520Y-68448350D01*
X101437030Y-68426171D01*
X101428765Y-68403072D01*
X101422804Y-68379273D01*
X101419204Y-68355005D01*
X101418000Y-68330501D01*
X101418000Y-67305499D01*
X101419204Y-67280995D01*
X101422804Y-67256727D01*
X101428765Y-67232928D01*
X101437030Y-67209829D01*
X101447520Y-67187650D01*
X101460132Y-67166607D01*
X101474747Y-67146901D01*
X101491223Y-67128723D01*
X101509401Y-67112247D01*
X101529107Y-67097632D01*
X101550150Y-67085020D01*
X101572329Y-67074530D01*
X101595428Y-67066265D01*
X101619227Y-67060304D01*
X101643495Y-67056704D01*
X101667999Y-67055500D01*
X103818001Y-67055500D01*
X103842505Y-67056704D01*
X103842505Y-67056704D01*
G37*
D12*
X102743000Y-67818000D03*
D10*
G36*
X103842505Y-71731704D02*
X103866773Y-71735304D01*
X103890572Y-71741265D01*
X103913671Y-71749530D01*
X103935850Y-71760020D01*
X103956893Y-71772632D01*
X103976599Y-71787247D01*
X103994777Y-71803723D01*
X104011253Y-71821901D01*
X104025868Y-71841607D01*
X104038480Y-71862650D01*
X104048970Y-71884829D01*
X104057235Y-71907928D01*
X104063196Y-71931727D01*
X104066796Y-71955995D01*
X104068000Y-71980499D01*
X104068000Y-73005501D01*
X104066796Y-73030005D01*
X104063196Y-73054273D01*
X104057235Y-73078072D01*
X104048970Y-73101171D01*
X104038480Y-73123350D01*
X104025868Y-73144393D01*
X104011253Y-73164099D01*
X103994777Y-73182277D01*
X103976599Y-73198753D01*
X103956893Y-73213368D01*
X103935850Y-73225980D01*
X103913671Y-73236470D01*
X103890572Y-73244735D01*
X103866773Y-73250696D01*
X103842505Y-73254296D01*
X103818001Y-73255500D01*
X101667999Y-73255500D01*
X101643495Y-73254296D01*
X101619227Y-73250696D01*
X101595428Y-73244735D01*
X101572329Y-73236470D01*
X101550150Y-73225980D01*
X101529107Y-73213368D01*
X101509401Y-73198753D01*
X101491223Y-73182277D01*
X101474747Y-73164099D01*
X101460132Y-73144393D01*
X101447520Y-73123350D01*
X101437030Y-73101171D01*
X101428765Y-73078072D01*
X101422804Y-73054273D01*
X101419204Y-73030005D01*
X101418000Y-73005501D01*
X101418000Y-71980499D01*
X101419204Y-71955995D01*
X101422804Y-71931727D01*
X101428765Y-71907928D01*
X101437030Y-71884829D01*
X101447520Y-71862650D01*
X101460132Y-71841607D01*
X101474747Y-71821901D01*
X101491223Y-71803723D01*
X101509401Y-71787247D01*
X101529107Y-71772632D01*
X101550150Y-71760020D01*
X101572329Y-71749530D01*
X101595428Y-71741265D01*
X101619227Y-71735304D01*
X101643495Y-71731704D01*
X101667999Y-71730500D01*
X103818001Y-71730500D01*
X103842505Y-71731704D01*
X103842505Y-71731704D01*
G37*
D12*
X102743000Y-72493000D03*
G04 #@! TD*
D10*
G04 #@! TO.C,Rl1*
G36*
X148927505Y-71172204D02*
X148951773Y-71175804D01*
X148975572Y-71181765D01*
X148998671Y-71190030D01*
X149020850Y-71200520D01*
X149041893Y-71213132D01*
X149061599Y-71227747D01*
X149079777Y-71244223D01*
X149096253Y-71262401D01*
X149110868Y-71282107D01*
X149123480Y-71303150D01*
X149133970Y-71325329D01*
X149142235Y-71348428D01*
X149148196Y-71372227D01*
X149151796Y-71396495D01*
X149153000Y-71420999D01*
X149153000Y-72446001D01*
X149151796Y-72470505D01*
X149148196Y-72494773D01*
X149142235Y-72518572D01*
X149133970Y-72541671D01*
X149123480Y-72563850D01*
X149110868Y-72584893D01*
X149096253Y-72604599D01*
X149079777Y-72622777D01*
X149061599Y-72639253D01*
X149041893Y-72653868D01*
X149020850Y-72666480D01*
X148998671Y-72676970D01*
X148975572Y-72685235D01*
X148951773Y-72691196D01*
X148927505Y-72694796D01*
X148903001Y-72696000D01*
X146752999Y-72696000D01*
X146728495Y-72694796D01*
X146704227Y-72691196D01*
X146680428Y-72685235D01*
X146657329Y-72676970D01*
X146635150Y-72666480D01*
X146614107Y-72653868D01*
X146594401Y-72639253D01*
X146576223Y-72622777D01*
X146559747Y-72604599D01*
X146545132Y-72584893D01*
X146532520Y-72563850D01*
X146522030Y-72541671D01*
X146513765Y-72518572D01*
X146507804Y-72494773D01*
X146504204Y-72470505D01*
X146503000Y-72446001D01*
X146503000Y-71420999D01*
X146504204Y-71396495D01*
X146507804Y-71372227D01*
X146513765Y-71348428D01*
X146522030Y-71325329D01*
X146532520Y-71303150D01*
X146545132Y-71282107D01*
X146559747Y-71262401D01*
X146576223Y-71244223D01*
X146594401Y-71227747D01*
X146614107Y-71213132D01*
X146635150Y-71200520D01*
X146657329Y-71190030D01*
X146680428Y-71181765D01*
X146704227Y-71175804D01*
X146728495Y-71172204D01*
X146752999Y-71171000D01*
X148903001Y-71171000D01*
X148927505Y-71172204D01*
X148927505Y-71172204D01*
G37*
D12*
X147828000Y-71933500D03*
D10*
G36*
X148927505Y-66497204D02*
X148951773Y-66500804D01*
X148975572Y-66506765D01*
X148998671Y-66515030D01*
X149020850Y-66525520D01*
X149041893Y-66538132D01*
X149061599Y-66552747D01*
X149079777Y-66569223D01*
X149096253Y-66587401D01*
X149110868Y-66607107D01*
X149123480Y-66628150D01*
X149133970Y-66650329D01*
X149142235Y-66673428D01*
X149148196Y-66697227D01*
X149151796Y-66721495D01*
X149153000Y-66745999D01*
X149153000Y-67771001D01*
X149151796Y-67795505D01*
X149148196Y-67819773D01*
X149142235Y-67843572D01*
X149133970Y-67866671D01*
X149123480Y-67888850D01*
X149110868Y-67909893D01*
X149096253Y-67929599D01*
X149079777Y-67947777D01*
X149061599Y-67964253D01*
X149041893Y-67978868D01*
X149020850Y-67991480D01*
X148998671Y-68001970D01*
X148975572Y-68010235D01*
X148951773Y-68016196D01*
X148927505Y-68019796D01*
X148903001Y-68021000D01*
X146752999Y-68021000D01*
X146728495Y-68019796D01*
X146704227Y-68016196D01*
X146680428Y-68010235D01*
X146657329Y-68001970D01*
X146635150Y-67991480D01*
X146614107Y-67978868D01*
X146594401Y-67964253D01*
X146576223Y-67947777D01*
X146559747Y-67929599D01*
X146545132Y-67909893D01*
X146532520Y-67888850D01*
X146522030Y-67866671D01*
X146513765Y-67843572D01*
X146507804Y-67819773D01*
X146504204Y-67795505D01*
X146503000Y-67771001D01*
X146503000Y-66745999D01*
X146504204Y-66721495D01*
X146507804Y-66697227D01*
X146513765Y-66673428D01*
X146522030Y-66650329D01*
X146532520Y-66628150D01*
X146545132Y-66607107D01*
X146559747Y-66587401D01*
X146576223Y-66569223D01*
X146594401Y-66552747D01*
X146614107Y-66538132D01*
X146635150Y-66525520D01*
X146657329Y-66515030D01*
X146680428Y-66506765D01*
X146704227Y-66500804D01*
X146728495Y-66497204D01*
X146752999Y-66496000D01*
X148903001Y-66496000D01*
X148927505Y-66497204D01*
X148927505Y-66497204D01*
G37*
D12*
X147828000Y-67258500D03*
G04 #@! TD*
D10*
G04 #@! TO.C,R4*
G36*
X123273505Y-66878204D02*
X123297773Y-66881804D01*
X123321572Y-66887765D01*
X123344671Y-66896030D01*
X123366850Y-66906520D01*
X123387893Y-66919132D01*
X123407599Y-66933747D01*
X123425777Y-66950223D01*
X123442253Y-66968401D01*
X123456868Y-66988107D01*
X123469480Y-67009150D01*
X123479970Y-67031329D01*
X123488235Y-67054428D01*
X123494196Y-67078227D01*
X123497796Y-67102495D01*
X123499000Y-67126999D01*
X123499000Y-68152001D01*
X123497796Y-68176505D01*
X123494196Y-68200773D01*
X123488235Y-68224572D01*
X123479970Y-68247671D01*
X123469480Y-68269850D01*
X123456868Y-68290893D01*
X123442253Y-68310599D01*
X123425777Y-68328777D01*
X123407599Y-68345253D01*
X123387893Y-68359868D01*
X123366850Y-68372480D01*
X123344671Y-68382970D01*
X123321572Y-68391235D01*
X123297773Y-68397196D01*
X123273505Y-68400796D01*
X123249001Y-68402000D01*
X121098999Y-68402000D01*
X121074495Y-68400796D01*
X121050227Y-68397196D01*
X121026428Y-68391235D01*
X121003329Y-68382970D01*
X120981150Y-68372480D01*
X120960107Y-68359868D01*
X120940401Y-68345253D01*
X120922223Y-68328777D01*
X120905747Y-68310599D01*
X120891132Y-68290893D01*
X120878520Y-68269850D01*
X120868030Y-68247671D01*
X120859765Y-68224572D01*
X120853804Y-68200773D01*
X120850204Y-68176505D01*
X120849000Y-68152001D01*
X120849000Y-67126999D01*
X120850204Y-67102495D01*
X120853804Y-67078227D01*
X120859765Y-67054428D01*
X120868030Y-67031329D01*
X120878520Y-67009150D01*
X120891132Y-66988107D01*
X120905747Y-66968401D01*
X120922223Y-66950223D01*
X120940401Y-66933747D01*
X120960107Y-66919132D01*
X120981150Y-66906520D01*
X121003329Y-66896030D01*
X121026428Y-66887765D01*
X121050227Y-66881804D01*
X121074495Y-66878204D01*
X121098999Y-66877000D01*
X123249001Y-66877000D01*
X123273505Y-66878204D01*
X123273505Y-66878204D01*
G37*
D12*
X122174000Y-67639500D03*
D10*
G36*
X123273505Y-71553204D02*
X123297773Y-71556804D01*
X123321572Y-71562765D01*
X123344671Y-71571030D01*
X123366850Y-71581520D01*
X123387893Y-71594132D01*
X123407599Y-71608747D01*
X123425777Y-71625223D01*
X123442253Y-71643401D01*
X123456868Y-71663107D01*
X123469480Y-71684150D01*
X123479970Y-71706329D01*
X123488235Y-71729428D01*
X123494196Y-71753227D01*
X123497796Y-71777495D01*
X123499000Y-71801999D01*
X123499000Y-72827001D01*
X123497796Y-72851505D01*
X123494196Y-72875773D01*
X123488235Y-72899572D01*
X123479970Y-72922671D01*
X123469480Y-72944850D01*
X123456868Y-72965893D01*
X123442253Y-72985599D01*
X123425777Y-73003777D01*
X123407599Y-73020253D01*
X123387893Y-73034868D01*
X123366850Y-73047480D01*
X123344671Y-73057970D01*
X123321572Y-73066235D01*
X123297773Y-73072196D01*
X123273505Y-73075796D01*
X123249001Y-73077000D01*
X121098999Y-73077000D01*
X121074495Y-73075796D01*
X121050227Y-73072196D01*
X121026428Y-73066235D01*
X121003329Y-73057970D01*
X120981150Y-73047480D01*
X120960107Y-73034868D01*
X120940401Y-73020253D01*
X120922223Y-73003777D01*
X120905747Y-72985599D01*
X120891132Y-72965893D01*
X120878520Y-72944850D01*
X120868030Y-72922671D01*
X120859765Y-72899572D01*
X120853804Y-72875773D01*
X120850204Y-72851505D01*
X120849000Y-72827001D01*
X120849000Y-71801999D01*
X120850204Y-71777495D01*
X120853804Y-71753227D01*
X120859765Y-71729428D01*
X120868030Y-71706329D01*
X120878520Y-71684150D01*
X120891132Y-71663107D01*
X120905747Y-71643401D01*
X120922223Y-71625223D01*
X120940401Y-71608747D01*
X120960107Y-71594132D01*
X120981150Y-71581520D01*
X121003329Y-71571030D01*
X121026428Y-71562765D01*
X121050227Y-71556804D01*
X121074495Y-71553204D01*
X121098999Y-71552000D01*
X123249001Y-71552000D01*
X123273505Y-71553204D01*
X123273505Y-71553204D01*
G37*
D12*
X122174000Y-72314500D03*
G04 #@! TD*
D10*
G04 #@! TO.C,R3*
G36*
X156674505Y-80824204D02*
X156698773Y-80827804D01*
X156722572Y-80833765D01*
X156745671Y-80842030D01*
X156767850Y-80852520D01*
X156788893Y-80865132D01*
X156808599Y-80879747D01*
X156826777Y-80896223D01*
X156843253Y-80914401D01*
X156857868Y-80934107D01*
X156870480Y-80955150D01*
X156880970Y-80977329D01*
X156889235Y-81000428D01*
X156895196Y-81024227D01*
X156898796Y-81048495D01*
X156900000Y-81072999D01*
X156900000Y-82098001D01*
X156898796Y-82122505D01*
X156895196Y-82146773D01*
X156889235Y-82170572D01*
X156880970Y-82193671D01*
X156870480Y-82215850D01*
X156857868Y-82236893D01*
X156843253Y-82256599D01*
X156826777Y-82274777D01*
X156808599Y-82291253D01*
X156788893Y-82305868D01*
X156767850Y-82318480D01*
X156745671Y-82328970D01*
X156722572Y-82337235D01*
X156698773Y-82343196D01*
X156674505Y-82346796D01*
X156650001Y-82348000D01*
X154499999Y-82348000D01*
X154475495Y-82346796D01*
X154451227Y-82343196D01*
X154427428Y-82337235D01*
X154404329Y-82328970D01*
X154382150Y-82318480D01*
X154361107Y-82305868D01*
X154341401Y-82291253D01*
X154323223Y-82274777D01*
X154306747Y-82256599D01*
X154292132Y-82236893D01*
X154279520Y-82215850D01*
X154269030Y-82193671D01*
X154260765Y-82170572D01*
X154254804Y-82146773D01*
X154251204Y-82122505D01*
X154250000Y-82098001D01*
X154250000Y-81072999D01*
X154251204Y-81048495D01*
X154254804Y-81024227D01*
X154260765Y-81000428D01*
X154269030Y-80977329D01*
X154279520Y-80955150D01*
X154292132Y-80934107D01*
X154306747Y-80914401D01*
X154323223Y-80896223D01*
X154341401Y-80879747D01*
X154361107Y-80865132D01*
X154382150Y-80852520D01*
X154404329Y-80842030D01*
X154427428Y-80833765D01*
X154451227Y-80827804D01*
X154475495Y-80824204D01*
X154499999Y-80823000D01*
X156650001Y-80823000D01*
X156674505Y-80824204D01*
X156674505Y-80824204D01*
G37*
D12*
X155575000Y-81585500D03*
D10*
G36*
X156674505Y-76149204D02*
X156698773Y-76152804D01*
X156722572Y-76158765D01*
X156745671Y-76167030D01*
X156767850Y-76177520D01*
X156788893Y-76190132D01*
X156808599Y-76204747D01*
X156826777Y-76221223D01*
X156843253Y-76239401D01*
X156857868Y-76259107D01*
X156870480Y-76280150D01*
X156880970Y-76302329D01*
X156889235Y-76325428D01*
X156895196Y-76349227D01*
X156898796Y-76373495D01*
X156900000Y-76397999D01*
X156900000Y-77423001D01*
X156898796Y-77447505D01*
X156895196Y-77471773D01*
X156889235Y-77495572D01*
X156880970Y-77518671D01*
X156870480Y-77540850D01*
X156857868Y-77561893D01*
X156843253Y-77581599D01*
X156826777Y-77599777D01*
X156808599Y-77616253D01*
X156788893Y-77630868D01*
X156767850Y-77643480D01*
X156745671Y-77653970D01*
X156722572Y-77662235D01*
X156698773Y-77668196D01*
X156674505Y-77671796D01*
X156650001Y-77673000D01*
X154499999Y-77673000D01*
X154475495Y-77671796D01*
X154451227Y-77668196D01*
X154427428Y-77662235D01*
X154404329Y-77653970D01*
X154382150Y-77643480D01*
X154361107Y-77630868D01*
X154341401Y-77616253D01*
X154323223Y-77599777D01*
X154306747Y-77581599D01*
X154292132Y-77561893D01*
X154279520Y-77540850D01*
X154269030Y-77518671D01*
X154260765Y-77495572D01*
X154254804Y-77471773D01*
X154251204Y-77447505D01*
X154250000Y-77423001D01*
X154250000Y-76397999D01*
X154251204Y-76373495D01*
X154254804Y-76349227D01*
X154260765Y-76325428D01*
X154269030Y-76302329D01*
X154279520Y-76280150D01*
X154292132Y-76259107D01*
X154306747Y-76239401D01*
X154323223Y-76221223D01*
X154341401Y-76204747D01*
X154361107Y-76190132D01*
X154382150Y-76177520D01*
X154404329Y-76167030D01*
X154427428Y-76158765D01*
X154451227Y-76152804D01*
X154475495Y-76149204D01*
X154499999Y-76148000D01*
X156650001Y-76148000D01*
X156674505Y-76149204D01*
X156674505Y-76149204D01*
G37*
D12*
X155575000Y-76910500D03*
G04 #@! TD*
D10*
G04 #@! TO.C,R2*
G36*
X148292505Y-98985204D02*
X148316773Y-98988804D01*
X148340572Y-98994765D01*
X148363671Y-99003030D01*
X148385850Y-99013520D01*
X148406893Y-99026132D01*
X148426599Y-99040747D01*
X148444777Y-99057223D01*
X148461253Y-99075401D01*
X148475868Y-99095107D01*
X148488480Y-99116150D01*
X148498970Y-99138329D01*
X148507235Y-99161428D01*
X148513196Y-99185227D01*
X148516796Y-99209495D01*
X148518000Y-99233999D01*
X148518000Y-100259001D01*
X148516796Y-100283505D01*
X148513196Y-100307773D01*
X148507235Y-100331572D01*
X148498970Y-100354671D01*
X148488480Y-100376850D01*
X148475868Y-100397893D01*
X148461253Y-100417599D01*
X148444777Y-100435777D01*
X148426599Y-100452253D01*
X148406893Y-100466868D01*
X148385850Y-100479480D01*
X148363671Y-100489970D01*
X148340572Y-100498235D01*
X148316773Y-100504196D01*
X148292505Y-100507796D01*
X148268001Y-100509000D01*
X146117999Y-100509000D01*
X146093495Y-100507796D01*
X146069227Y-100504196D01*
X146045428Y-100498235D01*
X146022329Y-100489970D01*
X146000150Y-100479480D01*
X145979107Y-100466868D01*
X145959401Y-100452253D01*
X145941223Y-100435777D01*
X145924747Y-100417599D01*
X145910132Y-100397893D01*
X145897520Y-100376850D01*
X145887030Y-100354671D01*
X145878765Y-100331572D01*
X145872804Y-100307773D01*
X145869204Y-100283505D01*
X145868000Y-100259001D01*
X145868000Y-99233999D01*
X145869204Y-99209495D01*
X145872804Y-99185227D01*
X145878765Y-99161428D01*
X145887030Y-99138329D01*
X145897520Y-99116150D01*
X145910132Y-99095107D01*
X145924747Y-99075401D01*
X145941223Y-99057223D01*
X145959401Y-99040747D01*
X145979107Y-99026132D01*
X146000150Y-99013520D01*
X146022329Y-99003030D01*
X146045428Y-98994765D01*
X146069227Y-98988804D01*
X146093495Y-98985204D01*
X146117999Y-98984000D01*
X148268001Y-98984000D01*
X148292505Y-98985204D01*
X148292505Y-98985204D01*
G37*
D12*
X147193000Y-99746500D03*
D10*
G36*
X148292505Y-94310204D02*
X148316773Y-94313804D01*
X148340572Y-94319765D01*
X148363671Y-94328030D01*
X148385850Y-94338520D01*
X148406893Y-94351132D01*
X148426599Y-94365747D01*
X148444777Y-94382223D01*
X148461253Y-94400401D01*
X148475868Y-94420107D01*
X148488480Y-94441150D01*
X148498970Y-94463329D01*
X148507235Y-94486428D01*
X148513196Y-94510227D01*
X148516796Y-94534495D01*
X148518000Y-94558999D01*
X148518000Y-95584001D01*
X148516796Y-95608505D01*
X148513196Y-95632773D01*
X148507235Y-95656572D01*
X148498970Y-95679671D01*
X148488480Y-95701850D01*
X148475868Y-95722893D01*
X148461253Y-95742599D01*
X148444777Y-95760777D01*
X148426599Y-95777253D01*
X148406893Y-95791868D01*
X148385850Y-95804480D01*
X148363671Y-95814970D01*
X148340572Y-95823235D01*
X148316773Y-95829196D01*
X148292505Y-95832796D01*
X148268001Y-95834000D01*
X146117999Y-95834000D01*
X146093495Y-95832796D01*
X146069227Y-95829196D01*
X146045428Y-95823235D01*
X146022329Y-95814970D01*
X146000150Y-95804480D01*
X145979107Y-95791868D01*
X145959401Y-95777253D01*
X145941223Y-95760777D01*
X145924747Y-95742599D01*
X145910132Y-95722893D01*
X145897520Y-95701850D01*
X145887030Y-95679671D01*
X145878765Y-95656572D01*
X145872804Y-95632773D01*
X145869204Y-95608505D01*
X145868000Y-95584001D01*
X145868000Y-94558999D01*
X145869204Y-94534495D01*
X145872804Y-94510227D01*
X145878765Y-94486428D01*
X145887030Y-94463329D01*
X145897520Y-94441150D01*
X145910132Y-94420107D01*
X145924747Y-94400401D01*
X145941223Y-94382223D01*
X145959401Y-94365747D01*
X145979107Y-94351132D01*
X146000150Y-94338520D01*
X146022329Y-94328030D01*
X146045428Y-94319765D01*
X146069227Y-94313804D01*
X146093495Y-94310204D01*
X146117999Y-94309000D01*
X148268001Y-94309000D01*
X148292505Y-94310204D01*
X148292505Y-94310204D01*
G37*
D12*
X147193000Y-95071500D03*
G04 #@! TD*
D10*
G04 #@! TO.C,R1*
G36*
X156547505Y-71223704D02*
X156571773Y-71227304D01*
X156595572Y-71233265D01*
X156618671Y-71241530D01*
X156640850Y-71252020D01*
X156661893Y-71264632D01*
X156681599Y-71279247D01*
X156699777Y-71295723D01*
X156716253Y-71313901D01*
X156730868Y-71333607D01*
X156743480Y-71354650D01*
X156753970Y-71376829D01*
X156762235Y-71399928D01*
X156768196Y-71423727D01*
X156771796Y-71447995D01*
X156773000Y-71472499D01*
X156773000Y-72497501D01*
X156771796Y-72522005D01*
X156768196Y-72546273D01*
X156762235Y-72570072D01*
X156753970Y-72593171D01*
X156743480Y-72615350D01*
X156730868Y-72636393D01*
X156716253Y-72656099D01*
X156699777Y-72674277D01*
X156681599Y-72690753D01*
X156661893Y-72705368D01*
X156640850Y-72717980D01*
X156618671Y-72728470D01*
X156595572Y-72736735D01*
X156571773Y-72742696D01*
X156547505Y-72746296D01*
X156523001Y-72747500D01*
X154372999Y-72747500D01*
X154348495Y-72746296D01*
X154324227Y-72742696D01*
X154300428Y-72736735D01*
X154277329Y-72728470D01*
X154255150Y-72717980D01*
X154234107Y-72705368D01*
X154214401Y-72690753D01*
X154196223Y-72674277D01*
X154179747Y-72656099D01*
X154165132Y-72636393D01*
X154152520Y-72615350D01*
X154142030Y-72593171D01*
X154133765Y-72570072D01*
X154127804Y-72546273D01*
X154124204Y-72522005D01*
X154123000Y-72497501D01*
X154123000Y-71472499D01*
X154124204Y-71447995D01*
X154127804Y-71423727D01*
X154133765Y-71399928D01*
X154142030Y-71376829D01*
X154152520Y-71354650D01*
X154165132Y-71333607D01*
X154179747Y-71313901D01*
X154196223Y-71295723D01*
X154214401Y-71279247D01*
X154234107Y-71264632D01*
X154255150Y-71252020D01*
X154277329Y-71241530D01*
X154300428Y-71233265D01*
X154324227Y-71227304D01*
X154348495Y-71223704D01*
X154372999Y-71222500D01*
X156523001Y-71222500D01*
X156547505Y-71223704D01*
X156547505Y-71223704D01*
G37*
D12*
X155448000Y-71985000D03*
D10*
G36*
X156547505Y-66548704D02*
X156571773Y-66552304D01*
X156595572Y-66558265D01*
X156618671Y-66566530D01*
X156640850Y-66577020D01*
X156661893Y-66589632D01*
X156681599Y-66604247D01*
X156699777Y-66620723D01*
X156716253Y-66638901D01*
X156730868Y-66658607D01*
X156743480Y-66679650D01*
X156753970Y-66701829D01*
X156762235Y-66724928D01*
X156768196Y-66748727D01*
X156771796Y-66772995D01*
X156773000Y-66797499D01*
X156773000Y-67822501D01*
X156771796Y-67847005D01*
X156768196Y-67871273D01*
X156762235Y-67895072D01*
X156753970Y-67918171D01*
X156743480Y-67940350D01*
X156730868Y-67961393D01*
X156716253Y-67981099D01*
X156699777Y-67999277D01*
X156681599Y-68015753D01*
X156661893Y-68030368D01*
X156640850Y-68042980D01*
X156618671Y-68053470D01*
X156595572Y-68061735D01*
X156571773Y-68067696D01*
X156547505Y-68071296D01*
X156523001Y-68072500D01*
X154372999Y-68072500D01*
X154348495Y-68071296D01*
X154324227Y-68067696D01*
X154300428Y-68061735D01*
X154277329Y-68053470D01*
X154255150Y-68042980D01*
X154234107Y-68030368D01*
X154214401Y-68015753D01*
X154196223Y-67999277D01*
X154179747Y-67981099D01*
X154165132Y-67961393D01*
X154152520Y-67940350D01*
X154142030Y-67918171D01*
X154133765Y-67895072D01*
X154127804Y-67871273D01*
X154124204Y-67847005D01*
X154123000Y-67822501D01*
X154123000Y-66797499D01*
X154124204Y-66772995D01*
X154127804Y-66748727D01*
X154133765Y-66724928D01*
X154142030Y-66701829D01*
X154152520Y-66679650D01*
X154165132Y-66658607D01*
X154179747Y-66638901D01*
X154196223Y-66620723D01*
X154214401Y-66604247D01*
X154234107Y-66589632D01*
X154255150Y-66577020D01*
X154277329Y-66566530D01*
X154300428Y-66558265D01*
X154324227Y-66552304D01*
X154348495Y-66548704D01*
X154372999Y-66547500D01*
X156523001Y-66547500D01*
X156547505Y-66548704D01*
X156547505Y-66548704D01*
G37*
D12*
X155448000Y-67310000D03*
G04 #@! TD*
M02*
