G04 #@! TF.GenerationSoftware,KiCad,Pcbnew,(5.0.1-3-g963ef8bb5)*
G04 #@! TF.CreationDate,2019-04-17T19:13:41-07:00*
G04 #@! TF.ProjectId,wireless_proj,776972656C6573735F70726F6A2E6B69,rev?*
G04 #@! TF.SameCoordinates,Original*
G04 #@! TF.FileFunction,Soldermask,Top*
G04 #@! TF.FilePolarity,Negative*
%FSLAX46Y46*%
G04 Gerber Fmt 4.6, Leading zero omitted, Abs format (unit mm)*
G04 Created by KiCad (PCBNEW (5.0.1-3-g963ef8bb5)) date 2019 April 17, Wednesday 19:13:41*
%MOMM*%
%LPD*%
G01*
G04 APERTURE LIST*
%ADD10C,0.100000*%
G04 APERTURE END LIST*
D10*
G36*
X133323252Y-120833335D02*
X133323255Y-120833336D01*
X133323256Y-120833336D01*
X133653321Y-120933460D01*
X133957510Y-121096052D01*
X134224135Y-121314865D01*
X134442948Y-121581490D01*
X134594317Y-121864682D01*
X134605539Y-121885677D01*
X134705665Y-122215748D01*
X134739472Y-122559000D01*
X134705665Y-122902252D01*
X134705664Y-122902255D01*
X134705664Y-122902256D01*
X134605540Y-123232321D01*
X134442948Y-123536510D01*
X134224135Y-123803135D01*
X133957510Y-124021948D01*
X133653321Y-124184540D01*
X133323256Y-124284664D01*
X133323255Y-124284664D01*
X133323252Y-124284665D01*
X133066021Y-124310000D01*
X132893979Y-124310000D01*
X132636748Y-124284665D01*
X132636745Y-124284664D01*
X132636744Y-124284664D01*
X132306679Y-124184540D01*
X132002490Y-124021948D01*
X131735865Y-123803135D01*
X131517052Y-123536510D01*
X131354460Y-123232321D01*
X131254336Y-122902256D01*
X131254336Y-122902255D01*
X131254335Y-122902252D01*
X131220528Y-122559000D01*
X131254335Y-122215748D01*
X131354461Y-121885677D01*
X131365683Y-121864682D01*
X131517052Y-121581490D01*
X131735865Y-121314865D01*
X132002490Y-121096052D01*
X132306679Y-120933460D01*
X132636744Y-120833336D01*
X132636745Y-120833336D01*
X132636748Y-120833335D01*
X132893979Y-120808000D01*
X133066021Y-120808000D01*
X133323252Y-120833335D01*
X133323252Y-120833335D01*
G37*
G36*
X117233000Y-110375000D02*
X115431000Y-110375000D01*
X115431000Y-108573000D01*
X117233000Y-108573000D01*
X117233000Y-110375000D01*
X117233000Y-110375000D01*
G37*
G36*
X107073000Y-109359000D02*
X105271000Y-109359000D01*
X105271000Y-107557000D01*
X107073000Y-107557000D01*
X107073000Y-109359000D01*
X107073000Y-109359000D01*
G37*
G36*
X103742443Y-107563519D02*
X103808627Y-107570037D01*
X103921853Y-107604384D01*
X103978467Y-107621557D01*
X104117087Y-107695652D01*
X104134991Y-107705222D01*
X104170729Y-107734552D01*
X104272186Y-107817814D01*
X104355448Y-107919271D01*
X104384778Y-107955009D01*
X104384779Y-107955011D01*
X104468443Y-108111533D01*
X104468443Y-108111534D01*
X104519963Y-108281373D01*
X104537359Y-108458000D01*
X104519963Y-108634627D01*
X104485616Y-108747853D01*
X104468443Y-108804467D01*
X104394348Y-108943087D01*
X104384778Y-108960991D01*
X104355448Y-108996729D01*
X104272186Y-109098186D01*
X104170729Y-109181448D01*
X104134991Y-109210778D01*
X104134989Y-109210779D01*
X103978467Y-109294443D01*
X103921853Y-109311616D01*
X103808627Y-109345963D01*
X103742443Y-109352481D01*
X103676260Y-109359000D01*
X103587740Y-109359000D01*
X103521557Y-109352481D01*
X103455373Y-109345963D01*
X103342147Y-109311616D01*
X103285533Y-109294443D01*
X103129011Y-109210779D01*
X103129009Y-109210778D01*
X103093271Y-109181448D01*
X102991814Y-109098186D01*
X102908552Y-108996729D01*
X102879222Y-108960991D01*
X102869652Y-108943087D01*
X102795557Y-108804467D01*
X102778384Y-108747853D01*
X102744037Y-108634627D01*
X102726641Y-108458000D01*
X102744037Y-108281373D01*
X102795557Y-108111534D01*
X102795557Y-108111533D01*
X102879221Y-107955011D01*
X102879222Y-107955009D01*
X102908552Y-107919271D01*
X102991814Y-107817814D01*
X103093271Y-107734552D01*
X103129009Y-107705222D01*
X103146913Y-107695652D01*
X103285533Y-107621557D01*
X103342147Y-107604384D01*
X103455373Y-107570037D01*
X103521557Y-107563519D01*
X103587740Y-107557000D01*
X103676260Y-107557000D01*
X103742443Y-107563519D01*
X103742443Y-107563519D01*
G37*
G36*
X127785040Y-101476825D02*
X128030280Y-101551218D01*
X128030282Y-101551219D01*
X128256296Y-101672026D01*
X128454397Y-101834603D01*
X128616974Y-102032704D01*
X128616975Y-102032706D01*
X128737782Y-102258720D01*
X128812175Y-102503960D01*
X128831000Y-102695095D01*
X128831000Y-104822905D01*
X128812175Y-105014040D01*
X128737782Y-105259280D01*
X128616976Y-105485293D01*
X128616974Y-105485295D01*
X128454396Y-105683397D01*
X128256295Y-105845974D01*
X128256293Y-105845975D01*
X128030279Y-105966782D01*
X127785039Y-106041175D01*
X127530000Y-106066294D01*
X127274960Y-106041175D01*
X127029720Y-105966782D01*
X126803706Y-105845975D01*
X126768182Y-105816821D01*
X126605603Y-105683396D01*
X126443026Y-105485295D01*
X126322219Y-105259281D01*
X126322218Y-105259279D01*
X126247825Y-105014039D01*
X126229000Y-104822904D01*
X126229001Y-102695095D01*
X126247826Y-102503960D01*
X126322219Y-102258720D01*
X126443026Y-102032706D01*
X126443027Y-102032704D01*
X126605604Y-101834603D01*
X126803705Y-101672026D01*
X127029719Y-101551219D01*
X127029721Y-101551218D01*
X127274961Y-101476825D01*
X127530000Y-101451706D01*
X127785040Y-101476825D01*
X127785040Y-101476825D01*
G37*
G36*
X133235040Y-101476825D02*
X133480280Y-101551218D01*
X133480282Y-101551219D01*
X133706296Y-101672026D01*
X133904397Y-101834603D01*
X134066974Y-102032704D01*
X134066975Y-102032706D01*
X134187782Y-102258720D01*
X134262175Y-102503960D01*
X134281000Y-102695095D01*
X134281000Y-104822905D01*
X134262175Y-105014040D01*
X134187782Y-105259280D01*
X134066976Y-105485293D01*
X134066974Y-105485295D01*
X133904396Y-105683397D01*
X133706295Y-105845974D01*
X133706293Y-105845975D01*
X133480279Y-105966782D01*
X133235039Y-106041175D01*
X132980000Y-106066294D01*
X132724960Y-106041175D01*
X132479720Y-105966782D01*
X132253706Y-105845975D01*
X132218182Y-105816821D01*
X132055603Y-105683396D01*
X131893026Y-105485295D01*
X131772219Y-105259281D01*
X131772218Y-105259279D01*
X131697825Y-105014039D01*
X131679000Y-104822904D01*
X131679001Y-102695095D01*
X131697826Y-102503960D01*
X131772219Y-102258720D01*
X131893026Y-102032706D01*
X131893027Y-102032704D01*
X132055604Y-101834603D01*
X132253705Y-101672026D01*
X132479719Y-101551219D01*
X132479721Y-101551218D01*
X132724961Y-101476825D01*
X132980000Y-101451706D01*
X133235040Y-101476825D01*
X133235040Y-101476825D01*
G37*
G36*
X139731000Y-106060000D02*
X137129000Y-106060000D01*
X137129000Y-101458000D01*
X139731000Y-101458000D01*
X139731000Y-106060000D01*
X139731000Y-106060000D01*
G37*
G36*
X148421821Y-98937103D02*
X148455982Y-98947466D01*
X148487464Y-98964293D01*
X148515060Y-98986940D01*
X148537707Y-99014536D01*
X148554534Y-99046018D01*
X148564897Y-99080179D01*
X148569000Y-99121842D01*
X148569000Y-100371158D01*
X148564897Y-100412821D01*
X148554534Y-100446982D01*
X148537707Y-100478464D01*
X148515060Y-100506060D01*
X148487464Y-100528707D01*
X148455982Y-100545534D01*
X148421821Y-100555897D01*
X148380158Y-100560000D01*
X146005842Y-100560000D01*
X145964179Y-100555897D01*
X145930018Y-100545534D01*
X145898536Y-100528707D01*
X145870940Y-100506060D01*
X145848293Y-100478464D01*
X145831466Y-100446982D01*
X145821103Y-100412821D01*
X145817000Y-100371158D01*
X145817000Y-99121842D01*
X145821103Y-99080179D01*
X145831466Y-99046018D01*
X145848293Y-99014536D01*
X145870940Y-98986940D01*
X145898536Y-98964293D01*
X145930018Y-98947466D01*
X145964179Y-98937103D01*
X146005842Y-98933000D01*
X148380158Y-98933000D01*
X148421821Y-98937103D01*
X148421821Y-98937103D01*
G37*
G36*
X114752782Y-98556295D02*
X114788815Y-98567226D01*
X114822028Y-98584979D01*
X114851134Y-98608866D01*
X114875021Y-98637972D01*
X114892774Y-98671185D01*
X114903705Y-98707218D01*
X114908000Y-98750830D01*
X114908000Y-99755170D01*
X114903705Y-99798782D01*
X114892774Y-99834815D01*
X114875021Y-99868028D01*
X114851134Y-99897134D01*
X114822028Y-99921021D01*
X114788815Y-99938774D01*
X114752782Y-99949705D01*
X114709170Y-99954000D01*
X111604830Y-99954000D01*
X111561218Y-99949705D01*
X111525185Y-99938774D01*
X111491972Y-99921021D01*
X111462866Y-99897134D01*
X111438979Y-99868028D01*
X111421226Y-99834815D01*
X111410295Y-99798782D01*
X111406000Y-99755170D01*
X111406000Y-98750830D01*
X111410295Y-98707218D01*
X111421226Y-98671185D01*
X111438979Y-98637972D01*
X111462866Y-98608866D01*
X111491972Y-98584979D01*
X111525185Y-98567226D01*
X111561218Y-98556295D01*
X111604830Y-98552000D01*
X114709170Y-98552000D01*
X114752782Y-98556295D01*
X114752782Y-98556295D01*
G37*
G36*
X148421821Y-94262103D02*
X148455982Y-94272466D01*
X148487464Y-94289293D01*
X148515060Y-94311940D01*
X148537707Y-94339536D01*
X148554534Y-94371018D01*
X148564897Y-94405179D01*
X148569000Y-94446842D01*
X148569000Y-95696158D01*
X148564897Y-95737821D01*
X148554534Y-95771982D01*
X148537707Y-95803464D01*
X148515060Y-95831060D01*
X148487464Y-95853707D01*
X148455982Y-95870534D01*
X148421821Y-95880897D01*
X148380158Y-95885000D01*
X146005842Y-95885000D01*
X145964179Y-95880897D01*
X145930018Y-95870534D01*
X145898536Y-95853707D01*
X145870940Y-95831060D01*
X145848293Y-95803464D01*
X145831466Y-95771982D01*
X145821103Y-95737821D01*
X145817000Y-95696158D01*
X145817000Y-94446842D01*
X145821103Y-94405179D01*
X145831466Y-94371018D01*
X145848293Y-94339536D01*
X145870940Y-94311940D01*
X145898536Y-94289293D01*
X145930018Y-94272466D01*
X145964179Y-94262103D01*
X146005842Y-94258000D01*
X148380158Y-94258000D01*
X148421821Y-94262103D01*
X148421821Y-94262103D01*
G37*
G36*
X105451925Y-93962940D02*
X105485569Y-93966254D01*
X105571900Y-93992443D01*
X105658234Y-94018632D01*
X105817365Y-94103689D01*
X105956844Y-94218156D01*
X106071311Y-94357635D01*
X106156368Y-94516766D01*
X106182557Y-94603100D01*
X106208746Y-94689431D01*
X106208746Y-94689433D01*
X106226432Y-94869000D01*
X106211656Y-95019018D01*
X106208746Y-95048569D01*
X106182557Y-95134901D01*
X106156368Y-95221234D01*
X106071311Y-95380365D01*
X105956844Y-95519844D01*
X105817365Y-95634311D01*
X105658234Y-95719368D01*
X105571901Y-95745557D01*
X105485569Y-95771746D01*
X105451925Y-95775059D01*
X105350998Y-95785000D01*
X104961002Y-95785000D01*
X104860075Y-95775059D01*
X104826431Y-95771746D01*
X104740099Y-95745557D01*
X104653766Y-95719368D01*
X104494635Y-95634311D01*
X104355156Y-95519844D01*
X104240689Y-95380365D01*
X104155632Y-95221234D01*
X104129443Y-95134901D01*
X104103254Y-95048569D01*
X104100344Y-95019018D01*
X104085568Y-94869000D01*
X104103254Y-94689433D01*
X104103254Y-94689431D01*
X104129443Y-94603100D01*
X104155632Y-94516766D01*
X104240689Y-94357635D01*
X104355156Y-94218156D01*
X104494635Y-94103689D01*
X104653766Y-94018632D01*
X104740100Y-93992443D01*
X104826431Y-93966254D01*
X104860075Y-93962940D01*
X104961002Y-93953000D01*
X105350998Y-93953000D01*
X105451925Y-93962940D01*
X105451925Y-93962940D01*
G37*
G36*
X170954000Y-95643000D02*
X169152000Y-95643000D01*
X169152000Y-93841000D01*
X170954000Y-93841000D01*
X170954000Y-95643000D01*
X170954000Y-95643000D01*
G37*
G36*
X114752782Y-94106295D02*
X114788815Y-94117226D01*
X114822028Y-94134979D01*
X114851134Y-94158866D01*
X114875021Y-94187972D01*
X114892774Y-94221185D01*
X114903705Y-94257218D01*
X114908000Y-94300830D01*
X114908000Y-95305170D01*
X114903705Y-95348782D01*
X114892774Y-95384815D01*
X114875021Y-95418028D01*
X114851134Y-95447134D01*
X114822028Y-95471021D01*
X114788815Y-95488774D01*
X114752782Y-95499705D01*
X114709170Y-95504000D01*
X111604830Y-95504000D01*
X111561218Y-95499705D01*
X111525185Y-95488774D01*
X111491972Y-95471021D01*
X111462866Y-95447134D01*
X111438979Y-95418028D01*
X111421226Y-95384815D01*
X111410295Y-95348782D01*
X111406000Y-95305170D01*
X111406000Y-94300830D01*
X111410295Y-94257218D01*
X111421226Y-94221185D01*
X111438979Y-94187972D01*
X111462866Y-94158866D01*
X111491972Y-94134979D01*
X111525185Y-94117226D01*
X111561218Y-94106295D01*
X111604830Y-94102000D01*
X114709170Y-94102000D01*
X114752782Y-94106295D01*
X114752782Y-94106295D01*
G37*
G36*
X105451925Y-91422940D02*
X105485569Y-91426254D01*
X105571901Y-91452443D01*
X105658234Y-91478632D01*
X105817365Y-91563689D01*
X105956844Y-91678156D01*
X106071311Y-91817635D01*
X106156368Y-91976766D01*
X106171113Y-92025373D01*
X106208746Y-92149431D01*
X106208746Y-92149433D01*
X106226432Y-92329000D01*
X106211656Y-92479018D01*
X106208746Y-92508569D01*
X106182557Y-92594900D01*
X106156368Y-92681234D01*
X106071311Y-92840365D01*
X105956844Y-92979844D01*
X105817365Y-93094311D01*
X105658234Y-93179368D01*
X105571901Y-93205557D01*
X105485569Y-93231746D01*
X105451925Y-93235059D01*
X105350998Y-93245000D01*
X104961002Y-93245000D01*
X104860075Y-93235059D01*
X104826431Y-93231746D01*
X104740099Y-93205557D01*
X104653766Y-93179368D01*
X104494635Y-93094311D01*
X104355156Y-92979844D01*
X104240689Y-92840365D01*
X104155632Y-92681234D01*
X104129443Y-92594900D01*
X104103254Y-92508569D01*
X104100344Y-92479018D01*
X104085568Y-92329000D01*
X104103254Y-92149433D01*
X104103254Y-92149431D01*
X104140887Y-92025373D01*
X104155632Y-91976766D01*
X104240689Y-91817635D01*
X104355156Y-91678156D01*
X104494635Y-91563689D01*
X104653766Y-91478632D01*
X104740099Y-91452443D01*
X104826431Y-91426254D01*
X104860075Y-91422940D01*
X104961002Y-91413000D01*
X105350998Y-91413000D01*
X105451925Y-91422940D01*
X105451925Y-91422940D01*
G37*
G36*
X170163443Y-91307519D02*
X170229627Y-91314037D01*
X170342853Y-91348384D01*
X170399467Y-91365557D01*
X170488225Y-91413000D01*
X170555991Y-91449222D01*
X170591729Y-91478552D01*
X170693186Y-91561814D01*
X170776448Y-91663271D01*
X170805778Y-91699009D01*
X170805779Y-91699011D01*
X170889443Y-91855533D01*
X170889443Y-91855534D01*
X170940963Y-92025373D01*
X170958359Y-92202000D01*
X170940963Y-92378627D01*
X170906616Y-92491853D01*
X170889443Y-92548467D01*
X170815348Y-92687087D01*
X170805778Y-92704991D01*
X170776448Y-92740729D01*
X170693186Y-92842186D01*
X170591729Y-92925448D01*
X170555991Y-92954778D01*
X170555989Y-92954779D01*
X170399467Y-93038443D01*
X170342853Y-93055616D01*
X170229627Y-93089963D01*
X170185480Y-93094311D01*
X170097260Y-93103000D01*
X170008740Y-93103000D01*
X169920520Y-93094311D01*
X169876373Y-93089963D01*
X169763147Y-93055616D01*
X169706533Y-93038443D01*
X169550011Y-92954779D01*
X169550009Y-92954778D01*
X169514271Y-92925448D01*
X169412814Y-92842186D01*
X169329552Y-92740729D01*
X169300222Y-92704991D01*
X169290652Y-92687087D01*
X169216557Y-92548467D01*
X169199384Y-92491853D01*
X169165037Y-92378627D01*
X169147641Y-92202000D01*
X169165037Y-92025373D01*
X169216557Y-91855534D01*
X169216557Y-91855533D01*
X169300221Y-91699011D01*
X169300222Y-91699009D01*
X169329552Y-91663271D01*
X169412814Y-91561814D01*
X169514271Y-91478552D01*
X169550009Y-91449222D01*
X169617775Y-91413000D01*
X169706533Y-91365557D01*
X169763147Y-91348384D01*
X169876373Y-91314037D01*
X169942557Y-91307519D01*
X170008740Y-91301000D01*
X170097260Y-91301000D01*
X170163443Y-91307519D01*
X170163443Y-91307519D01*
G37*
G36*
X114879782Y-90301295D02*
X114915815Y-90312226D01*
X114949028Y-90329979D01*
X114978134Y-90353866D01*
X115002021Y-90382972D01*
X115019774Y-90416185D01*
X115030705Y-90452218D01*
X115035000Y-90495830D01*
X115035000Y-91500170D01*
X115030705Y-91543782D01*
X115019774Y-91579815D01*
X115002021Y-91613028D01*
X114978134Y-91642134D01*
X114949028Y-91666021D01*
X114915815Y-91683774D01*
X114879782Y-91694705D01*
X114836170Y-91699000D01*
X111731830Y-91699000D01*
X111688218Y-91694705D01*
X111652185Y-91683774D01*
X111618972Y-91666021D01*
X111589866Y-91642134D01*
X111565979Y-91613028D01*
X111548226Y-91579815D01*
X111537295Y-91543782D01*
X111533000Y-91500170D01*
X111533000Y-90495830D01*
X111537295Y-90452218D01*
X111548226Y-90416185D01*
X111565979Y-90382972D01*
X111589866Y-90353866D01*
X111618972Y-90329979D01*
X111652185Y-90312226D01*
X111688218Y-90301295D01*
X111731830Y-90297000D01*
X114836170Y-90297000D01*
X114879782Y-90301295D01*
X114879782Y-90301295D01*
G37*
G36*
X125815537Y-88262633D02*
X125845108Y-88271603D01*
X125872352Y-88286165D01*
X125896234Y-88305766D01*
X125915835Y-88329648D01*
X125930397Y-88356892D01*
X125939367Y-88386463D01*
X125943000Y-88423349D01*
X125943000Y-90846651D01*
X125939367Y-90883537D01*
X125930397Y-90913108D01*
X125915835Y-90940352D01*
X125896234Y-90964234D01*
X125872352Y-90983835D01*
X125845108Y-90998397D01*
X125815537Y-91007367D01*
X125778651Y-91011000D01*
X120855349Y-91011000D01*
X120818463Y-91007367D01*
X120788892Y-90998397D01*
X120761648Y-90983835D01*
X120737766Y-90964234D01*
X120718165Y-90940352D01*
X120703603Y-90913108D01*
X120694633Y-90883537D01*
X120691000Y-90846651D01*
X120691000Y-88423349D01*
X120694633Y-88386463D01*
X120703603Y-88356892D01*
X120718165Y-88329648D01*
X120737766Y-88305766D01*
X120761648Y-88286165D01*
X120788892Y-88271603D01*
X120818463Y-88262633D01*
X120855349Y-88259000D01*
X125778651Y-88259000D01*
X125815537Y-88262633D01*
X125815537Y-88262633D01*
G37*
G36*
X106222000Y-90705000D02*
X104090000Y-90705000D01*
X104090000Y-88873000D01*
X106222000Y-88873000D01*
X106222000Y-90705000D01*
X106222000Y-90705000D01*
G37*
G36*
X137911000Y-88607000D02*
X136749000Y-88607000D01*
X136749000Y-86145000D01*
X137911000Y-86145000D01*
X137911000Y-88607000D01*
X137911000Y-88607000D01*
G37*
G36*
X140111000Y-88607000D02*
X138949000Y-88607000D01*
X138949000Y-86145000D01*
X140111000Y-86145000D01*
X140111000Y-88607000D01*
X140111000Y-88607000D01*
G37*
G36*
X151777000Y-87769000D02*
X149975000Y-87769000D01*
X149975000Y-85967000D01*
X151777000Y-85967000D01*
X151777000Y-87769000D01*
X151777000Y-87769000D01*
G37*
G36*
X114879782Y-85851295D02*
X114915815Y-85862226D01*
X114949028Y-85879979D01*
X114978134Y-85903866D01*
X115002021Y-85932972D01*
X115019774Y-85966185D01*
X115030705Y-86002218D01*
X115035000Y-86045830D01*
X115035000Y-87050170D01*
X115030705Y-87093782D01*
X115019774Y-87129815D01*
X115002021Y-87163028D01*
X114978134Y-87192134D01*
X114949028Y-87216021D01*
X114915815Y-87233774D01*
X114879782Y-87244705D01*
X114836170Y-87249000D01*
X111731830Y-87249000D01*
X111688218Y-87244705D01*
X111652185Y-87233774D01*
X111618972Y-87216021D01*
X111589866Y-87192134D01*
X111565979Y-87163028D01*
X111548226Y-87129815D01*
X111537295Y-87093782D01*
X111533000Y-87050170D01*
X111533000Y-86045830D01*
X111537295Y-86002218D01*
X111548226Y-85966185D01*
X111565979Y-85932972D01*
X111589866Y-85903866D01*
X111618972Y-85879979D01*
X111652185Y-85862226D01*
X111688218Y-85851295D01*
X111731830Y-85847000D01*
X114836170Y-85847000D01*
X114879782Y-85851295D01*
X114879782Y-85851295D01*
G37*
G36*
X125815537Y-81712633D02*
X125845108Y-81721603D01*
X125872352Y-81736165D01*
X125896234Y-81755766D01*
X125915835Y-81779648D01*
X125930397Y-81806892D01*
X125939367Y-81836463D01*
X125943000Y-81873349D01*
X125943000Y-84296651D01*
X125939367Y-84333537D01*
X125930397Y-84363108D01*
X125915835Y-84390352D01*
X125896234Y-84414234D01*
X125872352Y-84433835D01*
X125845108Y-84448397D01*
X125815537Y-84457367D01*
X125778651Y-84461000D01*
X120855349Y-84461000D01*
X120818463Y-84457367D01*
X120788892Y-84448397D01*
X120761648Y-84433835D01*
X120737766Y-84414234D01*
X120718165Y-84390352D01*
X120703603Y-84363108D01*
X120694633Y-84333537D01*
X120691000Y-84296651D01*
X120691000Y-81873349D01*
X120694633Y-81836463D01*
X120703603Y-81806892D01*
X120718165Y-81779648D01*
X120737766Y-81755766D01*
X120761648Y-81736165D01*
X120788892Y-81721603D01*
X120818463Y-81712633D01*
X120855349Y-81709000D01*
X125778651Y-81709000D01*
X125815537Y-81712633D01*
X125815537Y-81712633D01*
G37*
G36*
X104702821Y-81680103D02*
X104736982Y-81690466D01*
X104768464Y-81707293D01*
X104796060Y-81729940D01*
X104818707Y-81757536D01*
X104835534Y-81789018D01*
X104845897Y-81823179D01*
X104850000Y-81864842D01*
X104850000Y-83114158D01*
X104845897Y-83155821D01*
X104835534Y-83189982D01*
X104818707Y-83221464D01*
X104796060Y-83249060D01*
X104768464Y-83271707D01*
X104736982Y-83288534D01*
X104702821Y-83298897D01*
X104661158Y-83303000D01*
X101586842Y-83303000D01*
X101545179Y-83298897D01*
X101511018Y-83288534D01*
X101479536Y-83271707D01*
X101451940Y-83249060D01*
X101429293Y-83221464D01*
X101412466Y-83189982D01*
X101402103Y-83155821D01*
X101398000Y-83114158D01*
X101398000Y-81864842D01*
X101402103Y-81823179D01*
X101412466Y-81789018D01*
X101429293Y-81757536D01*
X101451940Y-81729940D01*
X101479536Y-81707293D01*
X101511018Y-81690466D01*
X101545179Y-81680103D01*
X101586842Y-81676000D01*
X104661158Y-81676000D01*
X104702821Y-81680103D01*
X104702821Y-81680103D01*
G37*
G36*
X156803821Y-80776103D02*
X156837982Y-80786466D01*
X156869464Y-80803293D01*
X156897060Y-80825940D01*
X156919707Y-80853536D01*
X156936534Y-80885018D01*
X156946897Y-80919179D01*
X156951000Y-80960842D01*
X156951000Y-82210158D01*
X156946897Y-82251821D01*
X156936534Y-82285982D01*
X156919707Y-82317464D01*
X156897060Y-82345060D01*
X156869464Y-82367707D01*
X156837982Y-82384534D01*
X156803821Y-82394897D01*
X156762158Y-82399000D01*
X154387842Y-82399000D01*
X154346179Y-82394897D01*
X154312018Y-82384534D01*
X154280536Y-82367707D01*
X154252940Y-82345060D01*
X154230293Y-82317464D01*
X154213466Y-82285982D01*
X154203103Y-82251821D01*
X154199000Y-82210158D01*
X154199000Y-80960842D01*
X154203103Y-80919179D01*
X154213466Y-80885018D01*
X154230293Y-80853536D01*
X154252940Y-80825940D01*
X154280536Y-80803293D01*
X154312018Y-80786466D01*
X154346179Y-80776103D01*
X154387842Y-80772000D01*
X156762158Y-80772000D01*
X156803821Y-80776103D01*
X156803821Y-80776103D01*
G37*
G36*
X156803821Y-76101103D02*
X156837982Y-76111466D01*
X156869464Y-76128293D01*
X156897060Y-76150940D01*
X156919707Y-76178536D01*
X156936534Y-76210018D01*
X156946897Y-76244179D01*
X156951000Y-76285842D01*
X156951000Y-77535158D01*
X156946897Y-77576821D01*
X156936534Y-77610982D01*
X156919707Y-77642464D01*
X156897060Y-77670060D01*
X156869464Y-77692707D01*
X156837982Y-77709534D01*
X156803821Y-77719897D01*
X156762158Y-77724000D01*
X154387842Y-77724000D01*
X154346179Y-77719897D01*
X154312018Y-77709534D01*
X154280536Y-77692707D01*
X154252940Y-77670060D01*
X154230293Y-77642464D01*
X154213466Y-77610982D01*
X154203103Y-77576821D01*
X154199000Y-77535158D01*
X154199000Y-76285842D01*
X154203103Y-76244179D01*
X154213466Y-76210018D01*
X154230293Y-76178536D01*
X154252940Y-76150940D01*
X154280536Y-76128293D01*
X154312018Y-76111466D01*
X154346179Y-76101103D01*
X154387842Y-76097000D01*
X156762158Y-76097000D01*
X156803821Y-76101103D01*
X156803821Y-76101103D01*
G37*
G36*
X104702821Y-75705103D02*
X104736982Y-75715466D01*
X104768464Y-75732293D01*
X104796060Y-75754940D01*
X104818707Y-75782536D01*
X104835534Y-75814018D01*
X104845897Y-75848179D01*
X104850000Y-75889842D01*
X104850000Y-77139158D01*
X104845897Y-77180821D01*
X104835534Y-77214982D01*
X104818707Y-77246464D01*
X104796060Y-77274060D01*
X104768464Y-77296707D01*
X104736982Y-77313534D01*
X104702821Y-77323897D01*
X104661158Y-77328000D01*
X101586842Y-77328000D01*
X101545179Y-77323897D01*
X101511018Y-77313534D01*
X101479536Y-77296707D01*
X101451940Y-77274060D01*
X101429293Y-77246464D01*
X101412466Y-77214982D01*
X101402103Y-77180821D01*
X101398000Y-77139158D01*
X101398000Y-75889842D01*
X101402103Y-75848179D01*
X101412466Y-75814018D01*
X101429293Y-75782536D01*
X101451940Y-75754940D01*
X101479536Y-75732293D01*
X101511018Y-75715466D01*
X101545179Y-75705103D01*
X101586842Y-75701000D01*
X104661158Y-75701000D01*
X104702821Y-75705103D01*
X104702821Y-75705103D01*
G37*
G36*
X103971821Y-71683603D02*
X104005982Y-71693966D01*
X104037464Y-71710793D01*
X104065060Y-71733440D01*
X104087707Y-71761036D01*
X104104534Y-71792518D01*
X104114897Y-71826679D01*
X104119000Y-71868342D01*
X104119000Y-73117658D01*
X104114897Y-73159321D01*
X104104534Y-73193482D01*
X104087707Y-73224964D01*
X104065060Y-73252560D01*
X104037464Y-73275207D01*
X104005982Y-73292034D01*
X103971821Y-73302397D01*
X103930158Y-73306500D01*
X101555842Y-73306500D01*
X101514179Y-73302397D01*
X101480018Y-73292034D01*
X101448536Y-73275207D01*
X101420940Y-73252560D01*
X101398293Y-73224964D01*
X101381466Y-73193482D01*
X101371103Y-73159321D01*
X101367000Y-73117658D01*
X101367000Y-71868342D01*
X101371103Y-71826679D01*
X101381466Y-71792518D01*
X101398293Y-71761036D01*
X101420940Y-71733440D01*
X101448536Y-71710793D01*
X101480018Y-71693966D01*
X101514179Y-71683603D01*
X101555842Y-71679500D01*
X103930158Y-71679500D01*
X103971821Y-71683603D01*
X103971821Y-71683603D01*
G37*
G36*
X123402821Y-71505103D02*
X123436982Y-71515466D01*
X123468464Y-71532293D01*
X123496060Y-71554940D01*
X123518707Y-71582536D01*
X123535534Y-71614018D01*
X123545897Y-71648179D01*
X123550000Y-71689842D01*
X123550000Y-72939158D01*
X123545897Y-72980821D01*
X123535534Y-73014982D01*
X123518707Y-73046464D01*
X123496060Y-73074060D01*
X123468464Y-73096707D01*
X123436982Y-73113534D01*
X123402821Y-73123897D01*
X123361158Y-73128000D01*
X120986842Y-73128000D01*
X120945179Y-73123897D01*
X120911018Y-73113534D01*
X120879536Y-73096707D01*
X120851940Y-73074060D01*
X120829293Y-73046464D01*
X120812466Y-73014982D01*
X120802103Y-72980821D01*
X120798000Y-72939158D01*
X120798000Y-71689842D01*
X120802103Y-71648179D01*
X120812466Y-71614018D01*
X120829293Y-71582536D01*
X120851940Y-71554940D01*
X120879536Y-71532293D01*
X120911018Y-71515466D01*
X120945179Y-71505103D01*
X120986842Y-71501000D01*
X123361158Y-71501000D01*
X123402821Y-71505103D01*
X123402821Y-71505103D01*
G37*
G36*
X156676821Y-71175603D02*
X156710982Y-71185966D01*
X156742464Y-71202793D01*
X156770060Y-71225440D01*
X156792707Y-71253036D01*
X156809534Y-71284518D01*
X156819897Y-71318679D01*
X156824000Y-71360342D01*
X156824000Y-72609658D01*
X156819897Y-72651321D01*
X156809534Y-72685482D01*
X156792707Y-72716964D01*
X156770060Y-72744560D01*
X156742464Y-72767207D01*
X156710982Y-72784034D01*
X156676821Y-72794397D01*
X156635158Y-72798500D01*
X154260842Y-72798500D01*
X154219179Y-72794397D01*
X154185018Y-72784034D01*
X154153536Y-72767207D01*
X154125940Y-72744560D01*
X154103293Y-72716964D01*
X154086466Y-72685482D01*
X154076103Y-72651321D01*
X154072000Y-72609658D01*
X154072000Y-71360342D01*
X154076103Y-71318679D01*
X154086466Y-71284518D01*
X154103293Y-71253036D01*
X154125940Y-71225440D01*
X154153536Y-71202793D01*
X154185018Y-71185966D01*
X154219179Y-71175603D01*
X154260842Y-71171500D01*
X156635158Y-71171500D01*
X156676821Y-71175603D01*
X156676821Y-71175603D01*
G37*
G36*
X149056821Y-71124103D02*
X149090982Y-71134466D01*
X149122464Y-71151293D01*
X149150060Y-71173940D01*
X149172707Y-71201536D01*
X149189534Y-71233018D01*
X149199897Y-71267179D01*
X149204000Y-71308842D01*
X149204000Y-72558158D01*
X149199897Y-72599821D01*
X149189534Y-72633982D01*
X149172707Y-72665464D01*
X149150060Y-72693060D01*
X149122464Y-72715707D01*
X149090982Y-72732534D01*
X149056821Y-72742897D01*
X149015158Y-72747000D01*
X146640842Y-72747000D01*
X146599179Y-72742897D01*
X146565018Y-72732534D01*
X146533536Y-72715707D01*
X146505940Y-72693060D01*
X146483293Y-72665464D01*
X146466466Y-72633982D01*
X146456103Y-72599821D01*
X146452000Y-72558158D01*
X146452000Y-71308842D01*
X146456103Y-71267179D01*
X146466466Y-71233018D01*
X146483293Y-71201536D01*
X146505940Y-71173940D01*
X146533536Y-71151293D01*
X146565018Y-71134466D01*
X146599179Y-71124103D01*
X146640842Y-71120000D01*
X149015158Y-71120000D01*
X149056821Y-71124103D01*
X149056821Y-71124103D01*
G37*
G36*
X134008396Y-69951546D02*
X134181466Y-70023234D01*
X134337230Y-70127312D01*
X134469688Y-70259770D01*
X134573766Y-70415534D01*
X134645454Y-70588604D01*
X134682000Y-70772333D01*
X134682000Y-70959667D01*
X134645454Y-71143396D01*
X134573766Y-71316466D01*
X134469688Y-71472230D01*
X134337230Y-71604688D01*
X134181466Y-71708766D01*
X134008396Y-71780454D01*
X133824667Y-71817000D01*
X133637333Y-71817000D01*
X133453604Y-71780454D01*
X133280534Y-71708766D01*
X133124770Y-71604688D01*
X132992312Y-71472230D01*
X132888234Y-71316466D01*
X132816546Y-71143396D01*
X132780000Y-70959667D01*
X132780000Y-70772333D01*
X132816546Y-70588604D01*
X132888234Y-70415534D01*
X132992312Y-70259770D01*
X133124770Y-70127312D01*
X133280534Y-70023234D01*
X133453604Y-69951546D01*
X133637333Y-69915000D01*
X133824667Y-69915000D01*
X134008396Y-69951546D01*
X134008396Y-69951546D01*
G37*
G36*
X111264000Y-69735000D02*
X109462000Y-69735000D01*
X109462000Y-67933000D01*
X111264000Y-67933000D01*
X111264000Y-69735000D01*
X111264000Y-69735000D01*
G37*
G36*
X113013442Y-67939518D02*
X113079627Y-67946037D01*
X113179460Y-67976321D01*
X113249467Y-67997557D01*
X113332545Y-68041964D01*
X113405991Y-68081222D01*
X113419376Y-68092207D01*
X113543186Y-68193814D01*
X113620768Y-68288349D01*
X113655778Y-68331009D01*
X113655779Y-68331011D01*
X113739443Y-68487533D01*
X113748831Y-68518482D01*
X113790963Y-68657373D01*
X113808359Y-68834000D01*
X113790963Y-69010627D01*
X113756616Y-69123853D01*
X113739443Y-69180467D01*
X113687844Y-69277000D01*
X113655778Y-69336991D01*
X113626448Y-69372729D01*
X113543186Y-69474186D01*
X113441729Y-69557448D01*
X113405991Y-69586778D01*
X113405989Y-69586779D01*
X113249467Y-69670443D01*
X113192853Y-69687616D01*
X113079627Y-69721963D01*
X113013443Y-69728481D01*
X112947260Y-69735000D01*
X112858740Y-69735000D01*
X112792557Y-69728481D01*
X112726373Y-69721963D01*
X112613147Y-69687616D01*
X112556533Y-69670443D01*
X112400011Y-69586779D01*
X112400009Y-69586778D01*
X112364271Y-69557448D01*
X112262814Y-69474186D01*
X112179552Y-69372729D01*
X112150222Y-69336991D01*
X112118156Y-69277000D01*
X112066557Y-69180467D01*
X112049384Y-69123853D01*
X112015037Y-69010627D01*
X111997641Y-68834000D01*
X112015037Y-68657373D01*
X112057169Y-68518482D01*
X112066557Y-68487533D01*
X112150221Y-68331011D01*
X112150222Y-68331009D01*
X112185232Y-68288349D01*
X112262814Y-68193814D01*
X112386624Y-68092207D01*
X112400009Y-68081222D01*
X112473455Y-68041964D01*
X112556533Y-67997557D01*
X112626540Y-67976321D01*
X112726373Y-67946037D01*
X112792558Y-67939518D01*
X112858740Y-67933000D01*
X112947260Y-67933000D01*
X113013442Y-67939518D01*
X113013442Y-67939518D01*
G37*
G36*
X134682000Y-69277000D02*
X132780000Y-69277000D01*
X132780000Y-67375000D01*
X134682000Y-67375000D01*
X134682000Y-69277000D01*
X134682000Y-69277000D01*
G37*
G36*
X103971821Y-67008603D02*
X104005982Y-67018966D01*
X104037464Y-67035793D01*
X104065060Y-67058440D01*
X104087707Y-67086036D01*
X104104534Y-67117518D01*
X104114897Y-67151679D01*
X104119000Y-67193342D01*
X104119000Y-68442658D01*
X104114897Y-68484321D01*
X104104534Y-68518482D01*
X104087707Y-68549964D01*
X104065060Y-68577560D01*
X104037464Y-68600207D01*
X104005982Y-68617034D01*
X103971821Y-68627397D01*
X103930158Y-68631500D01*
X101555842Y-68631500D01*
X101514179Y-68627397D01*
X101480018Y-68617034D01*
X101448536Y-68600207D01*
X101420940Y-68577560D01*
X101398293Y-68549964D01*
X101381466Y-68518482D01*
X101371103Y-68484321D01*
X101367000Y-68442658D01*
X101367000Y-67193342D01*
X101371103Y-67151679D01*
X101381466Y-67117518D01*
X101398293Y-67086036D01*
X101420940Y-67058440D01*
X101448536Y-67035793D01*
X101480018Y-67018966D01*
X101514179Y-67008603D01*
X101555842Y-67004500D01*
X103930158Y-67004500D01*
X103971821Y-67008603D01*
X103971821Y-67008603D01*
G37*
G36*
X123402821Y-66830103D02*
X123436982Y-66840466D01*
X123468464Y-66857293D01*
X123496060Y-66879940D01*
X123518707Y-66907536D01*
X123535534Y-66939018D01*
X123545897Y-66973179D01*
X123550000Y-67014842D01*
X123550000Y-68264158D01*
X123545897Y-68305821D01*
X123535534Y-68339982D01*
X123518707Y-68371464D01*
X123496060Y-68399060D01*
X123468464Y-68421707D01*
X123436982Y-68438534D01*
X123402821Y-68448897D01*
X123361158Y-68453000D01*
X120986842Y-68453000D01*
X120945179Y-68448897D01*
X120911018Y-68438534D01*
X120879536Y-68421707D01*
X120851940Y-68399060D01*
X120829293Y-68371464D01*
X120812466Y-68339982D01*
X120802103Y-68305821D01*
X120798000Y-68264158D01*
X120798000Y-67014842D01*
X120802103Y-66973179D01*
X120812466Y-66939018D01*
X120829293Y-66907536D01*
X120851940Y-66879940D01*
X120879536Y-66857293D01*
X120911018Y-66840466D01*
X120945179Y-66830103D01*
X120986842Y-66826000D01*
X123361158Y-66826000D01*
X123402821Y-66830103D01*
X123402821Y-66830103D01*
G37*
G36*
X156676821Y-66500603D02*
X156710982Y-66510966D01*
X156742464Y-66527793D01*
X156770060Y-66550440D01*
X156792707Y-66578036D01*
X156809534Y-66609518D01*
X156819897Y-66643679D01*
X156824000Y-66685342D01*
X156824000Y-67934658D01*
X156819897Y-67976321D01*
X156809534Y-68010482D01*
X156792707Y-68041964D01*
X156770060Y-68069560D01*
X156742464Y-68092207D01*
X156710982Y-68109034D01*
X156676821Y-68119397D01*
X156635158Y-68123500D01*
X154260842Y-68123500D01*
X154219179Y-68119397D01*
X154185018Y-68109034D01*
X154153536Y-68092207D01*
X154125940Y-68069560D01*
X154103293Y-68041964D01*
X154086466Y-68010482D01*
X154076103Y-67976321D01*
X154072000Y-67934658D01*
X154072000Y-66685342D01*
X154076103Y-66643679D01*
X154086466Y-66609518D01*
X154103293Y-66578036D01*
X154125940Y-66550440D01*
X154153536Y-66527793D01*
X154185018Y-66510966D01*
X154219179Y-66500603D01*
X154260842Y-66496500D01*
X156635158Y-66496500D01*
X156676821Y-66500603D01*
X156676821Y-66500603D01*
G37*
G36*
X149056821Y-66449103D02*
X149090982Y-66459466D01*
X149122464Y-66476293D01*
X149150060Y-66498940D01*
X149172707Y-66526536D01*
X149189534Y-66558018D01*
X149199897Y-66592179D01*
X149204000Y-66633842D01*
X149204000Y-67883158D01*
X149199897Y-67924821D01*
X149189534Y-67958982D01*
X149172707Y-67990464D01*
X149150060Y-68018060D01*
X149122464Y-68040707D01*
X149090982Y-68057534D01*
X149056821Y-68067897D01*
X149015158Y-68072000D01*
X146640842Y-68072000D01*
X146599179Y-68067897D01*
X146565018Y-68057534D01*
X146533536Y-68040707D01*
X146505940Y-68018060D01*
X146483293Y-67990464D01*
X146466466Y-67958982D01*
X146456103Y-67924821D01*
X146452000Y-67883158D01*
X146452000Y-66633842D01*
X146456103Y-66592179D01*
X146466466Y-66558018D01*
X146483293Y-66526536D01*
X146505940Y-66498940D01*
X146533536Y-66476293D01*
X146565018Y-66459466D01*
X146599179Y-66449103D01*
X146640842Y-66445000D01*
X149015158Y-66445000D01*
X149056821Y-66449103D01*
X149056821Y-66449103D01*
G37*
M02*
