G04 #@! TF.GenerationSoftware,KiCad,Pcbnew,(5.0.1-3-g963ef8bb5)*
G04 #@! TF.CreationDate,2019-04-17T19:13:41-07:00*
G04 #@! TF.ProjectId,wireless_proj,776972656C6573735F70726F6A2E6B69,rev?*
G04 #@! TF.SameCoordinates,Original*
G04 #@! TF.FileFunction,Soldermask,Bot*
G04 #@! TF.FilePolarity,Negative*
%FSLAX46Y46*%
G04 Gerber Fmt 4.6, Leading zero omitted, Abs format (unit mm)*
G04 Created by KiCad (PCBNEW (5.0.1-3-g963ef8bb5)) date 2019 April 17, Wednesday 19:13:41*
%MOMM*%
%LPD*%
G01*
G04 APERTURE LIST*
%ADD10C,0.100000*%
G04 APERTURE END LIST*
D10*
G36*
X133323252Y-120833335D02*
X133323255Y-120833336D01*
X133323256Y-120833336D01*
X133653321Y-120933460D01*
X133957510Y-121096052D01*
X134224135Y-121314865D01*
X134442948Y-121581490D01*
X134594317Y-121864682D01*
X134605539Y-121885677D01*
X134705665Y-122215748D01*
X134739472Y-122559000D01*
X134705665Y-122902252D01*
X134705664Y-122902255D01*
X134705664Y-122902256D01*
X134605540Y-123232321D01*
X134442948Y-123536510D01*
X134224135Y-123803135D01*
X133957510Y-124021948D01*
X133653321Y-124184540D01*
X133323256Y-124284664D01*
X133323255Y-124284664D01*
X133323252Y-124284665D01*
X133066021Y-124310000D01*
X132893979Y-124310000D01*
X132636748Y-124284665D01*
X132636745Y-124284664D01*
X132636744Y-124284664D01*
X132306679Y-124184540D01*
X132002490Y-124021948D01*
X131735865Y-123803135D01*
X131517052Y-123536510D01*
X131354460Y-123232321D01*
X131254336Y-122902256D01*
X131254336Y-122902255D01*
X131254335Y-122902252D01*
X131220528Y-122559000D01*
X131254335Y-122215748D01*
X131354461Y-121885677D01*
X131365683Y-121864682D01*
X131517052Y-121581490D01*
X131735865Y-121314865D01*
X132002490Y-121096052D01*
X132306679Y-120933460D01*
X132636744Y-120833336D01*
X132636745Y-120833336D01*
X132636748Y-120833335D01*
X132893979Y-120808000D01*
X133066021Y-120808000D01*
X133323252Y-120833335D01*
X133323252Y-120833335D01*
G37*
G36*
X117233000Y-110375000D02*
X115431000Y-110375000D01*
X115431000Y-108573000D01*
X117233000Y-108573000D01*
X117233000Y-110375000D01*
X117233000Y-110375000D01*
G37*
G36*
X107073000Y-109359000D02*
X105271000Y-109359000D01*
X105271000Y-107557000D01*
X107073000Y-107557000D01*
X107073000Y-109359000D01*
X107073000Y-109359000D01*
G37*
G36*
X103742443Y-107563519D02*
X103808627Y-107570037D01*
X103921853Y-107604384D01*
X103978467Y-107621557D01*
X104117087Y-107695652D01*
X104134991Y-107705222D01*
X104170729Y-107734552D01*
X104272186Y-107817814D01*
X104355448Y-107919271D01*
X104384778Y-107955009D01*
X104384779Y-107955011D01*
X104468443Y-108111533D01*
X104468443Y-108111534D01*
X104519963Y-108281373D01*
X104537359Y-108458000D01*
X104519963Y-108634627D01*
X104485616Y-108747853D01*
X104468443Y-108804467D01*
X104394348Y-108943087D01*
X104384778Y-108960991D01*
X104355448Y-108996729D01*
X104272186Y-109098186D01*
X104170729Y-109181448D01*
X104134991Y-109210778D01*
X104134989Y-109210779D01*
X103978467Y-109294443D01*
X103921853Y-109311616D01*
X103808627Y-109345963D01*
X103742443Y-109352481D01*
X103676260Y-109359000D01*
X103587740Y-109359000D01*
X103521557Y-109352481D01*
X103455373Y-109345963D01*
X103342147Y-109311616D01*
X103285533Y-109294443D01*
X103129011Y-109210779D01*
X103129009Y-109210778D01*
X103093271Y-109181448D01*
X102991814Y-109098186D01*
X102908552Y-108996729D01*
X102879222Y-108960991D01*
X102869652Y-108943087D01*
X102795557Y-108804467D01*
X102778384Y-108747853D01*
X102744037Y-108634627D01*
X102726641Y-108458000D01*
X102744037Y-108281373D01*
X102795557Y-108111534D01*
X102795557Y-108111533D01*
X102879221Y-107955011D01*
X102879222Y-107955009D01*
X102908552Y-107919271D01*
X102991814Y-107817814D01*
X103093271Y-107734552D01*
X103129009Y-107705222D01*
X103146913Y-107695652D01*
X103285533Y-107621557D01*
X103342147Y-107604384D01*
X103455373Y-107570037D01*
X103521557Y-107563519D01*
X103587740Y-107557000D01*
X103676260Y-107557000D01*
X103742443Y-107563519D01*
X103742443Y-107563519D01*
G37*
G36*
X127785040Y-101476825D02*
X128030280Y-101551218D01*
X128030282Y-101551219D01*
X128256296Y-101672026D01*
X128454397Y-101834603D01*
X128616974Y-102032704D01*
X128616975Y-102032706D01*
X128737782Y-102258720D01*
X128812175Y-102503960D01*
X128831000Y-102695095D01*
X128831000Y-104822905D01*
X128812175Y-105014040D01*
X128737782Y-105259280D01*
X128616976Y-105485293D01*
X128616974Y-105485295D01*
X128454396Y-105683397D01*
X128256295Y-105845974D01*
X128256293Y-105845975D01*
X128030279Y-105966782D01*
X127785039Y-106041175D01*
X127530000Y-106066294D01*
X127274960Y-106041175D01*
X127029720Y-105966782D01*
X126803706Y-105845975D01*
X126768182Y-105816821D01*
X126605603Y-105683396D01*
X126443026Y-105485295D01*
X126322219Y-105259281D01*
X126322218Y-105259279D01*
X126247825Y-105014039D01*
X126229000Y-104822904D01*
X126229001Y-102695095D01*
X126247826Y-102503960D01*
X126322219Y-102258720D01*
X126443026Y-102032706D01*
X126443027Y-102032704D01*
X126605604Y-101834603D01*
X126803705Y-101672026D01*
X127029719Y-101551219D01*
X127029721Y-101551218D01*
X127274961Y-101476825D01*
X127530000Y-101451706D01*
X127785040Y-101476825D01*
X127785040Y-101476825D01*
G37*
G36*
X133235040Y-101476825D02*
X133480280Y-101551218D01*
X133480282Y-101551219D01*
X133706296Y-101672026D01*
X133904397Y-101834603D01*
X134066974Y-102032704D01*
X134066975Y-102032706D01*
X134187782Y-102258720D01*
X134262175Y-102503960D01*
X134281000Y-102695095D01*
X134281000Y-104822905D01*
X134262175Y-105014040D01*
X134187782Y-105259280D01*
X134066976Y-105485293D01*
X134066974Y-105485295D01*
X133904396Y-105683397D01*
X133706295Y-105845974D01*
X133706293Y-105845975D01*
X133480279Y-105966782D01*
X133235039Y-106041175D01*
X132980000Y-106066294D01*
X132724960Y-106041175D01*
X132479720Y-105966782D01*
X132253706Y-105845975D01*
X132218182Y-105816821D01*
X132055603Y-105683396D01*
X131893026Y-105485295D01*
X131772219Y-105259281D01*
X131772218Y-105259279D01*
X131697825Y-105014039D01*
X131679000Y-104822904D01*
X131679001Y-102695095D01*
X131697826Y-102503960D01*
X131772219Y-102258720D01*
X131893026Y-102032706D01*
X131893027Y-102032704D01*
X132055604Y-101834603D01*
X132253705Y-101672026D01*
X132479719Y-101551219D01*
X132479721Y-101551218D01*
X132724961Y-101476825D01*
X132980000Y-101451706D01*
X133235040Y-101476825D01*
X133235040Y-101476825D01*
G37*
G36*
X139731000Y-106060000D02*
X137129000Y-106060000D01*
X137129000Y-101458000D01*
X139731000Y-101458000D01*
X139731000Y-106060000D01*
X139731000Y-106060000D01*
G37*
G36*
X105451925Y-93962940D02*
X105485569Y-93966254D01*
X105571900Y-93992443D01*
X105658234Y-94018632D01*
X105817365Y-94103689D01*
X105956844Y-94218156D01*
X106071311Y-94357635D01*
X106156368Y-94516766D01*
X106182557Y-94603100D01*
X106208746Y-94689431D01*
X106208746Y-94689433D01*
X106226432Y-94869000D01*
X106211656Y-95019018D01*
X106208746Y-95048569D01*
X106182557Y-95134901D01*
X106156368Y-95221234D01*
X106071311Y-95380365D01*
X105956844Y-95519844D01*
X105817365Y-95634311D01*
X105658234Y-95719368D01*
X105571901Y-95745557D01*
X105485569Y-95771746D01*
X105451925Y-95775059D01*
X105350998Y-95785000D01*
X104961002Y-95785000D01*
X104860075Y-95775059D01*
X104826431Y-95771746D01*
X104740099Y-95745557D01*
X104653766Y-95719368D01*
X104494635Y-95634311D01*
X104355156Y-95519844D01*
X104240689Y-95380365D01*
X104155632Y-95221234D01*
X104129443Y-95134901D01*
X104103254Y-95048569D01*
X104100344Y-95019018D01*
X104085568Y-94869000D01*
X104103254Y-94689433D01*
X104103254Y-94689431D01*
X104129443Y-94603100D01*
X104155632Y-94516766D01*
X104240689Y-94357635D01*
X104355156Y-94218156D01*
X104494635Y-94103689D01*
X104653766Y-94018632D01*
X104740100Y-93992443D01*
X104826431Y-93966254D01*
X104860075Y-93962940D01*
X104961002Y-93953000D01*
X105350998Y-93953000D01*
X105451925Y-93962940D01*
X105451925Y-93962940D01*
G37*
G36*
X170954000Y-95643000D02*
X169152000Y-95643000D01*
X169152000Y-93841000D01*
X170954000Y-93841000D01*
X170954000Y-95643000D01*
X170954000Y-95643000D01*
G37*
G36*
X105451925Y-91422940D02*
X105485569Y-91426254D01*
X105571901Y-91452443D01*
X105658234Y-91478632D01*
X105817365Y-91563689D01*
X105956844Y-91678156D01*
X106071311Y-91817635D01*
X106156368Y-91976766D01*
X106171113Y-92025373D01*
X106208746Y-92149431D01*
X106208746Y-92149433D01*
X106226432Y-92329000D01*
X106211656Y-92479018D01*
X106208746Y-92508569D01*
X106182557Y-92594900D01*
X106156368Y-92681234D01*
X106071311Y-92840365D01*
X105956844Y-92979844D01*
X105817365Y-93094311D01*
X105658234Y-93179368D01*
X105571901Y-93205557D01*
X105485569Y-93231746D01*
X105451925Y-93235059D01*
X105350998Y-93245000D01*
X104961002Y-93245000D01*
X104860075Y-93235059D01*
X104826431Y-93231746D01*
X104740099Y-93205557D01*
X104653766Y-93179368D01*
X104494635Y-93094311D01*
X104355156Y-92979844D01*
X104240689Y-92840365D01*
X104155632Y-92681234D01*
X104129443Y-92594900D01*
X104103254Y-92508569D01*
X104100344Y-92479018D01*
X104085568Y-92329000D01*
X104103254Y-92149433D01*
X104103254Y-92149431D01*
X104140887Y-92025373D01*
X104155632Y-91976766D01*
X104240689Y-91817635D01*
X104355156Y-91678156D01*
X104494635Y-91563689D01*
X104653766Y-91478632D01*
X104740099Y-91452443D01*
X104826431Y-91426254D01*
X104860075Y-91422940D01*
X104961002Y-91413000D01*
X105350998Y-91413000D01*
X105451925Y-91422940D01*
X105451925Y-91422940D01*
G37*
G36*
X170163443Y-91307519D02*
X170229627Y-91314037D01*
X170342853Y-91348384D01*
X170399467Y-91365557D01*
X170488225Y-91413000D01*
X170555991Y-91449222D01*
X170591729Y-91478552D01*
X170693186Y-91561814D01*
X170776448Y-91663271D01*
X170805778Y-91699009D01*
X170805779Y-91699011D01*
X170889443Y-91855533D01*
X170889443Y-91855534D01*
X170940963Y-92025373D01*
X170958359Y-92202000D01*
X170940963Y-92378627D01*
X170906616Y-92491853D01*
X170889443Y-92548467D01*
X170815348Y-92687087D01*
X170805778Y-92704991D01*
X170776448Y-92740729D01*
X170693186Y-92842186D01*
X170591729Y-92925448D01*
X170555991Y-92954778D01*
X170555989Y-92954779D01*
X170399467Y-93038443D01*
X170342853Y-93055616D01*
X170229627Y-93089963D01*
X170185480Y-93094311D01*
X170097260Y-93103000D01*
X170008740Y-93103000D01*
X169920520Y-93094311D01*
X169876373Y-93089963D01*
X169763147Y-93055616D01*
X169706533Y-93038443D01*
X169550011Y-92954779D01*
X169550009Y-92954778D01*
X169514271Y-92925448D01*
X169412814Y-92842186D01*
X169329552Y-92740729D01*
X169300222Y-92704991D01*
X169290652Y-92687087D01*
X169216557Y-92548467D01*
X169199384Y-92491853D01*
X169165037Y-92378627D01*
X169147641Y-92202000D01*
X169165037Y-92025373D01*
X169216557Y-91855534D01*
X169216557Y-91855533D01*
X169300221Y-91699011D01*
X169300222Y-91699009D01*
X169329552Y-91663271D01*
X169412814Y-91561814D01*
X169514271Y-91478552D01*
X169550009Y-91449222D01*
X169617775Y-91413000D01*
X169706533Y-91365557D01*
X169763147Y-91348384D01*
X169876373Y-91314037D01*
X169942557Y-91307519D01*
X170008740Y-91301000D01*
X170097260Y-91301000D01*
X170163443Y-91307519D01*
X170163443Y-91307519D01*
G37*
G36*
X106222000Y-90705000D02*
X104090000Y-90705000D01*
X104090000Y-88873000D01*
X106222000Y-88873000D01*
X106222000Y-90705000D01*
X106222000Y-90705000D01*
G37*
G36*
X151777000Y-87769000D02*
X149975000Y-87769000D01*
X149975000Y-85967000D01*
X151777000Y-85967000D01*
X151777000Y-87769000D01*
X151777000Y-87769000D01*
G37*
G36*
X134008396Y-69951546D02*
X134181466Y-70023234D01*
X134337230Y-70127312D01*
X134469688Y-70259770D01*
X134573766Y-70415534D01*
X134645454Y-70588604D01*
X134682000Y-70772333D01*
X134682000Y-70959667D01*
X134645454Y-71143396D01*
X134573766Y-71316466D01*
X134469688Y-71472230D01*
X134337230Y-71604688D01*
X134181466Y-71708766D01*
X134008396Y-71780454D01*
X133824667Y-71817000D01*
X133637333Y-71817000D01*
X133453604Y-71780454D01*
X133280534Y-71708766D01*
X133124770Y-71604688D01*
X132992312Y-71472230D01*
X132888234Y-71316466D01*
X132816546Y-71143396D01*
X132780000Y-70959667D01*
X132780000Y-70772333D01*
X132816546Y-70588604D01*
X132888234Y-70415534D01*
X132992312Y-70259770D01*
X133124770Y-70127312D01*
X133280534Y-70023234D01*
X133453604Y-69951546D01*
X133637333Y-69915000D01*
X133824667Y-69915000D01*
X134008396Y-69951546D01*
X134008396Y-69951546D01*
G37*
G36*
X113013442Y-67939518D02*
X113079627Y-67946037D01*
X113192853Y-67980384D01*
X113249467Y-67997557D01*
X113388087Y-68071652D01*
X113405991Y-68081222D01*
X113441729Y-68110552D01*
X113543186Y-68193814D01*
X113626448Y-68295271D01*
X113655778Y-68331009D01*
X113655779Y-68331011D01*
X113739443Y-68487533D01*
X113739443Y-68487534D01*
X113790963Y-68657373D01*
X113808359Y-68834000D01*
X113790963Y-69010627D01*
X113756616Y-69123853D01*
X113739443Y-69180467D01*
X113687844Y-69277000D01*
X113655778Y-69336991D01*
X113626448Y-69372729D01*
X113543186Y-69474186D01*
X113441729Y-69557448D01*
X113405991Y-69586778D01*
X113405989Y-69586779D01*
X113249467Y-69670443D01*
X113192853Y-69687616D01*
X113079627Y-69721963D01*
X113013443Y-69728481D01*
X112947260Y-69735000D01*
X112858740Y-69735000D01*
X112792557Y-69728481D01*
X112726373Y-69721963D01*
X112613147Y-69687616D01*
X112556533Y-69670443D01*
X112400011Y-69586779D01*
X112400009Y-69586778D01*
X112364271Y-69557448D01*
X112262814Y-69474186D01*
X112179552Y-69372729D01*
X112150222Y-69336991D01*
X112118156Y-69277000D01*
X112066557Y-69180467D01*
X112049384Y-69123853D01*
X112015037Y-69010627D01*
X111997641Y-68834000D01*
X112015037Y-68657373D01*
X112066557Y-68487534D01*
X112066557Y-68487533D01*
X112150221Y-68331011D01*
X112150222Y-68331009D01*
X112179552Y-68295271D01*
X112262814Y-68193814D01*
X112364271Y-68110552D01*
X112400009Y-68081222D01*
X112417913Y-68071652D01*
X112556533Y-67997557D01*
X112613147Y-67980384D01*
X112726373Y-67946037D01*
X112792558Y-67939518D01*
X112858740Y-67933000D01*
X112947260Y-67933000D01*
X113013442Y-67939518D01*
X113013442Y-67939518D01*
G37*
G36*
X111264000Y-69735000D02*
X109462000Y-69735000D01*
X109462000Y-67933000D01*
X111264000Y-67933000D01*
X111264000Y-69735000D01*
X111264000Y-69735000D01*
G37*
G36*
X134682000Y-69277000D02*
X132780000Y-69277000D01*
X132780000Y-67375000D01*
X134682000Y-67375000D01*
X134682000Y-69277000D01*
X134682000Y-69277000D01*
G37*
M02*
